# https://github.com/mikedh/trimesh
v 61.56225788 15.45624431 100.56856316
v 61.56225788 15.53247513 99.95479797
v 62.38399678 18.52778008 97.91630877
v 62.86870126 20.33195173 97.91630877
v 61.56225788 15.45624431 103.21879505
v 61.56225788 16.32339067 97.91630877
v 62.34101868 18.68977749 96.41510903
v 65.90969019 31.68107744 97.91630877
v 63.57894596 22.98262604 105.86702814
v 65.12923081 28.76994321 108.51927463
v 61.56225788 15.57694640 113.31264423
v 61.56225788 18.13232626 96.10923768
v 62.56187792 20.33195173 96.01465426
v 65.05518444 29.04946676 96.21186370
v 65.90969019 31.68107744 103.21879505
v 65.30753462 30.93463317 95.79330125
v 65.40754166 31.68107744 95.71280421
v 64.77474444 27.44540399 105.86702814
v 65.74457607 31.68107744 111.15945723
v 65.35349511 31.68107744 113.93043072
v 64.22535949 31.68107744 115.10362224
v 63.61469126 31.68107744 115.10563684
v 61.65460154 31.68107744 113.28850065
v 61.56225788 31.68107744 113.14763677
v 61.56225788 20.33195173 95.39686778
v 62.91678696 22.98262604 95.58602672
v 63.58022187 30.93463317 94.62010972
v 63.58022187 31.68107744 94.54967778
v 61.56225788 31.68107744 95.25399719
v 61.56225788 22.98262604 94.82134046
v 61.56225788 25.63170447 94.66639018
v 61.56225788 28.26807909 94.83542684
f 1 2 3
f 1 3 4
f 1 4 8
f 1 8 15
f 1 15 18
f 1 18 9
f 1 9 5
f 1 5 11
f 1 11 24
f 1 24 29
f 1 29 32
f 1 32 31
f 1 31 30
f 1 30 25
f 1 25 12
f 1 12 6
f 1 6 2
f 2 6 7
f 2 7 3
f 3 7 4
f 4 7 8
f 5 9 10
f 5 10 11
f 6 12 7
f 7 12 13
f 7 13 14
f 7 14 8
f 8 14 16
f 8 16 17
f 8 17 28
f 8 28 29
f 8 29 24
f 8 24 23
f 8 23 22
f 8 22 21
f 8 21 20
f 8 20 19
f 8 19 15
f 9 18 10
f 10 19 11
f 10 18 15
f 10 15 19
f 11 19 20
f 11 20 21
f 11 21 22
f 11 22 23
f 11 23 24
f 12 25 13
f 13 26 16
f 13 16 14
f 13 25 26
f 16 26 17
f 17 26 27
f 17 27 28
f 25 30 26
f 26 30 27
f 27 30 28
f 28 30 31
f 28 31 32
f 28 32 29

