# https://github.com/mikedh/trimesh
v -23.90201647 78.78466410 201.70854642
v -26.47453621 79.47215569 201.70854642
v -23.89724859 82.50912728 201.70854642
v -23.89724859 79.57894916 203.52231309
v -23.90201647 79.57894916 203.52231309
v -25.78291272 79.83258711 202.96693570
v -27.54933238 80.06620152 202.42561705
v -29.20286737 80.28646428 201.91241983
v -36.85682059 82.25549329 201.70854642
v -23.89724859 94.30994176 201.70854642
v -23.89724859 80.17966686 204.85100593
v -23.90201647 80.17966686 204.85100593
v -26.62080791 80.47335581 203.89491109
v -34.50371431 82.32223575 203.31141228
v -36.14770959 82.54917434 202.82633253
v -37.91571722 82.78278875 202.27798649
v -37.40057650 82.40233381 201.70854642
v -29.10906213 99.91666400 201.70854642
v -23.89724859 125.64083240 239.02435670
v -23.89724859 81.01400293 206.60853173
v -34.50371431 82.92295740 204.64010118
v -23.90201647 81.01400293 206.60853173
v -31.12827834 82.46908022 205.61025673
v -32.89469800 82.70937046 205.11814958
v -37.08100194 83.23666593 203.81055077
v -38.24483545 82.66264758 201.70854642
v -37.20660623 84.65169617 206.75616427
v -38.12559098 85.42595770 207.74037856
v -38.91260768 84.94538116 205.96879205
v -29.64963815 100.48400652 201.70854642
v -23.89724859 128.59103503 242.88388883
v -30.25699612 101.39843670 202.18659482
v -23.89724859 82.25549329 209.16046109
v -24.39171795 82.85621099 210.12358530
v -32.00592432 84.57160205 209.46275553
v -39.31327181 84.48483211 203.95818133
v -39.53904509 83.87743463 201.70854642
v -32.99009516 85.33251193 210.48212062
v -36.35757939 85.13894457 208.22545633
v -37.20660623 85.85981134 209.16749046
v -37.16208755 87.28818928 212.04280434
v -38.81562254 87.58187823 211.24840276
v -31.24752677 100.63085100 201.70854642
v -23.89724859 129.06493673 243.54471661
v -30.84209081 101.39843670 202.18659482
v -23.89724859 146.97306956 270.22398045
v -23.89724859 82.43570899 209.52602578
v -23.89724859 83.27003716 211.17107180
v -23.89724859 83.43023328 211.48039562
v -31.22367550 85.09889752 210.93907894
v -39.98104403 86.60737352 203.95818133
v -39.62967042 84.16444776 201.70854642
v -34.50371431 85.53942699 210.06031506
v -38.05086123 88.22931882 213.01998926
v -36.28285359 87.80881682 213.46288688
v -35.89967697 90.55877528 218.58080434
v -38.59780100 90.42528246 216.17650752
v -38.79177128 91.25961853 201.70854642
v -39.35619856 89.61097387 201.70854642
v -24.54435340 144.92394842 270.22398045
v -23.89724859 146.45244597 271.70029398
v -29.20286737 84.82523604 211.44524680
v -23.89724859 84.80521647 214.03935632
v -23.90201647 84.82523604 214.07450711
v -25.92441653 85.09222169 213.57536863
v -27.69083619 85.33251193 213.14653172
v -39.37686992 89.25721829 209.25888212
v -40.14003930 86.60737352 201.70854642
v -38.59780100 91.29298976 216.17650752
v -36.93154639 90.15829682 217.11854164
v -34.50371431 87.56852658 213.89875315
v -31.84692906 87.28818928 214.69315474
v -34.50371431 88.29606523 215.22744204
v -29.20286737 85.53275511 212.76690632
v -34.50371431 89.40405881 217.20993331
v -29.20286737 87.58187823 216.51395275
v -27.32356305 88.08247829 218.27850792
v -25.55555146 87.84218805 218.67922735
v -31.85488079 90.01145234 219.47363091
v -34.50371431 91.17284859 220.21881902
v -35.20964541 93.40218741 223.56515392
v -35.99348615 95.75834323 226.67949004
v -36.42435741 92.86154029 221.80059481
v -36.13975785 98.14787423 229.69540709
v -35.97281479 100.79771900 232.30357338
v -39.45954745 89.25721829 201.70854642
v -33.77711186 110.46931230 238.41274042
v -30.55590328 122.49038856 251.66448844
v -30.55590328 122.49038856 254.31484674
v -25.96416733 139.61758700 267.57362216
v -25.06267008 142.92154620 270.22398045
v -25.31547058 141.33964994 271.67920785
v -24.22795480 144.92394842 272.87432295
v -37.32903061 97.21342053 219.86028370
v -23.89724859 145.99189495 272.88135429
v -23.89724859 85.54609887 215.40319403
v -23.90201647 85.54609887 215.40319403
v -26.70507738 85.80641658 214.50334204
v -39.45954745 89.25721829 206.60853173
v -38.72499722 91.70014405 214.55958291
v -40.05895369 87.01452781 201.70854642
v -35.97281479 101.72549688 232.30357338
v -30.95815538 87.81548870 216.09214719
v -32.72457504 88.05577499 215.66331029
v -23.90201647 86.56065064 217.20993331
v -26.48566391 87.31488864 217.32241505
v -23.90201647 87.62192529 219.04479006
v -23.89724859 89.86461182 222.74262893
v -24.84485249 90.68559623 223.67060432
v -33.44163777 93.16189717 223.94477537
v -34.39718946 94.10302670 224.96414243
v -34.50371431 95.51805299 227.03802535
v -34.50371431 96.43248317 228.35968488
v -34.28907268 97.90091212 230.53198687
v -33.75803243 100.93788370 234.77817178
v -33.77075205 103.38081341 237.64645828
v -32.77227362 106.67142689 242.25820986
v -33.68966644 105.87046600 240.49365074
v -32.98055544 109.46811218 244.92261899
v -33.49410424 108.44021271 243.15806382
v -33.25879519 111.23022416 245.40769479
v -38.43721775 93.07512723 211.90923252
v -33.30013396 112.24477395 243.71344121
v -36.61833163 99.86326530 225.16098449
v -30.54636356 122.45701535 255.77007414
v -25.38860840 141.59996371 270.22398045
v -27.99610316 130.97389120 263.76330549
v -25.31547058 140.67218385 271.67920785
v -23.89724859 144.92394842 273.52812729
v -23.89724859 145.50464456 273.45079831
v -38.79177128 91.74686693 211.90923252
v -36.04436464 101.99915835 230.46871663
v -23.89724859 86.56065064 217.20993331
v -36.56586122 99.86326530 227.81836623
v -37.32267080 97.21342053 222.51063410
v -33.25879519 112.09125562 245.40769479
v -23.89724859 87.62192529 219.04479006
v -23.89724859 91.29298976 224.97820116
v -31.85488079 93.83603711 225.59685274
v -23.90201647 93.66249723 228.50731939
v -30.54954347 95.87848835 229.14705710
v -32.31596312 96.11877464 228.79555313
v -33.26197509 98.51498147 231.82552892
v -31.85488079 101.64540277 236.50055074
v -31.85488079 102.97365912 238.14559677
v -31.87554820 105.53005812 241.25290154
v -31.00585396 106.36439024 242.53238090
v -31.21572772 108.92078924 245.28115431
v -31.11397074 111.49053595 248.00883763
v -30.81824349 116.75684833 253.30953842
v -30.63698889 119.56688429 255.79116027
v -30.62268129 121.06200963 255.84740312
v -27.99610316 130.08616037 263.76330549
v -25.30116298 135.56606364 268.95152848
v -23.90201647 140.13153674 272.03774317
v -23.89724859 142.72798280 273.09226299
v -38.03655363 94.56357576 217.20993331
v -23.89724859 92.76809453 227.17862457
v -23.90201647 92.76809453 227.17862457
v -23.89724859 93.66249723 228.50731939
v -23.89724859 95.19099676 230.68664877
v -26.55244192 95.34451311 229.91333924
v -29.20286737 95.69826870 229.40716941
v -31.60208029 96.91305970 230.20860432
v -26.55244192 96.28564264 231.23499877
v -31.85488079 98.32141806 232.07860989
v -31.85488079 100.63752683 235.17889121
v -23.89724859 98.17457359 234.74302297
v -23.90201647 99.25586782 236.15607416
v -28.06129319 101.13812688 237.15435113
v -29.24261421 102.49975841 238.42679916
v -28.65592759 103.62777750 239.99451225
v -30.42234725 103.86806577 239.70627852
v -23.89724859 104.11502788 242.13166542
v -26.55244192 103.34744218 240.33898883
v -23.89724859 105.61015224 243.81186027
v -23.89724859 105.83041697 244.05791384
v -29.20286737 107.31219362 244.12821542
v -29.20286737 109.83521745 246.92620033
v -29.20286737 111.16347774 248.34627892
v -29.20286737 112.45168901 249.66794239
v -29.20286737 113.77327151 251.01069200
v -29.20286737 115.08818213 252.33937892
v -29.20286737 116.41644045 253.63292492
v -29.20286737 117.90489095 254.96161184
v -29.20286737 119.22647542 256.10752333
v -28.50806397 121.98311366 258.56805905
v -23.90201647 134.02421443 268.16415231
v -23.90201647 135.35247473 269.09915509
v -23.89724859 136.96774420 270.16070626
v -23.90201647 138.80995226 271.27849237
v -26.55244192 120.30777163 257.83692573
v -23.89724859 140.13153674 272.03774317
v -23.89724859 96.73951982 232.81677455
v -24.66836971 96.03868053 231.58650274
v -27.27745244 98.69519717 234.22982574
v -23.89724859 99.25586782 236.15607416
v -23.90201647 100.58412812 237.82924161
v -26.55244192 100.93788370 237.40040471
v -23.90201647 101.66542235 239.15090113
v -23.90201647 102.99368265 240.76782574
v -23.89724859 102.99368265 240.76782574
v -23.89724859 107.99300939 246.46221066
v -26.55244192 108.28002053 245.99119755
v -24.83372084 109.24784745 247.57296938
v -23.89724859 110.30912013 248.92977773
v -23.98469401 110.44261295 249.04226342
v -24.03875240 113.07243221 251.70667650
v -24.94183763 114.51415983 252.91585428
v -26.55244192 116.05600904 253.96333486
v -26.55244192 117.47103730 255.28499834
v -26.55244192 118.79929760 256.50823881
v -23.89724859 134.02421443 268.16415231
v -24.43464864 120.02076147 258.09703803
v -23.89724859 135.35247473 269.09915509
v -23.89724859 138.80995226 271.27849237
v -23.89724859 118.89941722 257.24639557
v -23.89724859 118.49226293 256.88786025
v -23.89724859 100.58412812 237.82924161
v -23.89724859 101.66542235 239.15090113
v -23.89724859 113.11915510 251.79103683
v -23.89724859 115.66220442 254.25860389
v -23.94335524 115.74897436 254.32890152
v -24.71129646 117.22407519 255.51699317
v -23.89724859 120.70157822 258.56102770
v -23.89724859 116.23622475 254.79289120
f 1 2 9
f 1 9 17
f 1 17 26
f 1 26 37
f 1 37 52
f 1 52 68
f 1 68 101
f 1 101 86
f 1 86 59
f 1 59 58
f 1 58 43
f 1 43 30
f 1 30 18
f 1 18 10
f 1 10 3
f 1 3 4
f 1 4 5
f 1 5 6
f 1 6 7
f 1 7 8
f 1 8 2
f 2 8 9
f 3 10 19
f 3 19 31
f 3 31 44
f 3 44 46
f 3 46 61
f 3 61 95
f 3 95 130
f 3 130 129
f 3 129 156
f 3 156 193
f 3 193 216
f 3 216 190
f 3 190 215
f 3 215 213
f 3 213 225
f 3 225 217
f 3 217 218
f 3 218 226
f 3 226 222
f 3 222 221
f 3 221 206
f 3 206 203
f 3 203 177
f 3 177 176
f 3 176 174
f 3 174 202
f 3 202 220
f 3 220 219
f 3 219 197
f 3 197 168
f 3 168 194
f 3 194 161
f 3 161 160
f 3 160 158
f 3 158 138
f 3 138 108
f 3 108 137
f 3 137 133
f 3 133 96
f 3 96 63
f 3 63 49
f 3 49 48
f 3 48 47
f 3 47 33
f 3 33 20
f 3 20 11
f 3 11 4
f 4 11 12
f 4 12 5
f 5 12 13
f 5 13 6
f 6 13 14
f 6 14 7
f 7 14 15
f 7 15 16
f 7 16 8
f 8 16 9
f 9 16 17
f 10 18 19
f 11 20 22
f 11 22 12
f 12 21 13
f 12 22 23
f 12 23 24
f 12 24 21
f 13 21 25
f 13 25 14
f 14 25 15
f 15 25 16
f 16 26 17
f 16 25 27
f 16 27 28
f 16 28 29
f 16 29 26
f 18 30 19
f 19 30 32
f 19 32 31
f 20 33 22
f 21 24 27
f 21 27 25
f 22 33 34
f 22 34 35
f 22 35 27
f 22 27 23
f 23 27 24
f 26 29 36
f 26 36 37
f 27 35 38
f 27 38 39
f 27 39 40
f 27 40 28
f 28 40 41
f 28 41 42
f 28 42 29
f 29 42 36
f 30 43 32
f 31 32 44
f 32 43 45
f 32 45 46
f 32 46 44
f 33 47 34
f 34 48 49
f 34 49 50
f 34 50 38
f 34 38 35
f 34 47 48
f 36 51 52
f 36 52 37
f 36 42 51
f 38 53 39
f 38 50 41
f 38 41 53
f 39 53 41
f 39 41 40
f 41 54 42
f 41 50 55
f 41 55 56
f 41 56 54
f 42 54 57
f 42 57 51
f 43 58 45
f 45 58 46
f 46 58 59
f 46 59 60
f 46 60 61
f 49 62 50
f 49 63 64
f 49 64 65
f 49 65 66
f 49 66 62
f 50 62 55
f 51 67 68
f 51 68 52
f 51 57 69
f 51 69 67
f 54 56 70
f 54 70 57
f 55 66 71
f 55 71 72
f 55 72 73
f 55 73 56
f 55 62 74
f 55 74 66
f 56 73 75
f 56 75 76
f 56 76 77
f 56 77 78
f 56 78 79
f 56 79 80
f 56 80 81
f 56 81 82
f 56 82 83
f 56 83 70
f 57 70 83
f 57 83 82
f 57 82 84
f 57 84 85
f 57 85 102
f 57 102 69
f 59 86 60
f 60 87 88
f 60 88 89
f 60 89 90
f 60 90 91
f 60 91 92
f 60 92 93
f 60 93 61
f 60 86 94
f 60 94 87
f 61 93 95
f 62 66 74
f 63 96 97
f 63 97 64
f 64 97 65
f 65 97 98
f 65 98 72
f 65 72 66
f 66 72 71
f 67 99 68
f 67 69 100
f 67 100 99
f 68 99 101
f 69 102 100
f 72 97 103
f 72 103 104
f 72 104 73
f 72 98 97
f 73 104 75
f 75 104 103
f 75 103 76
f 76 103 97
f 76 97 105
f 76 105 106
f 76 106 77
f 77 106 105
f 77 105 78
f 78 80 79
f 78 105 107
f 78 107 108
f 78 108 80
f 80 108 81
f 81 108 109
f 81 109 110
f 81 110 111
f 81 111 112
f 81 112 82
f 82 112 113
f 82 113 114
f 82 114 84
f 84 114 115
f 84 115 116
f 84 116 117
f 84 117 118
f 84 118 119
f 84 119 85
f 85 119 120
f 85 120 121
f 85 121 136
f 85 136 102
f 86 101 99
f 86 99 122
f 86 122 94
f 87 123 89
f 87 89 88
f 87 94 124
f 87 124 123
f 89 125 90
f 89 123 125
f 90 126 91
f 90 125 126
f 91 126 92
f 92 127 153
f 92 153 128
f 92 128 129
f 92 129 130
f 92 130 93
f 92 126 125
f 92 125 127
f 93 130 95
f 94 122 99
f 94 99 131
f 94 131 132
f 94 132 124
f 96 133 105
f 96 105 97
f 99 100 131
f 100 102 134
f 100 134 135
f 100 135 131
f 102 136 132
f 102 132 134
f 105 133 137
f 105 137 107
f 107 137 108
f 108 138 109
f 109 138 110
f 110 138 139
f 110 139 112
f 110 112 111
f 112 139 140
f 112 140 141
f 112 141 142
f 112 142 113
f 113 142 143
f 113 143 114
f 114 143 115
f 115 144 145
f 115 145 117
f 115 117 116
f 115 143 144
f 117 145 146
f 117 146 147
f 117 147 148
f 117 148 149
f 117 149 119
f 117 119 118
f 119 121 120
f 119 149 150
f 119 150 151
f 119 151 121
f 121 151 136
f 123 132 136
f 123 136 125
f 123 124 132
f 125 152 127
f 125 136 152
f 127 152 153
f 128 154 155
f 128 155 156
f 128 156 129
f 128 153 154
f 131 135 157
f 131 157 132
f 132 157 135
f 132 135 134
f 136 151 152
f 138 158 159
f 138 159 139
f 139 159 140
f 140 159 158
f 140 158 160
f 140 160 161
f 140 161 162
f 140 162 163
f 140 163 141
f 141 163 164
f 141 164 142
f 142 164 143
f 143 164 165
f 143 165 166
f 143 166 167
f 143 167 144
f 144 167 168
f 144 168 169
f 144 169 170
f 144 170 145
f 145 171 172
f 145 172 173
f 145 173 146
f 145 170 171
f 146 174 147
f 146 173 172
f 146 172 175
f 146 175 174
f 147 174 176
f 147 176 177
f 147 177 178
f 147 178 179
f 147 179 148
f 148 179 180
f 148 180 149
f 149 180 181
f 149 181 182
f 149 182 183
f 149 183 150
f 150 183 184
f 150 184 185
f 150 185 186
f 150 186 151
f 151 186 187
f 151 187 154
f 151 154 153
f 151 153 152
f 154 188 189
f 154 189 190
f 154 190 191
f 154 191 155
f 154 187 192
f 154 192 188
f 155 193 156
f 155 191 216
f 155 216 193
f 161 194 195
f 161 195 165
f 161 165 162
f 162 165 164
f 162 164 163
f 165 195 166
f 166 195 194
f 166 194 196
f 166 196 167
f 167 196 168
f 168 197 169
f 168 196 194
f 169 197 219
f 169 219 198
f 169 198 199
f 169 199 170
f 170 199 200
f 170 200 175
f 170 175 172
f 170 172 171
f 174 175 201
f 174 201 202
f 175 200 201
f 177 203 178
f 178 203 204
f 178 204 179
f 179 204 203
f 179 203 205
f 179 205 180
f 180 206 181
f 180 205 206
f 181 206 207
f 181 207 208
f 181 208 182
f 182 208 183
f 183 208 209
f 183 209 184
f 184 209 210
f 184 210 211
f 184 211 212
f 184 212 185
f 185 212 192
f 185 192 186
f 186 192 187
f 188 213 215
f 188 215 189
f 188 192 214
f 188 214 213
f 189 215 190
f 190 216 191
f 192 217 214
f 192 212 218
f 192 218 217
f 198 219 220
f 198 220 200
f 198 200 199
f 200 220 202
f 200 202 201
f 203 206 205
f 206 221 208
f 206 208 207
f 208 221 209
f 209 222 223
f 209 223 210
f 209 221 222
f 210 223 224
f 210 224 211
f 211 224 212
f 212 224 218
f 213 214 225
f 214 217 225
f 218 224 226
f 222 226 223
f 223 226 224

