# https://github.com/mikedh/trimesh
v -86.76292303 40.06311839 116.83386208
v -85.77531947 40.06311839 116.83386208
v -86.94364436 40.14843466 116.83386208
v -86.75123046 40.06525149 116.46943307
v -84.63144628 41.15947075 116.83386208
v -85.78170299 40.06525149 116.46943307
v -88.08858410 40.70087705 116.83386208
v -88.07582497 40.70514326 116.46943307
v -86.50778796 40.13136982 114.49977204
v -84.45072495 41.33650260 116.83386208
v -84.45816712 41.33650260 116.46943307
v -85.95498215 40.13136982 114.49977204
v -83.51095824 42.81679003 107.04849137
v -89.05917812 41.84414981 116.83386208
v -89.19843823 42.15343412 113.81864026
v -89.16973612 42.35607112 111.16784744
v -89.04323514 42.60136230 109.12443630
v -87.44329637 40.72434119 113.69716392
v -87.52196051 41.25118634 111.16784744
v -86.93620219 42.60136230 106.71659615
v -83.49076485 42.76560343 108.51705462
v -83.48863175 42.71440893 111.16784744
v -83.48863175 42.67814616 113.81864026
v -83.48863175 42.66321443 116.46943307
v -83.48863175 42.66321443 116.83386208
v -84.87170492 42.63122576 106.72744338
v -84.87170492 42.10011441 108.51705462
v -83.45674579 45.42755949 101.79245146
v -83.27283270 45.05428995 103.21980630
v -80.86070265 53.39424554 96.55160400
v -80.79159797 53.12335710 97.91822067
v -81.12222122 51.56415272 100.56901348
v -81.65375920 49.49302703 103.21980630
v -82.36389329 46.84172859 105.86626181
v -89.19950478 42.02545577 116.83386208
v -89.19950478 42.02972197 116.46943307
v -89.19843823 44.17976462 113.81864026
v -89.16973612 44.17976462 111.16784744
v -89.04323514 43.74037676 109.12443630
v -88.45321851 46.84172859 105.86626181
v -87.05421026 49.32025349 100.36727713
v -86.58538555 50.08812360 98.76421770
v -87.46455631 46.61350224 102.99420288
v -86.82776940 47.34297648 101.11782960
v -87.03400897 44.87725020 103.72740610
v -87.70055664 42.17476516 108.35002466
v -85.86461754 45.57473578 101.96165403
v -84.09778311 45.42755949 101.79245146
v -84.87170492 43.31591272 105.40638034
v -83.07616049 44.19256325 108.51705462
v -83.07403529 44.19256325 111.16784744
v -83.07403529 44.19256325 116.83386208
v -83.41421801 48.06179310 99.15901579
v -82.22144143 53.10842537 96.42579035
v -82.22144143 54.79134980 95.75983521
v -82.22144143 57.44264824 94.97241164
v -80.61406840 54.79134980 96.25008576
v -78.34439020 61.85151396 97.91822067
v -79.52121590 57.44478135 97.91822067
v -80.28131994 54.79348291 97.91822067
v -80.56197325 53.87417029 97.91822067
v -80.56197325 53.63100431 99.53645673
v -80.74163593 52.88873144 100.56901348
v -89.19950478 44.17976462 116.83386208
v -88.84443773 45.50648435 111.16784744
v -88.48617892 46.84172859 108.51705462
v -87.76541091 49.49302703 103.21980630
v -86.61727941 52.14005136 98.34555255
v -85.72960784 48.32201601 99.34990492
v -84.65802318 54.79134980 96.10475026
v -85.03966713 52.16351551 97.07872565
v -83.96383206 48.06179310 99.15901579
v -82.45957487 46.48125767 116.83386208
v -84.26893707 53.06363809 96.41060581
v -82.22144143 59.94249628 94.67305811
v -80.56197325 60.09393878 95.28694970
v -79.85714821 60.09393878 95.55593415
v -80.56197325 57.44478135 95.64920610
v -80.56197325 55.12836447 96.18934760
v -80.20903141 57.44478135 95.79454951
v -79.50739813 61.85151396 95.51038052
v -78.34013189 61.85151396 100.56901348
v -80.56197325 53.55848666 100.56901348
v -88.79553434 45.68778241 116.83386208
v -87.77603693 49.49302703 116.83386208
v -84.97588731 59.94249628 103.21980630
v -84.97588731 59.94249628 100.56901348
v -87.77603693 49.49302703 105.86626181
v -86.45356761 54.42447958 100.56901348
v -87.05101850 52.14005136 100.56901348
v -85.98580946 54.90866263 97.75335541
v -84.25830315 59.94249628 95.69693234
v -84.55171559 57.44264824 95.77068244
v -86.36851996 54.10666285 98.52776705
v -84.85682060 49.32025349 98.51909243
v -81.09670298 51.56415272 116.83386208
v -80.56197325 61.85151396 95.28261239
v -79.89435903 61.85151396 95.42577529
v -78.34013189 61.85151396 105.94434922
v -80.74163593 52.88873144 116.83386208
v -86.45356761 54.42447958 116.83386208
v -84.95675258 59.94249628 105.71875370
v -80.56197325 61.85151396 111.05288102
v -84.97269556 59.94249628 97.91822067
v -85.59991510 57.44264824 97.91822067
v -78.36352494 61.85151396 108.51921933
v -80.65339652 54.79134980 116.83386208
v -78.36670879 61.85151396 108.55393362
v -85.96348297 55.75119140 116.83386208
v -84.92273352 59.94249628 108.51705462
v -84.16582123 59.94249628 111.15917281
v -84.61124500 56.68756885 116.83386208
v -82.25121009 56.79208306 116.83386208
v -80.19946404 61.85151396 110.98779764
v -80.80860750 56.23538236 116.83386208
v -79.53822543 61.85151396 110.66458495
v -85.77106907 55.95169530 116.83386208
v -81.03823222 56.37401833 116.83386208
f 1 2 5
f 1 5 10
f 1 10 25
f 1 25 52
f 1 52 73
f 1 73 96
f 1 96 100
f 1 100 107
f 1 107 115
f 1 115 118
f 1 118 113
f 1 113 112
f 1 112 117
f 1 117 109
f 1 109 101
f 1 101 85
f 1 85 84
f 1 84 64
f 1 64 35
f 1 35 14
f 1 14 7
f 1 7 3
f 1 3 4
f 1 4 6
f 1 6 2
f 2 6 5
f 3 7 4
f 4 7 8
f 4 8 9
f 4 9 12
f 4 12 6
f 5 6 11
f 5 11 10
f 6 12 13
f 6 13 11
f 7 14 15
f 7 15 8
f 8 15 16
f 8 16 17
f 8 17 18
f 8 18 9
f 9 18 19
f 9 19 20
f 9 20 12
f 10 11 21
f 10 21 22
f 10 22 23
f 10 23 24
f 10 24 25
f 11 13 21
f 12 20 26
f 12 26 27
f 12 27 13
f 13 27 26
f 13 26 28
f 13 28 29
f 13 29 30
f 13 30 31
f 13 31 32
f 13 32 33
f 13 33 34
f 13 34 21
f 14 35 36
f 14 36 15
f 15 37 38
f 15 38 16
f 15 36 37
f 16 38 39
f 16 39 17
f 17 39 40
f 17 40 41
f 17 41 42
f 17 42 43
f 17 43 44
f 17 44 45
f 17 45 20
f 17 20 46
f 17 46 19
f 17 19 18
f 19 46 20
f 20 45 47
f 20 47 48
f 20 48 49
f 20 49 26
f 21 34 50
f 21 50 22
f 22 50 23
f 23 50 24
f 24 50 51
f 24 51 52
f 24 52 25
f 26 49 28
f 28 49 48
f 28 48 72
f 28 72 53
f 28 53 30
f 28 30 29
f 30 54 55
f 30 55 56
f 30 56 57
f 30 57 58
f 30 58 59
f 30 59 60
f 30 60 61
f 30 61 31
f 30 53 54
f 31 61 32
f 32 61 60
f 32 60 62
f 32 62 63
f 32 63 33
f 33 63 34
f 34 63 51
f 34 51 50
f 35 64 36
f 36 64 37
f 37 65 38
f 37 64 65
f 38 65 66
f 38 66 40
f 38 40 39
f 40 67 68
f 40 68 41
f 40 66 67
f 41 68 42
f 42 69 44
f 42 44 43
f 42 68 70
f 42 70 71
f 42 71 69
f 44 47 45
f 44 69 47
f 47 69 72
f 47 72 48
f 51 73 52
f 51 63 73
f 53 72 74
f 53 74 54
f 54 74 55
f 55 74 56
f 56 75 76
f 56 76 77
f 56 77 78
f 56 78 79
f 56 79 57
f 56 74 70
f 56 70 75
f 57 79 58
f 58 79 80
f 58 80 81
f 58 81 98
f 58 98 97
f 58 97 103
f 58 103 114
f 58 114 116
f 58 116 108
f 58 108 106
f 58 106 99
f 58 99 82
f 58 82 59
f 59 82 83
f 59 83 63
f 59 63 62
f 59 62 60
f 63 83 73
f 64 84 65
f 65 84 85
f 65 85 86
f 65 86 87
f 65 87 88
f 65 88 66
f 66 88 67
f 67 88 89
f 67 89 90
f 67 90 68
f 68 91 92
f 68 92 93
f 68 93 70
f 68 90 94
f 68 94 91
f 69 71 95
f 69 95 72
f 70 93 75
f 70 74 71
f 71 74 95
f 72 95 74
f 73 83 96
f 75 93 92
f 75 92 97
f 75 97 98
f 75 98 81
f 75 81 76
f 76 81 77
f 77 81 80
f 77 80 78
f 78 80 79
f 82 99 83
f 83 99 100
f 83 100 96
f 85 101 86
f 86 102 103
f 86 103 97
f 86 97 87
f 86 101 102
f 87 89 88
f 87 97 104
f 87 104 89
f 89 104 90
f 90 104 105
f 90 105 94
f 91 94 105
f 91 105 92
f 92 105 104
f 92 104 97
f 99 106 100
f 100 106 108
f 100 108 107
f 101 109 110
f 101 110 102
f 102 110 103
f 103 110 111
f 103 111 112
f 103 112 113
f 103 113 114
f 107 108 115
f 108 116 115
f 109 117 111
f 109 111 110
f 111 117 112
f 113 118 114
f 114 118 116
f 115 116 118

