# https://github.com/mikedh/trimesh
v 76.27717319 70.37304412 116.46646648
v 76.27717319 70.37304412 97.91778615
v 70.15123758 70.37304412 116.46646648
v 68.55241671 41.53965313 116.46646648
v 72.96141673 58.38217005 96.31162977
v 75.67509267 68.74825863 96.17742591
v 75.84793732 70.37304412 95.48690847
v 68.55241671 41.53965313 97.91778615
v 70.24630292 48.01987365 96.47398270
v 70.15123758 70.37304412 97.91778615
v 70.04464952 69.97537029 113.82129478
v 62.16289262 40.55871750 113.82129478
v 63.13514968 44.18703298 116.46646648
v 67.13076200 36.23730116 116.46646648
v 66.42065556 33.58612912 103.21895306
v 74.13532719 70.37304412 94.47819509
v 67.77029035 39.41871550 96.09733180
v 65.40806703 31.68486173 95.71419468
v 65.66301644 33.58612912 95.51072024
v 63.58022582 31.68486173 94.54962248
v 66.42065556 33.58612912 97.91778615
v 65.91076069 31.68486173 97.91778615
v 70.92760061 70.37304412 95.72285350
v 70.09938340 69.77463728 96.30080624
v 62.19458107 40.44509415 96.41553565
v 70.04464952 69.97537029 97.91778615
v 62.16289262 40.55871750 97.91778615
v 61.71493679 38.88468891 116.46646648
v 66.17146948 33.58612912 116.46646648
v 65.74511725 31.68486173 111.15880150
v 66.38608742 33.58612912 111.16962503
v 65.91076069 31.68486173 103.21895306
v 71.53256082 62.74524513 94.38944215
v 71.53256082 65.39641716 94.38727745
v 71.53256082 68.04758920 94.70764600
v 71.36547951 70.37304412 95.34837521
v 66.23196669 41.53965313 94.51499509
v 63.58022582 33.58612912 94.36779510
v 61.56369575 31.68486173 95.25529286
v 69.86748337 68.04758920 95.88519854
v 67.38571141 59.40476441 96.17093180
v 61.98572647 38.88847319 96.00425735
v 61.56369575 38.31658005 97.91778615
v 61.71637466 38.88847319 97.91778615
v 61.56369575 38.31658005 116.46646648
v 65.23666421 31.99542590 116.46646648
v 65.35477498 31.68486173 113.93168688
v 68.88226178 54.79172902 94.36130098
v 66.23196669 44.19082516 94.35480686
v 63.58022582 36.23730116 94.42191274
v 66.23196669 46.84199720 94.48685391
v 68.88226178 57.44290106 94.57992836
v 69.51315105 65.39641716 95.53886141
v 61.56369575 31.68486173 113.14593029
v 61.56369575 33.58612912 95.31590462
v 67.12356080 57.44290106 95.75315938
v 64.37675854 46.84199720 95.65358292
v 61.63139415 36.23730116 95.57999082
v 61.56369575 36.23730116 95.83324560
v 61.56369575 33.54825467 116.46646648
v 63.84957763 31.99164162 116.46646648
v 64.22695537 31.68486173 115.10275320
v 61.56369575 35.73358045 95.55617906
v 63.58022582 38.88847319 94.82669692
v 61.65443958 31.68486173 113.28662826
v 62.52730978 32.35901747 116.46646648
v 63.61479791 31.68486173 115.10491790
f 1 2 7
f 1 7 16
f 1 16 36
f 1 36 23
f 1 23 10
f 1 10 3
f 1 3 13
f 1 13 28
f 1 28 45
f 1 45 60
f 1 60 66
f 1 66 61
f 1 61 46
f 1 46 29
f 1 29 14
f 1 14 4
f 1 4 8
f 1 8 2
f 2 5 6
f 2 6 7
f 2 8 9
f 2 9 5
f 3 10 26
f 3 26 11
f 3 11 12
f 3 12 13
f 4 14 15
f 4 15 21
f 4 21 8
f 5 7 6
f 5 9 7
f 7 9 17
f 7 17 18
f 7 18 19
f 7 19 20
f 7 20 16
f 8 21 9
f 9 21 22
f 9 22 17
f 10 23 24
f 10 24 25
f 10 25 26
f 11 26 27
f 11 27 12
f 12 27 28
f 12 28 13
f 14 29 30
f 14 30 31
f 14 31 32
f 14 32 15
f 15 32 22
f 15 22 21
f 16 33 34
f 16 34 35
f 16 35 36
f 16 20 37
f 16 37 38
f 16 38 33
f 17 22 18
f 18 22 32
f 18 32 30
f 18 30 47
f 18 47 62
f 18 62 67
f 18 67 65
f 18 65 54
f 18 54 39
f 18 39 20
f 18 20 19
f 20 39 38
f 20 38 37
f 23 36 40
f 23 40 24
f 24 40 41
f 24 41 25
f 25 42 43
f 25 43 44
f 25 44 27
f 25 27 26
f 25 41 42
f 27 44 28
f 28 44 43
f 28 43 45
f 29 46 30
f 30 46 47
f 30 32 31
f 33 48 34
f 33 38 49
f 33 49 48
f 34 48 50
f 34 50 51
f 34 51 52
f 34 52 35
f 35 52 53
f 35 53 36
f 36 53 40
f 38 39 50
f 38 50 49
f 39 54 60
f 39 60 45
f 39 45 43
f 39 43 59
f 39 59 63
f 39 63 55
f 39 55 50
f 40 53 56
f 40 56 42
f 40 42 41
f 42 57 58
f 42 58 59
f 42 59 43
f 42 56 57
f 46 61 62
f 46 62 47
f 48 49 50
f 50 55 63
f 50 63 58
f 50 58 64
f 50 64 51
f 51 64 58
f 51 58 52
f 52 58 53
f 53 58 57
f 53 57 56
f 54 65 66
f 54 66 60
f 58 63 59
f 61 65 67
f 61 67 62
f 61 66 65

