# https://github.com/mikedh/trimesh
v 103.13922431 181.88124906 94.21815388
v 101.22013364 181.88124906 95.09570506
v 103.34483975 184.68891589 94.42598934
v 105.99387079 195.29161313 94.49527572
v 108.64518503 202.57412970 94.38365117
v 108.64518503 200.59295780 94.43753970
v 105.99387079 189.99229096 94.51066568
v 105.41243398 181.88124906 95.48059607
v 101.40175562 184.68891589 95.58451774
v 104.14789029 195.29161313 95.66149911
v 106.44736874 202.57412970 95.48444355
v 100.07438806 181.88124906 97.72067152
v 110.83500612 202.57412970 95.49214643
v 110.56998767 200.59295780 95.59991560
v 107.82386090 189.99229096 95.67689696
v 107.53714009 187.85311134 96.09257577
v 106.15493595 181.88124906 97.91697241
v 101.75702017 187.34060145 96.01944979
v 104.44032308 197.47535488 96.07333043
v 105.57692791 202.57412970 97.91697241
v 100.03212100 181.88124906 97.91697241
v 101.96263562 188.87813507 96.42743363
v 111.70088053 202.57412970 97.91697241
v 110.21473101 197.94329869 96.05409299
v 110.01482755 196.45235760 96.46207682
v 109.68241091 195.04244681 97.91697241
v 106.90772424 184.68891589 100.56887918
v 106.17892943 181.97038121 133.53493838
v 106.15493595 181.88124906 133.53493838
v 104.32494584 197.90480801 97.91697241
v 105.57692791 202.57412970 124.42452925
v 100.07324251 182.03925283 97.91697241
v 100.03212100 181.88124906 133.53493838
v 101.93407573 188.98347487 97.91697241
v 111.70088053 202.57412970 124.42452925
v 106.90772424 184.68891589 133.53493838
v 100.38395679 183.20000124 133.53493838
v 104.32494584 197.90480801 124.42452925
v 101.93407573 188.98347487 133.53493838
v 102.28934028 190.30830245 133.53493838
v 102.91532737 192.63992362 133.53493838
v 103.37682052 193.60620008 133.53493838
v 103.96968918 194.84392591 133.53493838
v 106.22233415 202.57412970 126.75313248
v 100.07324251 182.03925283 133.53493838
v 111.20054908 202.57412970 127.10338424
v 108.78912216 192.63992362 133.53493838
v 108.58807314 191.48120561 133.53493838
v 108.32762111 189.99229096 133.53493838
v 107.64680535 187.44796770 133.53493838
v 107.29154079 186.12110972 133.53493838
v 105.99387079 195.51241707 133.53493838
v 108.74570954 202.57412970 128.90083266
v 108.36532175 202.57412970 128.74302640
v 106.44165676 202.57412970 127.24964409
v 110.28326686 202.57412970 128.70838716
v 108.10829850 194.63324632 133.53493838
v 107.18302109 195.01813732 133.53493838
f 1 2 3
f 1 3 4
f 1 4 5
f 1 5 6
f 1 6 7
f 1 7 8
f 1 8 17
f 1 17 29
f 1 29 33
f 1 33 21
f 1 21 12
f 1 12 2
f 2 9 10
f 2 10 11
f 2 11 4
f 2 4 3
f 2 12 9
f 4 11 5
f 5 11 20
f 5 20 31
f 5 31 44
f 5 44 55
f 5 55 54
f 5 54 53
f 5 53 56
f 5 56 46
f 5 46 35
f 5 35 23
f 5 23 13
f 5 13 6
f 6 13 14
f 6 14 7
f 7 14 8
f 8 14 15
f 8 15 16
f 8 16 17
f 9 12 18
f 9 18 10
f 10 18 19
f 10 19 11
f 11 19 20
f 12 21 22
f 12 22 18
f 13 23 14
f 14 24 15
f 14 23 24
f 15 24 16
f 16 24 25
f 16 25 17
f 17 25 26
f 17 26 27
f 17 27 28
f 17 28 29
f 18 22 19
f 19 22 20
f 20 22 30
f 20 30 38
f 20 38 31
f 21 32 22
f 21 33 45
f 21 45 32
f 22 32 34
f 22 34 30
f 23 27 26
f 23 26 25
f 23 25 24
f 23 35 36
f 23 36 27
f 27 36 28
f 28 36 51
f 28 51 50
f 28 50 49
f 28 49 48
f 28 48 47
f 28 47 57
f 28 57 58
f 28 58 52
f 28 52 43
f 28 43 42
f 28 42 41
f 28 41 40
f 28 40 39
f 28 39 37
f 28 37 45
f 28 45 33
f 28 33 29
f 30 34 37
f 30 37 38
f 31 38 39
f 31 39 40
f 31 40 41
f 31 41 42
f 31 42 43
f 31 43 44
f 32 45 37
f 32 37 34
f 35 46 47
f 35 47 48
f 35 48 49
f 35 49 50
f 35 50 51
f 35 51 36
f 37 39 38
f 43 52 53
f 43 53 54
f 43 54 55
f 43 55 44
f 46 56 47
f 47 56 57
f 52 58 56
f 52 56 53
f 56 58 57

