# https://github.com/mikedh/trimesh
v -3.55863705 82.83207136 220.13836149
v -13.72296558 85.55576104 220.13836149
v -3.55863705 91.85723137 220.13836149
v -3.55863705 84.29143066 222.53208365
v -4.11015905 85.25649047 223.87395631
v -14.47558400 87.97009135 223.77341205
v -23.89724859 89.82287013 222.67129635
v -23.89724859 88.28281233 220.13836149
v -23.89724859 107.21749169 220.13836149
v -23.89724859 117.18417429 230.52146750
v -3.55863705 117.18417429 248.71607228
v -3.55863705 85.18251520 223.98610229
v -12.70951986 87.73471120 224.14078395
v -23.07494086 90.44831209 224.04410692
v -23.89724859 91.29231822 224.97607596
v -23.89724859 117.18417429 255.67295469
v -3.55863705 117.18417429 259.64057595
v -3.55863705 86.05005659 225.28543927
v -10.64678833 87.45897983 224.55456271
v -21.24914585 91.08720050 225.73789043
v -23.89724859 92.76848955 227.17644407
v -23.89724859 115.76852782 254.36201204
v -22.94353374 116.98914536 255.73482262
v -23.03910471 117.18417429 255.88950428
v -7.11466005 117.18417429 259.20358980
v -3.70199351 114.57481307 258.21748732
v -3.55863705 114.72949275 258.31803553
v -3.55863705 87.39172779 227.28859005
v -5.34461411 87.63046956 226.93281591
v -13.29887088 90.02126462 227.31952401
v -21.94800610 93.40065474 228.88955982
v -23.89724859 93.66293570 228.50285173
v -23.89724859 115.66429013 254.26533502
v -21.24914585 115.43563320 254.71778223
v -18.59706330 115.08256298 255.05034897
v -15.94697164 114.72612916 255.37905243
v -15.94697164 116.05098637 256.60105254
v -21.24914585 117.18417429 256.33035372
v -10.00367715 117.18417429 258.81688171
v -10.64678833 116.78739123 258.51138958
v -12.30135234 116.99923218 258.36444240
v -3.55863705 114.27890609 257.98933207
v -3.55863705 87.99363055 228.18188274
v -11.58258312 90.68705385 228.98623684
v -9.81651898 90.44831209 229.33040531
v -20.18194196 93.16527458 229.23759552
v -23.89724859 95.08530935 230.54080370
v -23.17250273 114.27554447 253.14774641
v -21.24914585 114.01998674 253.39524181
v -23.89724859 113.27013345 251.94122316
v -10.64678833 112.69176989 254.81059596
v -7.99669667 112.33533608 255.13929152
v -7.99669667 113.66019131 256.36129163
v -3.55863705 113.10872856 256.94908825
v -13.32276362 115.75507741 256.97615497
v -18.59706330 117.18417429 256.96842049
v -12.08831053 117.18417429 258.48818615
v -12.43276341 117.18417429 258.42631032
v -14.00370382 117.18417429 258.05893447
v -3.55863705 88.28617394 228.61499770
v -18.59706330 92.95343363 229.54309555
v -7.99669667 90.20620476 229.67844496
v -15.94697164 92.59699982 230.04194963
v -15.94697164 93.54188204 231.36835728
v -22.89973005 95.79817303 231.90587980
v -23.89724859 96.82376164 232.93065862
v -14.57314587 111.80068535 252.98146699
v -4.20772092 109.08372285 253.04333491
v -12.80907262 111.56194359 253.20962224
v -23.89724859 113.05492693 251.72466568
v -10.64678833 111.27612342 253.48418435
v -3.55863705 109.85375373 253.92889708
v -3.55863705 110.51281973 254.54376042
v -3.55863705 111.30974944 255.28624660
v -3.97875193 111.79732374 255.63428231
v -3.55863705 112.30843526 256.21047326
v -3.55863705 89.65474201 230.56787437
v -5.34461411 89.84977094 230.17343180
v -5.34461411 90.79465711 231.49983946
v -14.29838032 93.31995229 231.67385731
v -3.55863705 90.84845874 232.22298154
v -6.54521800 93.26615066 234.39627898
v -23.89724859 98.24276972 234.83326118
v -3.55863705 108.99965880 253.12841417
v -3.55863705 106.90477269 251.01698861
v -3.55863705 107.67480159 251.79426808
v -23.89724859 110.46910492 249.09891709
v -23.13467568 111.63591885 250.49493110
v -14.53531487 109.15769812 250.32091720
v -3.55863705 90.22974396 231.37609176
v -3.93494824 90.60635141 231.75893262
v -3.55863705 92.86600401 234.92993820
v -3.55863705 93.45781798 235.70722163
v -13.29887088 96.50767904 236.28341653
v -21.24914585 98.89847016 236.62371776
v -23.89724859 99.25490397 236.15580160
v -10.64678833 107.31164257 249.50495743
v -3.55863705 106.36339676 250.46786438
v -23.89724859 110.30433842 248.92876648
v -23.06498637 109.00302041 247.83051012
v -21.24914585 110.05887145 249.40828041
v -3.55863705 93.82434059 236.18287227
v -10.64678833 96.15460684 236.74746545
v -9.09376600 95.94612751 237.01429309
v -19.45919095 98.65972839 236.93308502
v -23.89724859 100.57639759 237.83411220
v -12.69956340 106.28941952 247.89625713
v -3.55863705 103.74058514 247.79184563
v -3.55863705 105.04190315 249.12212052
v -23.89724859 107.99088418 246.46543402
v -23.78574649 107.83956809 246.33395580
v -14.46562754 106.52816326 247.64489450
v -4.10020456 103.81119879 247.71450085
v -7.32770186 95.71074736 237.30819140
v -3.55863705 95.20299745 237.92305869
v -17.69312483 98.42434824 237.23085057
v -8.12412397 96.71951999 238.28269611
v -3.55863705 96.28911091 239.24946635
v -20.05451268 101.14803792 239.78698886
v -21.82058077 101.38341807 239.49695779
v -23.89724859 101.66251106 239.15665657
v -3.55863705 102.39555232 246.30301788
v -23.89724859 107.80594207 246.26047826
v -7.99669667 103.13868436 245.81189829
v -5.12957943 102.98064306 246.48863745
v -23.89724859 105.82538443 244.06011015
v -22.40992982 103.87845083 242.33925992
v -12.04251595 101.16484994 242.41273746
v -15.94697164 104.20462221 244.62857057
v -3.77168084 101.24891400 244.96887575
v -3.55863705 97.72493102 240.99351606
v -23.89724859 102.98736826 240.76922806
v -3.55863705 101.92143041 245.77709709
v -23.89724859 104.08020496 242.09563571
v -3.55863705 98.63955476 242.10337019
v -3.55863705 98.71016841 242.18457826
v -3.55863705 99.98794919 243.62313190
v -3.55863705 100.96309383 244.71364983
v -3.55863705 101.44394293 245.24730510
f 1 2 8
f 1 8 9
f 1 9 3
f 1 3 11
f 1 11 17
f 1 17 27
f 1 27 42
f 1 42 54
f 1 54 76
f 1 76 74
f 1 74 73
f 1 73 72
f 1 72 84
f 1 84 86
f 1 86 85
f 1 85 98
f 1 98 109
f 1 109 108
f 1 108 122
f 1 122 133
f 1 133 139
f 1 139 138
f 1 138 137
f 1 137 136
f 1 136 135
f 1 135 131
f 1 131 118
f 1 118 115
f 1 115 102
f 1 102 93
f 1 93 92
f 1 92 81
f 1 81 90
f 1 90 77
f 1 77 60
f 1 60 43
f 1 43 28
f 1 28 18
f 1 18 12
f 1 12 4
f 1 4 5
f 1 5 6
f 1 6 7
f 1 7 2
f 2 7 8
f 3 9 10
f 3 10 11
f 4 12 5
f 5 12 13
f 5 13 14
f 5 14 6
f 6 14 7
f 7 14 15
f 7 15 21
f 7 21 32
f 7 32 47
f 7 47 66
f 7 66 83
f 7 83 96
f 7 96 106
f 7 106 121
f 7 121 132
f 7 132 134
f 7 134 126
f 7 126 123
f 7 123 110
f 7 110 99
f 7 99 87
f 7 87 70
f 7 70 50
f 7 50 33
f 7 33 22
f 7 22 16
f 7 16 10
f 7 10 9
f 7 9 8
f 10 16 24
f 10 24 38
f 10 38 56
f 10 56 59
f 10 59 58
f 10 58 57
f 10 57 39
f 10 39 25
f 10 25 17
f 10 17 11
f 12 18 13
f 13 19 20
f 13 20 14
f 13 18 19
f 14 20 15
f 15 20 21
f 16 22 23
f 16 23 24
f 17 25 26
f 17 26 27
f 18 20 19
f 18 28 29
f 18 29 20
f 20 29 30
f 20 30 31
f 20 31 32
f 20 32 21
f 22 33 23
f 23 33 34
f 23 34 35
f 23 35 36
f 23 36 37
f 23 37 24
f 24 37 38
f 25 39 26
f 26 39 40
f 26 40 41
f 26 41 42
f 26 42 27
f 28 43 30
f 28 30 29
f 30 43 44
f 30 44 31
f 31 44 45
f 31 45 46
f 31 46 47
f 31 47 32
f 33 48 49
f 33 49 34
f 33 50 48
f 34 49 51
f 34 51 35
f 35 51 52
f 35 52 36
f 36 52 53
f 36 53 37
f 37 53 54
f 37 54 55
f 37 55 41
f 37 41 38
f 38 41 56
f 39 57 41
f 39 41 40
f 41 57 58
f 41 58 59
f 41 59 56
f 41 55 54
f 41 54 42
f 43 60 44
f 44 60 45
f 45 61 46
f 45 60 62
f 45 62 61
f 46 61 47
f 47 61 63
f 47 63 64
f 47 64 65
f 47 65 66
f 48 67 68
f 48 68 69
f 48 69 49
f 48 50 67
f 49 69 51
f 50 70 67
f 51 69 71
f 51 71 72
f 51 72 52
f 52 72 73
f 52 73 74
f 52 74 75
f 52 75 76
f 52 76 54
f 52 54 53
f 60 77 78
f 60 78 62
f 61 62 63
f 62 78 79
f 62 79 64
f 62 64 63
f 64 79 80
f 64 80 65
f 65 80 66
f 66 80 81
f 66 81 82
f 66 82 83
f 67 70 68
f 68 84 69
f 68 70 85
f 68 85 86
f 68 86 84
f 69 84 71
f 70 87 88
f 70 88 89
f 70 89 85
f 71 84 72
f 74 76 75
f 77 90 78
f 78 90 79
f 79 90 91
f 79 91 80
f 80 91 81
f 81 91 90
f 81 92 82
f 82 92 83
f 83 92 93
f 83 93 94
f 83 94 95
f 83 95 96
f 85 89 97
f 85 97 98
f 87 99 100
f 87 100 101
f 87 101 88
f 88 101 89
f 89 101 97
f 93 102 103
f 93 103 94
f 94 103 95
f 95 103 104
f 95 104 105
f 95 105 106
f 95 106 96
f 97 101 100
f 97 100 107
f 97 107 108
f 97 108 109
f 97 109 98
f 99 110 100
f 100 110 111
f 100 111 112
f 100 112 113
f 100 113 107
f 102 114 104
f 102 104 103
f 102 115 114
f 104 114 116
f 104 116 105
f 105 116 106
f 106 115 117
f 106 117 118
f 106 118 119
f 106 119 120
f 106 120 121
f 106 116 114
f 106 114 115
f 107 113 108
f 108 113 122
f 110 123 111
f 111 124 125
f 111 125 113
f 111 113 112
f 111 123 126
f 111 126 127
f 111 127 128
f 111 128 129
f 111 129 124
f 113 125 130
f 113 130 122
f 115 118 117
f 118 131 127
f 118 127 119
f 119 127 120
f 120 127 132
f 120 132 121
f 122 130 133
f 124 129 128
f 124 128 130
f 124 130 125
f 126 134 127
f 127 134 132
f 127 131 135
f 127 135 128
f 128 135 136
f 128 136 137
f 128 137 138
f 128 138 130
f 130 138 139
f 130 139 133

