# https://github.com/mikedh/trimesh
v -42.95319295 75.76475735 164.19013863
v -49.85104763 81.62354536 161.54190752
v -42.95319295 76.00279203 162.92104038
v -42.95319295 75.95787834 166.79435374
v -49.82742547 81.80543990 164.19013863
v -50.24189553 83.95448315 164.19013863
v -50.26551768 83.95448315 161.54190752
v -49.59692381 81.89301568 159.67494162
v -46.93542202 79.84053489 160.01238884
v -42.95319295 76.46313963 161.54190752
v -42.95319295 75.96461737 166.84203652
v -49.71646850 82.01203499 166.84203652
v -50.13094250 83.95448315 166.84203652
v -49.11730718 88.05945262 186.97519358
v -49.13878438 88.13580590 185.39432436
v -49.55683725 86.60654793 172.14583426
v -49.55683725 86.60654793 161.54190752
v -49.12303496 88.07292672 160.09308338
v -49.32060781 86.60654793 159.77030718
v -49.67566696 83.95448315 159.45853425
v -49.14307824 88.14927606 182.74242549
v -47.75864224 83.95448315 158.47553465
v -47.79514993 81.12726681 159.41085147
v -42.95319295 78.80755547 159.44753099
v -42.95319295 76.00279203 167.05477515
v -49.48811575 82.27701789 169.49393539
v -49.30557338 85.01441079 180.09419462
v -49.46234469 84.72697499 177.44229600
v -49.11730718 87.86408397 186.97519358
v -48.13660461 91.90617822 190.69812112
v -49.14236325 88.14703235 161.54190752
v -48.13660461 91.90617822 188.04622323
v -47.42505635 94.55599138 185.39432436
v -46.94615865 90.94954813 158.89000865
v -46.50520255 90.62169001 157.53288231
v -48.71357375 89.47193893 161.54190752
v -46.50520255 90.26014859 157.53288231
v -45.10859206 86.60654793 157.84832300
v -45.10859206 83.95448315 158.20410898
v -42.95319295 81.79870087 158.47186689
v -42.95319295 81.30466998 158.58557122
v -45.10859206 81.30466998 158.82031737
v -42.95319295 79.12193948 159.28614190
v -49.26047797 82.48810435 171.45993558
v -42.95319295 84.31602851 187.45202137
v -46.57463905 87.86633163 192.18729253
v -49.14880602 85.21202314 181.64205232
v -47.07787388 87.59012229 190.69812112
v -47.17379642 89.28106165 193.18129638
v -46.83949949 90.18379926 194.88320741
v -48.10725468 89.25411739 190.69812112
v -47.35848374 91.98701892 193.50774033
v -46.63906274 96.38840692 192.28999458
v -47.42076249 94.55599138 190.69812112
v -47.42505635 94.55599138 188.04622323
v -48.13016185 91.90617822 174.79406538
v -48.76869475 89.47193893 164.19013863
v -46.74644084 96.82405790 190.69812112
v -46.75144968 96.80160105 188.04622323
v -47.39928924 94.55599138 182.74242549
v -47.38854866 91.36498597 161.54190752
v -46.52882471 93.28498123 167.89105866
v -45.10859206 91.79838930 161.54190752
v -46.19309385 90.62169001 157.53288231
v -45.22885569 91.00568827 158.76896683
v -46.72567862 96.25367373 182.74242549
v -46.61114673 96.06728783 180.60403394
v -46.19309385 90.26014859 157.53288231
v -42.95319295 86.77272070 157.74928771
v -42.95319295 83.95448315 158.12708417
v -42.95319295 87.11180922 193.44905429
v -42.95319295 87.36107034 193.85252305
v -43.66545620 88.13580590 194.56776672
v -45.10859206 88.45018991 194.05425941
v -42.95319295 89.19348587 195.00424725
v -46.83949949 91.15839088 194.88320741
v -44.93607529 97.24623083 192.41837092
v -43.93747439 98.57338507 192.05524844
v -45.76072548 98.14896449 190.69812112
v -44.49797913 98.70587455 188.91551752
v -42.96392958 90.79684946 159.57224056
v -43.14002523 98.70587455 188.91551752
v -42.95319295 87.31166528 157.72728119
v -42.95319295 90.79460180 159.57590831
v -42.95319295 90.77439262 159.55756756
v -42.95319295 89.69200813 158.62591849
v -42.95319295 89.28106165 158.37650133
v -45.27252112 98.11078982 188.03888674
v -42.95319295 88.82296172 194.87953966
v -45.10859206 91.27516253 194.92722243
v -42.95319295 91.04386293 194.86119891
v -45.10859206 92.60006912 194.39537437
v -44.43498540 98.69240044 190.69812112
v -43.57311254 98.57338507 192.05524844
v -43.14360411 98.69240044 190.69812112
v -42.95319295 98.63626029 190.69812112
v -42.95319295 98.64749069 189.16860342
v -42.95319295 98.57787249 188.71011439
v -42.95319295 97.77844033 192.28632683
f 1 2 3
f 1 3 10
f 1 10 24
f 1 24 43
f 1 43 41
f 1 41 40
f 1 40 70
f 1 70 69
f 1 69 83
f 1 83 87
f 1 87 86
f 1 86 85
f 1 85 84
f 1 84 98
f 1 98 97
f 1 97 96
f 1 96 99
f 1 99 91
f 1 91 75
f 1 75 89
f 1 89 72
f 1 72 71
f 1 71 45
f 1 45 25
f 1 25 11
f 1 11 4
f 1 4 2
f 2 4 5
f 2 5 6
f 2 6 7
f 2 7 8
f 2 8 3
f 3 8 9
f 3 9 10
f 4 11 12
f 4 12 5
f 5 12 13
f 5 13 6
f 6 13 14
f 6 14 15
f 6 15 7
f 7 16 17
f 7 17 18
f 7 18 19
f 7 19 20
f 7 20 8
f 7 15 21
f 7 21 16
f 8 20 22
f 8 22 23
f 8 23 9
f 9 23 24
f 9 24 10
f 11 25 26
f 11 26 12
f 12 26 27
f 12 27 28
f 12 28 13
f 13 28 27
f 13 27 29
f 13 29 14
f 14 29 30
f 14 30 15
f 15 30 21
f 16 21 30
f 16 30 32
f 16 32 17
f 17 31 18
f 17 32 33
f 17 33 31
f 18 34 35
f 18 35 19
f 18 31 36
f 18 36 34
f 19 35 20
f 20 35 37
f 20 37 22
f 22 37 38
f 22 38 39
f 22 39 40
f 22 40 41
f 22 41 42
f 22 42 23
f 23 42 43
f 23 43 24
f 25 44 26
f 25 45 46
f 25 46 47
f 25 47 44
f 26 44 47
f 26 47 27
f 27 47 29
f 29 47 48
f 29 48 46
f 29 46 49
f 29 49 50
f 29 50 51
f 29 51 30
f 30 51 52
f 30 52 53
f 30 53 54
f 30 54 55
f 30 55 33
f 30 33 32
f 31 56 57
f 31 57 36
f 31 33 56
f 33 55 58
f 33 58 59
f 33 59 60
f 33 60 56
f 34 36 61
f 34 61 62
f 34 62 63
f 34 63 35
f 35 64 68
f 35 68 37
f 35 63 65
f 35 65 64
f 36 57 59
f 36 59 66
f 36 66 67
f 36 67 61
f 37 68 69
f 37 69 38
f 38 69 70
f 38 70 39
f 39 70 40
f 41 43 42
f 45 71 46
f 46 71 72
f 46 72 73
f 46 73 74
f 46 74 50
f 46 50 49
f 46 48 47
f 50 75 76
f 50 76 52
f 50 52 51
f 50 74 73
f 50 73 75
f 52 76 53
f 53 76 77
f 53 77 78
f 53 78 79
f 53 79 58
f 53 58 54
f 54 58 55
f 56 60 57
f 57 60 59
f 58 79 59
f 59 79 66
f 61 67 62
f 62 67 80
f 62 80 63
f 63 81 65
f 63 80 82
f 63 82 81
f 64 83 68
f 64 65 81
f 64 81 84
f 64 84 85
f 64 85 86
f 64 86 87
f 64 87 83
f 66 79 67
f 67 79 88
f 67 88 80
f 68 83 69
f 72 89 73
f 73 89 75
f 75 90 76
f 75 91 90
f 76 90 92
f 76 92 78
f 76 78 77
f 78 93 79
f 78 92 90
f 78 90 94
f 78 94 95
f 78 95 93
f 79 93 80
f 79 80 88
f 80 93 95
f 80 95 82
f 81 82 84
f 82 95 96
f 82 96 97
f 82 97 98
f 82 98 84
f 90 91 94
f 91 99 94
f 94 99 96
f 94 96 95

