# https://github.com/mikedh/trimesh
v 26.46599586 54.80269476 161.54044792
v 28.05432897 55.60101296 161.54044792
v 28.09116649 55.61473593 164.19271811
v 26.46599586 54.83929724 164.19271811
v 23.81588446 54.83014860 161.54044792
v 23.81588446 55.53924774 159.83829988
v 26.46599586 55.52552477 159.89332607
v 27.94165070 55.80001578 160.05473688
v 32.87566791 60.25821941 161.54044792
v 32.87566791 58.65701658 186.29496442
v 32.87566791 58.65701658 187.10935398
v 27.94815173 55.96471513 172.14585697
v 27.83547248 56.08365544 173.67192121
v 26.46599586 55.15495717 166.84131857
v 23.81588446 54.92621729 164.19271811
v 21.16577305 55.44317905 161.54044792
v 19.31091203 55.98986996 160.08775259
v 21.16577305 55.79544146 159.94101477
v 21.16577305 57.44467864 159.43477186
v 23.81588446 57.44467864 159.28436629
v 26.46599586 57.44467864 159.30270901
v 32.87566791 62.74695161 158.42228802
v 32.87566791 61.85484792 158.88450998
v 32.87566791 60.76603252 159.47512506
v 32.87566791 60.51212992 160.38856177
v 32.87566791 58.68447042 187.20106463
v 27.38692608 58.66845634 184.40205810
v 27.52127314 56.08365544 173.67192121
v 26.46599586 55.50493637 169.49358777
v 26.57000642 55.93040376 172.17520493
v 23.81588446 55.37226518 166.84131857
v 20.43119614 56.27809184 166.84131857
v 20.97075251 55.71309574 164.34312171
v 15.86338355 57.05582164 164.19271811
v 19.40192151 56.00360083 163.56174786
v 19.11372481 55.93497808 161.54044792
v 10.73867966 58.46029696 160.09508810
v 10.73867966 58.50147378 159.98136797
v 10.73867966 58.21783412 161.54044792
v 10.73867966 59.97457975 159.52281377
v 10.73867966 60.09581118 159.48613030
v 13.21327214 60.09581118 159.31371425
v 15.86338355 60.09581118 159.21466711
v 23.81588446 60.09581118 158.92853093
v 26.46599586 60.09581118 158.86249950
v 10.73867966 62.40382994 159.69522982
v 32.87566791 65.39808414 158.73777216
v 32.87566791 59.85334833 190.63470867
v 27.36092295 61.30586590 192.33318797
v 26.46599586 60.06836523 188.04480215
v 26.48983133 59.19685785 185.33016878
v 23.81588446 59.92654541 185.39620070
v 25.62090737 58.89719621 183.63535773
v 26.48983133 58.43056781 182.74759926
v 26.46599586 57.76949511 180.09166131
v 26.57000642 56.45651416 174.65139033
v 25.75525442 56.20489477 173.07763640
v 24.73898136 56.01274948 171.31312567
v 23.83971992 55.84576692 169.39087189
v 22.27738995 56.06307494 168.44075073
v 11.91313623 58.77825590 168.12893434
v 15.86338355 57.50186954 166.84131857
v 10.73867966 58.41912805 164.12301695
v 10.73867966 58.94523846 167.25584985
v 10.73867966 58.88347324 166.88900728
v 10.73867966 58.51977107 164.72830700
v 10.73867966 58.22698277 161.71653173
v 10.73867966 62.57081250 159.71724029
v 10.73867966 63.80831317 160.27484163
v 10.73867966 63.89524111 160.31886259
v 32.87566791 67.19828980 159.78694145
v 32.87566791 61.91432203 195.89889486
v 26.46599586 62.88190600 195.89889486
v 23.48001633 63.67793310 195.89889486
v 22.24705345 64.00732389 195.89889486
v 23.81588446 62.63486093 193.34934154
v 11.39308147 66.58983367 195.02947911
v 13.21327214 65.47585554 193.34934154
v 16.99450206 64.02104686 192.16077192
v 25.59273756 61.54376232 191.68387697
v 26.47249591 60.98104943 190.75943502
v 23.64903423 60.87811530 188.22822344
v 24.42261435 61.22809450 189.91569750
v 22.65442945 61.46598302 189.23337079
v 21.16577305 60.63564455 185.39620070
v 17.01183748 61.37448865 184.21863681
v 15.24365209 61.61009396 183.41158374
v 23.79421567 59.12822720 182.74759926
v 24.66313963 58.64329361 181.86717777
v 23.81588446 57.67570963 177.44305987
v 23.81588446 57.02608459 174.79445842
v 23.83971992 56.44050008 172.17520493
v 14.37472715 58.72563933 171.01965102
v 22.97296265 56.24835479 170.20526146
v 10.73867966 59.37756338 169.49358777
v 10.73867966 65.06182791 161.55512091
v 10.73867966 65.14189042 161.64316282
v 32.87566791 68.53872459 161.49275724
v 32.87566791 78.16881321 195.89889486
v 11.99981136 66.75224191 195.89889486
v 10.73867966 67.02673292 195.72281106
v 10.73867966 66.31762587 193.82623649
v 10.73867966 66.17352283 193.43738344
v 15.22848384 64.25665217 191.50412442
v 14.05619395 63.94327546 189.73961271
v 12.29017524 64.18117188 189.03527552
v 10.73867966 64.34814654 188.26123915
v 15.86338355 62.90477762 188.04480215
v 21.16577305 61.66499374 188.60973900
v 10.73867966 63.56813353 185.82907470
v 10.73867966 63.47206484 185.52826356
v 10.73867966 62.62342907 182.73659402
v 14.29888591 61.35619136 181.64707252
v 22.89495423 58.87889892 181.01243526
v 23.79421567 58.39853965 180.11367179
v 15.86338355 59.80531398 177.44305987
v 19.36075013 58.64329361 176.59932284
v 17.59256474 58.87889892 175.63819594
v 21.16577305 57.73518374 174.79445842
v 16.86015501 58.68217931 173.87001648
v 10.73867966 59.94255949 172.13485173
v 10.73867966 66.37709998 163.36365358
v 10.73867966 66.46631114 163.49204868
v 32.87566791 69.30273142 162.69233210
v 32.87566791 69.43997298 163.05917468
v 10.73867966 75.77387440 195.89889486
v 10.73867966 67.09307246 195.89889486
v 10.73867966 65.17162748 190.69340261
v 10.73867966 61.86399657 179.99628218
v 12.53070052 61.59407988 180.77765627
v 10.73867966 61.14803199 177.32567050
v 10.73867966 60.53042721 174.79445842
v 10.73867966 59.98372840 172.32194176
v 10.73867966 66.93294743 164.73197476
v 10.73867966 66.96497560 164.82001666
f 1 2 3
f 1 3 4
f 1 4 5
f 1 5 6
f 1 6 7
f 1 7 8
f 1 8 2
f 2 8 9
f 2 9 10
f 2 10 3
f 3 10 11
f 3 11 4
f 4 12 13
f 4 13 14
f 4 14 15
f 4 15 5
f 4 11 12
f 5 15 16
f 5 16 17
f 5 17 18
f 5 18 6
f 6 18 19
f 6 19 20
f 6 20 21
f 6 21 7
f 7 21 22
f 7 22 8
f 8 22 23
f 8 23 24
f 8 24 25
f 8 25 9
f 9 25 24
f 9 24 23
f 9 23 22
f 9 22 47
f 9 47 71
f 9 71 98
f 9 98 124
f 9 124 125
f 9 125 99
f 9 99 72
f 9 72 48
f 9 48 26
f 9 26 11
f 9 11 10
f 11 26 27
f 11 27 28
f 11 28 13
f 11 13 12
f 13 28 29
f 13 29 14
f 14 29 15
f 15 29 30
f 15 30 31
f 15 31 32
f 15 32 33
f 15 33 34
f 15 34 35
f 15 35 36
f 15 36 16
f 16 36 17
f 17 37 38
f 17 38 18
f 17 36 39
f 17 39 37
f 18 38 40
f 18 40 19
f 19 40 41
f 19 41 42
f 19 42 20
f 20 42 43
f 20 43 44
f 20 44 45
f 20 45 22
f 20 22 21
f 22 45 44
f 22 44 43
f 22 43 42
f 22 42 46
f 22 46 47
f 26 48 49
f 26 49 27
f 27 49 50
f 27 50 51
f 27 51 52
f 27 52 53
f 27 53 54
f 27 54 55
f 27 55 28
f 28 56 57
f 28 57 30
f 28 30 29
f 28 55 56
f 30 58 31
f 30 57 58
f 31 58 59
f 31 59 60
f 31 60 61
f 31 61 32
f 32 61 62
f 32 62 34
f 32 34 33
f 34 63 35
f 34 62 64
f 34 64 65
f 34 65 66
f 34 66 63
f 35 63 67
f 35 67 36
f 36 67 39
f 37 39 67
f 37 67 63
f 37 63 66
f 37 66 65
f 37 65 64
f 37 64 95
f 37 95 121
f 37 121 133
f 37 133 132
f 37 132 131
f 37 131 129
f 37 129 112
f 37 112 111
f 37 111 110
f 37 110 107
f 37 107 128
f 37 128 103
f 37 103 102
f 37 102 101
f 37 101 127
f 37 127 126
f 37 126 135
f 37 135 134
f 37 134 123
f 37 123 122
f 37 122 97
f 37 97 96
f 37 96 70
f 37 70 69
f 37 69 68
f 37 68 46
f 37 46 41
f 37 41 40
f 37 40 38
f 41 46 42
f 46 68 47
f 47 68 69
f 47 69 70
f 47 70 71
f 48 72 49
f 49 72 73
f 49 73 74
f 49 74 75
f 49 75 76
f 49 76 77
f 49 77 78
f 49 78 79
f 49 79 80
f 49 80 81
f 49 81 50
f 50 82 52
f 50 52 51
f 50 81 83
f 50 83 84
f 50 84 82
f 52 85 86
f 52 86 53
f 52 82 84
f 52 84 85
f 53 87 88
f 53 88 89
f 53 89 54
f 53 86 87
f 54 89 90
f 54 90 55
f 55 90 91
f 55 91 57
f 55 57 56
f 57 91 58
f 58 91 92
f 58 92 93
f 58 93 94
f 58 94 59
f 59 94 60
f 60 94 95
f 60 95 61
f 61 95 64
f 61 64 62
f 70 96 71
f 71 96 97
f 71 97 98
f 72 99 126
f 72 126 127
f 72 127 100
f 72 100 75
f 72 75 74
f 72 74 73
f 75 100 77
f 75 77 76
f 77 100 101
f 77 101 102
f 77 102 78
f 78 102 103
f 78 103 79
f 79 103 104
f 79 104 80
f 80 104 83
f 80 83 81
f 83 104 105
f 83 105 84
f 84 105 106
f 84 106 107
f 84 107 108
f 84 108 109
f 84 109 85
f 85 110 111
f 85 111 86
f 85 109 110
f 86 111 112
f 86 112 87
f 87 112 113
f 87 113 88
f 88 113 89
f 89 113 114
f 89 114 115
f 89 115 90
f 90 116 117
f 90 117 91
f 90 115 114
f 90 114 116
f 91 117 118
f 91 118 119
f 91 119 120
f 91 120 92
f 92 121 93
f 92 120 121
f 93 121 95
f 93 95 94
f 97 122 98
f 98 122 123
f 98 123 124
f 99 125 126
f 100 127 101
f 103 128 104
f 104 128 105
f 105 128 106
f 106 128 107
f 107 110 108
f 108 110 109
f 112 129 130
f 112 130 113
f 113 130 114
f 114 130 129
f 114 129 116
f 116 131 117
f 116 129 131
f 117 131 118
f 118 132 120
f 118 120 119
f 118 131 132
f 120 132 133
f 120 133 121
f 123 134 124
f 124 134 125
f 125 134 135
f 125 135 126

