# https://github.com/mikedh/trimesh
v 45.02337057 55.34018962 161.54077974
v 42.43339887 55.92315120 161.27636962
v 41.04753686 56.12015523 160.21635508
v 41.04753686 56.12015523 160.21397311
v 42.37223211 55.94325768 159.97338661
v 45.02337057 55.63167436 159.62798568
v 46.76050349 55.70604859 159.75423582
v 46.91779030 55.58744800 161.54077974
v 46.77972711 55.77640943 164.18962708
v 46.53156611 55.99149744 166.84085640
v 46.36379351 56.11211263 168.20815744
v 46.31486050 56.11211263 168.20815744
v 45.82902231 55.99149744 166.84085640
v 44.89229921 55.79048002 164.24917822
v 43.35788822 56.02969581 163.40593052
v 41.59279385 56.26489030 161.98384129
v 39.72284161 57.15139261 164.18962708
v 39.98673031 56.62270668 161.27636962
v 32.87566791 60.25716866 161.54077974
v 32.87566791 60.51246963 160.39024652
v 32.87566791 60.76575601 159.47553588
v 37.79346859 58.18062330 159.70421255
v 39.98673031 57.35643133 159.56367259
v 42.37223211 57.44488405 159.08487759
v 45.02337057 57.44488405 158.69421931
v 47.14672769 57.44488405 159.38978114
v 49.18445055 62.74782065 159.63513355
v 49.00444816 61.40097865 160.19729935
v 47.89645457 57.44488405 161.54077974
v 49.00794408 61.40299324 181.85019935
v 47.16944722 58.16453811 174.79216385
v 46.83565197 58.50426261 177.44339366
v 46.50884657 58.71131593 178.99173106
v 46.12437034 58.71131593 178.99173106
v 45.02337057 57.90924504 174.79216385
v 45.02337057 57.29813438 172.14093404
v 45.26803762 56.61064279 169.25149822
v 42.37223211 57.42277087 169.49208670
v 42.37223211 56.89207824 166.84085640
v 44.50432706 56.32720854 166.84085640
v 43.92237080 56.17643758 165.17341673
v 42.43339887 56.41766796 164.24917822
v 39.72284161 57.60771101 166.84085640
v 38.41037814 58.77564087 170.79983562
v 38.16920700 58.58266604 169.03473138
v 37.93502574 58.36957683 166.84085640
v 32.87566791 60.64111952 164.18962708
v 32.87566791 61.85529034 158.88240255
v 32.87566791 62.74782065 158.42266724
v 39.72284161 60.09634840 158.38693379
v 42.37223211 60.09634840 158.26068562
v 45.02337057 60.09634840 158.16540302
v 47.67276107 62.74782065 158.40837347
v 49.24212337 64.66958165 159.45886212
v 49.37144874 62.74782065 161.54077974
v 49.00794408 61.39092935 161.54077974
v 48.65142731 60.06418593 161.54077974
v 48.65142731 60.06418593 169.49208670
v 49.00794408 61.39695735 180.09462297
v 49.37144874 62.74782065 181.85019935
v 48.52559786 60.92858296 181.85019935
v 47.61858417 60.35567067 181.85019935
v 46.86361341 60.13454677 181.85019935
v 45.06531372 59.81492085 181.85019935
v 39.74206523 60.98888661 181.85019935
v 40.88326018 58.72538652 173.64401211
v 42.37223211 57.99568316 172.14093404
v 39.46419285 58.26102553 169.74696599
v 40.27159255 58.56055286 172.14093404
v 32.87566791 60.86425012 165.44735274
v 34.59008328 63.15388469 181.85019935
v 32.87566791 63.96601277 181.85019935
v 32.87566791 63.55391284 179.83021483
v 32.87566791 63.09759444 177.44339366
v 32.87566791 62.60308558 174.79216385
v 34.42056272 65.39727830 158.44410494
v 40.46208271 66.80241726 157.51748446
v 40.46208271 66.37625463 157.51748446
v 34.42056272 62.74782065 158.25115776
v 32.87566791 65.39727830 158.73471669
v 37.07170118 62.74782065 158.10346992
v 42.37223211 62.74782065 157.90337882
v 45.02337057 62.74782065 157.80809621
v 45.02337057 65.39727830 157.98198568
v 47.67450903 65.48975232 159.00150482
v 48.55880318 66.43455158 160.92144478
v 49.03765348 66.75216290 162.68893099
v 49.31202994 65.48975232 161.69799544
v 50.63322729 68.04673595 180.09462297
v 49.81184786 65.39727830 166.84085640
v 50.00233801 65.39727830 169.49208670
v 50.07399056 65.39727830 172.14093404
v 50.08098241 65.39727830 174.79216385
v 49.61086994 63.64035886 181.85019935
v 49.00794408 61.39092935 174.79216385
v 49.00794408 61.39293605 177.44339366
v 32.87566791 73.64316794 181.85019935
v 41.80600354 66.80241726 157.51748446
v 37.04024579 68.19348562 159.20874380
v 39.63545939 67.82963335 158.37502396
v 39.72284161 69.69511199 159.88286793
v 41.80600354 66.37625463 157.51748446
v 32.87566791 67.19843201 159.78758533
v 46.79021290 66.84061562 159.82569679
v 41.25375471 69.57651140 160.00435217
v 49.44834320 67.14013506 166.84085640
v 41.09122600 72.06314209 167.97709781
v 41.24326892 74.82919364 178.23661809
v 41.55085070 75.11263579 180.09462297
v 41.77804013 75.40009529 181.85019935
v 48.41200216 71.61687694 181.85019935
v 49.93243145 70.58965690 181.85019935
v 49.91495579 70.17153292 180.09462297
v 50.72934734 68.04673595 181.85019935
v 50.08098241 65.39727830 181.85019935
v 37.18354892 75.14680891 181.85019935
v 38.37717281 72.03097962 165.47593831
v 32.87566791 69.72526777 164.18962708
v 42.41242730 67.83365464 158.79426584
v 37.90356837 69.59862458 159.98291447
v 39.72284161 70.55950508 161.54077974
v 32.87566791 68.53923812 161.49075647
v 39.48691238 71.53646681 164.43259753
v 40.21392171 71.82794760 166.20961161
v 39.72284161 75.87450557 181.85019935
v 40.33800319 75.79409544 181.85019935
v 38.44707938 72.03097962 165.47593831
v 37.04024579 70.13937045 161.43596927
v 37.32510606 71.38771044 164.43259753
v 32.87566791 69.43981497 163.06053157
v 32.87566791 69.30311854 162.69131295
v 32.98052579 69.40765250 162.79850539
f 1 2 3
f 1 3 4
f 1 4 5
f 1 5 6
f 1 6 7
f 1 7 8
f 1 8 9
f 1 9 10
f 1 10 11
f 1 11 12
f 1 12 13
f 1 13 14
f 1 14 15
f 1 15 2
f 2 15 16
f 2 16 3
f 3 16 17
f 3 17 18
f 3 18 4
f 4 18 19
f 4 19 20
f 4 20 21
f 4 21 22
f 4 22 23
f 4 23 5
f 5 23 6
f 6 23 24
f 6 24 25
f 6 25 7
f 7 25 26
f 7 26 27
f 7 27 28
f 7 28 29
f 7 29 8
f 8 29 30
f 8 30 9
f 9 30 10
f 10 30 31
f 10 31 11
f 11 31 32
f 11 32 33
f 11 33 34
f 11 34 12
f 12 34 35
f 12 35 36
f 12 36 37
f 12 37 38
f 12 38 39
f 12 39 40
f 12 40 41
f 12 41 13
f 13 41 14
f 14 41 15
f 15 41 42
f 15 42 16
f 16 42 17
f 17 42 43
f 17 43 44
f 17 44 45
f 17 45 46
f 17 46 18
f 18 46 19
f 19 46 47
f 19 47 70
f 19 70 75
f 19 75 74
f 19 74 73
f 19 73 72
f 19 72 97
f 19 97 118
f 19 118 130
f 19 130 131
f 19 131 122
f 19 122 103
f 19 103 80
f 19 80 49
f 19 49 48
f 19 48 21
f 19 21 20
f 21 48 23
f 21 23 22
f 23 48 49
f 23 49 24
f 24 49 50
f 24 50 25
f 25 50 51
f 25 51 52
f 25 52 53
f 25 53 26
f 26 53 27
f 27 53 54
f 27 54 55
f 27 55 28
f 28 55 56
f 28 56 57
f 28 57 29
f 29 57 58
f 29 58 30
f 30 59 60
f 30 60 94
f 30 94 115
f 30 115 114
f 30 114 112
f 30 112 111
f 30 111 110
f 30 110 126
f 30 126 125
f 30 125 116
f 30 116 97
f 30 97 72
f 30 72 71
f 30 71 65
f 30 65 64
f 30 64 63
f 30 63 62
f 30 62 61
f 30 61 31
f 30 58 59
f 31 61 32
f 32 61 33
f 33 61 62
f 33 62 63
f 33 63 64
f 33 64 34
f 34 64 65
f 34 65 35
f 35 66 36
f 35 65 66
f 36 66 67
f 36 67 38
f 36 38 37
f 38 68 43
f 38 43 39
f 38 67 69
f 38 69 68
f 39 43 41
f 39 41 40
f 41 43 42
f 43 68 44
f 44 70 45
f 44 68 69
f 44 69 66
f 44 66 65
f 44 65 71
f 44 71 72
f 44 72 73
f 44 73 74
f 44 74 75
f 44 75 70
f 45 70 47
f 45 47 46
f 49 76 77
f 49 77 78
f 49 78 79
f 49 79 50
f 49 80 76
f 50 79 81
f 50 81 51
f 51 81 82
f 51 82 83
f 51 83 52
f 52 83 53
f 53 83 84
f 53 84 85
f 53 85 54
f 54 85 86
f 54 86 87
f 54 87 88
f 54 88 89
f 54 89 90
f 54 90 55
f 55 90 91
f 55 91 92
f 55 92 93
f 55 93 94
f 55 94 56
f 56 94 95
f 56 95 58
f 56 58 57
f 58 95 96
f 58 96 59
f 59 96 60
f 60 96 95
f 60 95 94
f 66 69 67
f 76 80 77
f 77 98 102
f 77 102 78
f 77 80 99
f 77 99 100
f 77 100 101
f 77 101 98
f 78 102 83
f 78 83 82
f 78 82 81
f 78 81 79
f 80 103 99
f 83 102 98
f 83 98 84
f 84 98 85
f 85 104 86
f 85 98 104
f 86 105 87
f 86 104 105
f 87 106 88
f 87 105 107
f 87 107 108
f 87 108 109
f 87 109 110
f 87 110 111
f 87 111 112
f 87 112 113
f 87 113 106
f 88 106 89
f 89 113 112
f 89 112 114
f 89 114 91
f 89 91 90
f 89 106 113
f 91 114 92
f 92 114 93
f 93 114 115
f 93 115 94
f 97 116 117
f 97 117 118
f 98 119 104
f 98 101 105
f 98 105 119
f 99 103 120
f 99 120 100
f 100 120 101
f 101 120 121
f 101 121 105
f 103 122 120
f 104 119 105
f 105 121 123
f 105 123 124
f 105 124 107
f 107 124 108
f 108 125 126
f 108 126 110
f 108 110 109
f 108 124 123
f 108 123 127
f 108 127 125
f 116 125 117
f 117 127 121
f 117 121 128
f 117 128 129
f 117 129 130
f 117 130 118
f 117 125 127
f 120 122 131
f 120 131 132
f 120 132 128
f 120 128 121
f 121 127 123
f 128 132 129
f 129 132 130
f 130 132 131

