# https://github.com/mikedh/trimesh
v 11.19447910 78.87952009 220.13449820
v 3.20524782 81.02047335 220.13449820
v 11.19447910 87.84827135 220.13449820
v 11.19447910 79.74939604 221.56469323
v -3.55520433 83.58136372 221.36985391
v -3.34150482 82.77522808 220.13449820
v -3.55520433 91.85646109 220.13449820
v -3.55520433 117.18042950 248.71767606
v 11.19447910 117.18042950 254.58355467
v 7.90955242 81.20794555 222.51401151
v 5.32781589 81.96908849 222.63008398
v -2.69173757 84.04629749 222.51401151
v 11.19447910 80.45430008 222.71714229
v -3.55520433 83.00769299 220.42053563
v -3.55520433 84.29001649 222.53059047
v -3.55520433 82.83521571 220.13449820
v -3.55520433 117.18042950 259.63691017
v 11.19447910 117.18042950 262.48486502
v 6.25625937 82.54275922 223.97322466
v -3.55520433 85.18238879 223.98565987
v 11.19447910 81.89785071 224.98057918
v 10.56059656 81.96908849 224.83548859
v 7.90955242 82.32154051 224.30486706
v -3.55520433 114.73202088 258.31864386
v -1.93223396 114.28583275 258.40984592
v 8.43369661 111.57495947 258.45129924
v 10.56059656 111.31249680 258.62126815
v 11.19447910 111.24125704 258.65028627
v 10.56059656 82.85021460 226.16204635
v -0.04213771 85.59483240 226.02109952
v -2.69173757 85.06615832 224.16391628
v -3.55520433 86.04851996 225.28734722
v 11.19447910 82.27279513 225.54851423
v -3.55520433 114.28208204 257.98700936
v -3.55520433 113.10849550 256.94648902
v -2.95453206 113.04100645 257.03354337
v 6.66633335 111.82242722 258.27719054
v 11.19447910 109.91394282 257.61391363
v 11.19447910 82.76397793 226.28641028
v -3.55520433 87.39083110 227.28962105
v 7.38396344 85.49359685 228.82345334
v -3.55520433 112.77479307 256.63971703
v 6.38910042 109.08155815 255.69454645
v 10.56059656 108.52288630 256.20858507
v 7.69440713 110.60009529 257.41077890
v 10.56059656 109.98893328 257.53514678
v 11.19447910 108.44039837 256.28735191
v 11.19447910 83.78008608 227.79122446
v -0.21540898 87.00463653 228.04410001
v -1.21460437 87.97200324 229.08047265
v -2.69173757 88.17072560 228.78614377
v -3.55520433 87.99449959 228.18089915
v 9.15132669 85.25737926 229.17167470
v -3.55520433 111.31249680 255.28828490
v -0.04213771 109.94393861 254.89861416
v 11.19447910 107.11308217 255.06443536
v 11.19447910 84.98367039 229.56134939
v 0.55275938 87.73578565 229.42040651
v -3.55520433 89.65551625 230.56870391
v -3.55520433 88.28695608 228.61203111
v -3.55520433 109.85395124 253.92856526
v -2.93287315 110.58884909 254.77424628
v -3.55520433 108.99907022 253.12848527
v 7.90955242 106.13821799 253.32747230
v 11.19447910 105.69952930 253.73787365
v 11.19447910 85.20863783 229.88055659
v 2.60890693 88.40319051 231.13663896
v -3.55520433 90.22918698 231.37293161
v 6.15807239 106.37068685 253.10361486
v -3.55520433 107.67550472 251.79363605
v -2.69173757 107.55552156 251.90970852
v 11.19447910 104.37596578 252.44862546
v 11.19447910 85.92853680 230.88791111
v 10.56059656 86.01102473 230.76769093
v 4.66505448 88.12947769 231.52216990
v 6.43241774 87.88951136 231.84551690
v -2.16470480 90.36791776 232.07766579
v -3.55520433 90.85159914 232.22276033
v 7.90955242 104.81090376 252.00505828
v 11.19447910 103.05989776 251.12621144
v 10.56059656 104.46220245 252.36571090
v -3.55520433 106.36318740 250.46707434
v -0.04213771 105.89075420 250.94380733
v 11.19447910 87.28584682 232.74509040
v 10.56059656 87.33834093 232.58756065
v 11.19447910 88.23821465 234.02604714
v 10.56059656 88.32445131 233.91411842
v 3.82324662 90.55164123 234.48205347
v -2.90688286 91.27154021 233.02284032
v -3.55520433 91.50775780 233.10574697
v -3.55520433 91.14405958 232.61657877
v 2.60890693 104.21098795 249.96133113
v 10.56059656 101.81882019 249.69601246
v 11.19447910 101.73633226 249.78307472
v -3.55520433 105.04337064 249.12393761
v -2.69173757 104.91963875 249.23586238
v -0.04213771 104.56718673 249.60067061
v 11.19447910 88.44818716 234.30379706
v 7.90955242 90.00421954 235.20751431
v 5.25850777 90.36042029 234.73907277
v -2.69173757 92.75258607 235.08315039
v -3.55520433 92.86882050 234.92976439
v 7.90955242 102.17502095 249.33535984
v 10.56059656 100.52899922 248.37360635
v 11.19447910 100.75397062 248.77572020
v -3.55520433 104.24098374 248.30312701
v -3.55520433 103.73855277 247.78908839
v 11.19447910 89.61052355 235.83762935
v 7.90955242 91.01657895 236.53407208
v -2.69173757 93.76119675 236.40970815
v -3.55520433 93.45748616 235.70497397
v 6.26636644 101.09892122 247.78080089
v 7.90955242 100.88145124 248.00879813
v 11.19447910 100.44276256 248.45651300
v 11.19447910 99.11919904 247.04704464
v 4.49900318 101.33888754 247.52377763
v -3.55520433 101.44387182 245.24790158
v -2.80869686 102.11502937 246.21380277
v 11.19447910 90.18419428 236.58381686
v 9.87184486 90.75411233 236.87400199
v -3.55520433 93.82493707 236.18170696
v -0.49264142 93.46873631 236.79109139
v -3.55520433 95.20474343 237.92281378
v 11.19447910 98.20432644 246.03969012
v -2.00298587 101.01268456 245.23131867
v -3.55520433 99.98532626 243.62286723
v -2.72061743 99.85034421 243.72650450
v -0.04213771 99.42290568 244.04985150
v 11.19447910 91.03157388 237.65335532
v 5.25850777 92.69634322 237.74870112
v 2.60890693 93.05254398 237.31342541
v 1.27472134 93.23251872 237.09371567
v 0.09359092 94.59357747 238.37467241
v -3.55520433 95.93589256 238.81823958
v 8.36150042 98.29806057 245.30179406
v 10.56059656 96.68203661 244.15763646
v 11.19447910 96.59579995 244.24883852
v 2.60890693 99.06670493 244.44367389
v -3.55520433 98.70675544 242.18438075
v -3.43824702 98.68800782 242.20510741
v -1.67088327 98.45179023 242.48285733
v 11.19447910 92.10392488 238.96333017
v 10.45807819 91.87895744 238.44929155
v -3.55520433 96.28834063 239.24937155
v 9.27694826 93.24376887 239.73024829
v 8.69360302 95.74091893 242.55332878
v 11.19447910 95.41096326 242.92642450
v -3.55520433 98.63551371 242.10147015
v -3.55520433 97.26695749 240.43912623
v 5.25850777 95.10725662 240.68785803
v 7.85035087 94.89353538 241.26822829
v 6.92623976 95.97713652 242.27972656
v 11.19447910 92.98880366 240.04116008
v 11.04431103 93.00755128 240.01628572
v 11.19447910 93.93741881 241.18946144
v 11.19447910 93.06379018 240.13236214
f 1 2 6
f 1 6 16
f 1 16 7
f 1 7 3
f 1 3 9
f 1 9 18
f 1 18 28
f 1 28 38
f 1 38 47
f 1 47 56
f 1 56 65
f 1 65 72
f 1 72 80
f 1 80 94
f 1 94 105
f 1 105 114
f 1 114 115
f 1 115 124
f 1 124 137
f 1 137 147
f 1 147 155
f 1 155 156
f 1 156 153
f 1 153 142
f 1 142 129
f 1 129 119
f 1 119 108
f 1 108 98
f 1 98 86
f 1 86 84
f 1 84 73
f 1 73 66
f 1 66 57
f 1 57 48
f 1 48 39
f 1 39 33
f 1 33 21
f 1 21 13
f 1 13 4
f 1 4 5
f 1 5 2
f 2 5 6
f 3 7 8
f 3 8 9
f 4 10 11
f 4 11 12
f 4 12 5
f 4 13 10
f 5 14 6
f 5 12 15
f 5 15 20
f 5 20 32
f 5 32 40
f 5 40 52
f 5 52 60
f 5 60 59
f 5 59 68
f 5 68 78
f 5 78 91
f 5 91 90
f 5 90 102
f 5 102 111
f 5 111 121
f 5 121 123
f 5 123 134
f 5 134 144
f 5 144 149
f 5 149 148
f 5 148 139
f 5 139 126
f 5 126 117
f 5 117 107
f 5 107 106
f 5 106 95
f 5 95 82
f 5 82 70
f 5 70 63
f 5 63 61
f 5 61 54
f 5 54 42
f 5 42 35
f 5 35 34
f 5 34 24
f 5 24 17
f 5 17 8
f 5 8 7
f 5 7 16
f 5 16 14
f 6 14 16
f 8 17 18
f 8 18 9
f 10 13 19
f 10 19 11
f 11 19 12
f 12 19 20
f 12 20 15
f 13 21 22
f 13 22 23
f 13 23 19
f 17 24 25
f 17 25 18
f 18 25 26
f 18 26 27
f 18 27 28
f 19 23 29
f 19 29 30
f 19 30 31
f 19 31 20
f 20 31 32
f 21 33 22
f 22 33 23
f 23 33 29
f 24 34 25
f 25 34 35
f 25 35 36
f 25 36 37
f 25 37 26
f 26 37 38
f 26 38 27
f 27 38 28
f 29 33 39
f 29 39 30
f 30 40 32
f 30 32 31
f 30 39 41
f 30 41 40
f 35 42 36
f 36 42 43
f 36 43 44
f 36 44 45
f 36 45 37
f 37 46 38
f 37 45 47
f 37 47 46
f 38 46 47
f 39 48 41
f 40 41 49
f 40 49 50
f 40 50 51
f 40 51 52
f 41 53 50
f 41 50 49
f 41 48 53
f 42 54 55
f 42 55 43
f 43 55 56
f 43 56 44
f 44 47 45
f 44 56 47
f 48 57 53
f 50 53 58
f 50 58 59
f 50 59 51
f 51 59 60
f 51 60 52
f 53 57 58
f 54 61 62
f 54 62 55
f 55 62 63
f 55 63 64
f 55 64 56
f 56 64 65
f 57 66 58
f 58 66 67
f 58 67 59
f 59 67 68
f 61 63 62
f 63 69 64
f 63 70 71
f 63 71 69
f 64 69 72
f 64 72 65
f 66 73 74
f 66 74 67
f 67 74 75
f 67 75 68
f 68 75 76
f 68 76 77
f 68 77 78
f 69 71 79
f 69 79 80
f 69 80 81
f 69 81 72
f 70 82 71
f 71 82 83
f 71 83 80
f 71 80 79
f 72 81 80
f 73 84 85
f 73 85 76
f 73 76 74
f 74 76 75
f 76 85 84
f 76 84 86
f 76 86 87
f 76 87 88
f 76 88 77
f 77 89 90
f 77 90 91
f 77 91 78
f 77 88 89
f 80 83 92
f 80 92 93
f 80 93 94
f 82 95 96
f 82 96 97
f 82 97 92
f 82 92 83
f 86 98 99
f 86 99 100
f 86 100 88
f 86 88 87
f 88 100 101
f 88 101 102
f 88 102 89
f 89 102 90
f 92 97 103
f 92 103 93
f 93 103 104
f 93 104 94
f 94 104 105
f 95 106 96
f 96 103 97
f 96 106 107
f 96 107 103
f 98 108 99
f 99 101 100
f 99 108 109
f 99 109 110
f 99 110 101
f 101 110 111
f 101 111 102
f 103 107 112
f 103 112 113
f 103 113 104
f 104 114 105
f 104 113 115
f 104 115 114
f 107 116 112
f 107 117 118
f 107 118 116
f 108 119 120
f 108 120 109
f 109 120 110
f 110 121 111
f 110 120 122
f 110 122 123
f 110 123 121
f 112 116 124
f 112 124 115
f 112 115 113
f 116 118 124
f 117 125 118
f 117 126 127
f 117 127 128
f 117 128 125
f 118 125 124
f 119 129 120
f 120 129 130
f 120 130 131
f 120 131 132
f 120 132 122
f 122 132 123
f 123 132 131
f 123 131 133
f 123 133 134
f 124 125 135
f 124 135 136
f 124 136 137
f 125 128 138
f 125 138 135
f 126 139 140
f 126 140 141
f 126 141 127
f 127 141 128
f 128 141 138
f 129 142 143
f 129 143 130
f 130 144 133
f 130 133 131
f 130 143 145
f 130 145 144
f 133 144 134
f 135 138 136
f 136 138 146
f 136 146 147
f 136 147 137
f 138 141 146
f 139 148 140
f 140 148 149
f 140 149 144
f 140 144 150
f 140 150 151
f 140 151 152
f 140 152 141
f 141 152 146
f 142 153 154
f 142 154 145
f 142 145 143
f 144 145 150
f 145 154 151
f 145 151 150
f 146 152 155
f 146 155 147
f 151 154 155
f 151 155 152
f 153 156 154
f 154 156 155

