# https://github.com/mikedh/trimesh
v -8.26296338 94.17253825 220.13449425
v -8.26296338 79.88054245 193.87428269
v -8.26296338 84.09320603 220.13449425
v 10.73681912 87.89441355 220.13449425
v 10.73681912 74.98393455 193.87428269
v -8.26296338 71.42796686 193.87428269
v -8.26296338 83.93244107 219.86973257
v -7.99323827 84.01963368 220.13449425
v 10.73681912 79.00313348 220.13449425
v 10.73681912 71.15820028 193.87428269
v -8.18483646 71.40616574 193.87428269
v -8.26296338 71.87484429 195.07727545
v -7.70305315 83.94061402 220.13449425
v -8.26296338 82.87246208 218.10123116
v -6.58881036 82.64901942 218.49451632
v 7.90936034 79.38188983 219.51243366
v 10.73681912 77.72516309 217.99841158
v 5.15072676 80.49636569 220.13449425
v 10.73681912 67.03001158 195.72761153
v 10.73309902 66.33516473 193.87428269
v -7.99323827 71.35439451 193.87428269
v -6.33768671 72.11463681 197.09254641
v -8.26296338 72.37894817 196.41393485
v -7.50587531 71.22359967 193.87428269
v -1.55890912 69.62954669 193.87428269
v 2.60787395 69.09273916 195.42943417
v 4.02532368 69.39793107 197.26219930
v -2.69175337 82.12584400 219.35563470
v 2.73994569 81.14216299 220.13449425
v -8.26296338 82.79616410 217.96756453
v -0.04100993 80.44459446 217.70794204
v 2.01075883 80.17210619 218.19376838
v 3.77792112 79.93776494 218.59990747
v 10.73681912 77.67883917 217.91872434
v 10.73681912 67.14445657 196.03350164
v -4.57052442 71.87756993 197.67605015
v -8.26296338 73.29450811 198.67083220
v 10.73681912 68.19080739 198.63998711
v 7.20249552 69.53962450 199.59107113
v 5.04841775 69.73036352 198.68625572
v -8.26296338 82.12311837 216.77742273
v -7.99323827 82.08497136 216.84168447
v 10.73681912 77.00034612 216.72344334
v -8.26296338 74.63242268 201.80426947
v 10.73681912 69.06821636 200.69895609
v 10.56010328 69.09002143 200.64240513
v 8.96965732 69.30255761 200.14372881
v -8.26296338 80.80972660 214.39971268
v -5.34249681 80.40644349 215.09374776
v -1.62401423 79.91051651 216.00627395
v -0.04100993 79.69797638 216.38413756
v 10.56010328 76.95129658 216.55121887
v 10.73681912 75.80412103 214.55394204
v -0.04100993 72.40347097 201.74514891
v -6.81389038 74.63787394 202.71679763
v -8.26296338 75.07930406 202.82218878
v 10.73681912 69.13089013 200.84547467
v 10.73681912 69.63499401 202.02276254
v -8.26296338 80.45004177 213.74166385
v 6.97555446 77.43087766 215.69010445
v 8.74271676 77.19653641 216.11937587
v 1.64244481 77.42270076 213.05277192
v 10.73681912 74.88038814 212.85484355
v 3.55098056 71.92389384 202.86074464
v 5.25861641 71.69500386 203.36970331
v -2.68245264 74.13377006 204.05859721
v -7.81652244 75.36814217 203.74242574
v -8.26296338 75.50438433 203.77584240
v 10.73681912 70.49060581 203.95063647
v 10.56010328 70.53965536 203.95577764
v -8.26296338 79.73339776 212.41014662
v -0.04100993 77.64886511 212.63378087
v 10.73681912 74.25639196 211.69040763
v 5.25861641 72.29175161 204.69350976
v -3.56045217 74.79864285 205.01225281
v -8.26296338 76.81777610 206.59053860
v 10.73681912 71.55603607 206.24352007
v 8.57158106 71.84759586 205.64716536
v 6.80441877 72.08466275 205.15105864
v -8.26296338 79.45001091 211.88062325
v -0.04100993 76.94039799 211.30997244
v 10.56010328 74.19371819 211.48476650
v 10.73681912 74.17192103 211.53103709
v -1.79328987 74.56157597 205.51607030
v -7.94301552 76.78235472 206.69592777
v -8.26296338 77.04121877 207.05065708
v 10.73681912 73.02201984 209.25357504
v 10.56010328 73.06834376 209.25357504
v 10.56010328 72.22363054 207.51848831
v 2.51672522 74.01659944 206.77561502
v -8.26296338 78.04942258 209.12504958
v -3.65718054 77.42542639 210.37945312
v -1.88815870 77.18835951 210.84471278
v 8.47671224 74.47437941 210.96552746
v 6.70954995 74.71144629 210.51054818
v 7.71962269 73.93757978 209.47720732
v 5.25861641 74.90491094 210.10955026
f 1 2 6
f 1 6 12
f 1 12 23
f 1 23 37
f 1 37 44
f 1 44 56
f 1 56 68
f 1 68 76
f 1 76 86
f 1 86 91
f 1 91 80
f 1 80 71
f 1 71 59
f 1 59 48
f 1 48 41
f 1 41 30
f 1 30 14
f 1 14 7
f 1 7 3
f 1 3 8
f 1 8 13
f 1 13 29
f 1 29 18
f 1 18 9
f 1 9 4
f 1 4 5
f 1 5 2
f 2 5 10
f 2 10 20
f 2 20 25
f 2 25 24
f 2 24 21
f 2 21 11
f 2 11 6
f 3 7 8
f 4 9 17
f 4 17 34
f 4 34 43
f 4 43 53
f 4 53 63
f 4 63 73
f 4 73 83
f 4 83 87
f 4 87 77
f 4 77 69
f 4 69 58
f 4 58 57
f 4 57 45
f 4 45 38
f 4 38 35
f 4 35 19
f 4 19 10
f 4 10 5
f 6 11 12
f 7 13 8
f 7 14 15
f 7 15 13
f 9 16 17
f 9 18 16
f 10 19 20
f 11 21 12
f 12 22 23
f 12 21 24
f 12 24 25
f 12 25 20
f 12 20 26
f 12 26 27
f 12 27 22
f 13 15 28
f 13 28 29
f 14 30 31
f 14 31 32
f 14 32 15
f 15 32 33
f 15 33 16
f 15 16 18
f 15 18 28
f 16 33 17
f 17 33 32
f 17 32 34
f 18 29 28
f 19 35 20
f 20 35 27
f 20 27 26
f 22 36 37
f 22 37 23
f 22 27 36
f 27 35 38
f 27 38 39
f 27 39 40
f 27 40 36
f 30 41 42
f 30 42 31
f 31 42 43
f 31 43 34
f 31 34 32
f 36 44 37
f 36 40 44
f 38 45 46
f 38 46 47
f 38 47 39
f 39 47 44
f 39 44 40
f 41 48 42
f 42 48 49
f 42 49 50
f 42 50 51
f 42 51 43
f 43 52 53
f 43 51 50
f 43 50 52
f 44 47 54
f 44 54 55
f 44 55 56
f 45 57 46
f 46 57 58
f 46 58 54
f 46 54 47
f 48 59 60
f 48 60 49
f 49 60 50
f 50 60 61
f 50 61 52
f 52 61 53
f 53 61 60
f 53 60 59
f 53 59 62
f 53 62 63
f 54 58 55
f 55 58 64
f 55 64 65
f 55 65 66
f 55 66 67
f 55 67 68
f 55 68 56
f 58 69 70
f 58 70 64
f 59 71 62
f 62 72 63
f 62 71 72
f 63 72 73
f 64 70 65
f 65 74 75
f 65 75 66
f 65 70 74
f 66 75 67
f 67 75 68
f 68 75 76
f 69 77 78
f 69 78 79
f 69 79 70
f 70 79 74
f 71 80 81
f 71 81 72
f 72 81 73
f 73 82 83
f 73 81 82
f 74 79 75
f 75 79 84
f 75 84 76
f 76 85 86
f 76 84 85
f 77 87 88
f 77 88 89
f 77 89 90
f 77 90 84
f 77 84 78
f 78 84 79
f 80 91 92
f 80 92 93
f 80 93 81
f 81 93 94
f 81 94 82
f 82 87 83
f 82 94 87
f 84 90 85
f 85 91 86
f 85 90 91
f 87 94 88
f 88 94 95
f 88 95 96
f 88 96 89
f 89 96 90
f 90 96 92
f 90 92 91
f 92 96 97
f 92 97 95
f 92 95 93
f 93 95 94
f 95 97 96

