# https://github.com/mikedh/trimesh
v 32.87566791 58.65598163 186.29636377
v 34.42105452 58.52849310 186.08187422
v 32.87566791 58.65803573 187.11307358
v 32.87566791 59.49287742 185.15241948
v 34.42105452 59.35099438 184.75643880
v 37.07107902 58.47913939 186.12724712
v 34.54276787 58.54288760 187.99578075
v 45.06541050 59.81571089 181.85258033
v 35.50725094 58.71149764 189.55082953
v 32.87566791 58.68270863 187.20381939
v 32.87566791 60.25985479 184.15009356
v 38.55745172 58.59634951 186.36510997
v 38.55745172 58.59634951 187.16944580
v 36.94936568 58.50175819 188.05077780
v 46.86344355 60.13442826 181.85258033
v 39.74138777 60.98982676 181.85258033
v 34.54276787 59.34482418 190.54078098
v 33.74056662 58.95619629 188.84548899
v 35.98303786 58.71149764 189.55082953
v 37.07107902 61.07207768 195.89889486
v 34.50588491 61.49361067 195.89889486
v 34.23663976 61.54090238 195.89889486
v 32.87566791 59.85271630 190.63565178
v 32.87566791 61.86168175 182.92502810
v 47.61954012 60.35444611 181.85258033
v 48.91781252 61.46893777 186.09424820
v 49.12804180 63.94054983 194.80032347
v 38.74924347 61.08441808 195.41766852
v 32.87566791 62.78699077 182.36955542
v 34.59071531 63.15506185 181.85258033
v 33.87887868 61.63137760 195.89889486
v 32.87566791 61.91308167 195.89889486
v 37.07107902 61.02684006 195.77652578
v 39.14019999 61.99327848 195.89889486
v 48.52500928 60.92814054 181.85258033
v 49.00448766 61.41135975 184.32608453
v 49.36224874 63.41620121 190.69752365
v 49.27741834 63.71847788 193.34839349
v 49.10038254 65.39843176 194.77144954
v 42.64405872 68.10240207 195.89889486
v 42.64037121 68.07772917 195.89889486
v 42.13876583 65.98446659 195.89889486
v 50.76010354 68.04894016 190.69752365
v 51.71536686 71.77281476 189.83544044
v 51.31334387 70.81254654 190.71127328
v 32.87566791 63.96728473 181.85258033
v 32.87566791 78.16981656 195.89889486
v 49.00817319 61.40313545 181.85258033
v 49.00817319 61.40518955 182.74628680
v 50.08146038 65.39843176 190.69752365
v 49.00448766 66.73499536 194.67795439
v 39.16232898 78.78052430 195.89889486
v 50.02798267 70.69739446 192.62242999
v 50.79145622 68.04894016 188.04802798
v 51.71536686 71.77281476 188.90048654
v 51.71536686 72.14911014 189.83544044
v 32.87566791 73.64195128 181.85258033
v 37.01390985 79.48376136 195.89889486
v 37.18357064 75.14712888 181.85258033
v 49.37146849 62.74792336 181.85258033
v 49.37146849 62.74792336 182.74628680
v 49.69788084 72.52129338 192.25944774
v 50.47795310 72.82972840 190.71127328
v 42.17564878 77.99914847 190.69752365
v 37.07661127 79.47759511 195.89889486
v 50.79145622 68.04894016 185.39715739
v 50.77670225 68.04894016 182.74628680
v 50.72875481 68.04894016 181.85258033
v 51.71536686 72.14911014 188.90048654
v 39.72294629 78.41862342 190.69752365
v 40.49010735 77.48508616 186.25236554
v 39.65286987 77.81408588 187.97515630
v 39.72294629 75.87503884 181.85258033
v 50.08146038 65.39843176 181.85258033
v 50.51852158 72.76598808 188.03015385
v 41.78100277 77.80586158 188.04802798
v 49.93393252 70.59047064 181.85258033
v 49.69419531 72.37118604 185.39715739
v 41.32181259 77.48508616 186.25236554
v 40.33888804 75.79484597 181.85258033
v 48.41067490 71.61654117 181.85258033
v 49.16123922 72.09153608 183.85723267
v 41.77731527 75.40004393 181.85258033
f 1 2 3
f 1 3 10
f 1 10 23
f 1 23 32
f 1 32 47
f 1 47 57
f 1 57 46
f 1 46 29
f 1 29 24
f 1 24 11
f 1 11 4
f 1 4 5
f 1 5 2
f 2 6 7
f 2 7 3
f 2 5 8
f 2 8 6
f 3 7 9
f 3 9 10
f 4 11 5
f 5 11 8
f 6 12 13
f 6 13 14
f 6 14 7
f 6 8 12
f 7 14 9
f 8 15 12
f 8 11 16
f 8 16 30
f 8 30 46
f 8 46 57
f 8 57 59
f 8 59 73
f 8 73 80
f 8 80 83
f 8 83 81
f 8 81 77
f 8 77 68
f 8 68 74
f 8 74 60
f 8 60 48
f 8 48 35
f 8 35 25
f 8 25 15
f 9 17 18
f 9 18 10
f 9 14 19
f 9 19 20
f 9 20 21
f 9 21 22
f 9 22 17
f 10 18 23
f 11 24 16
f 12 15 13
f 13 19 14
f 13 15 25
f 13 25 26
f 13 26 27
f 13 27 28
f 13 28 19
f 16 24 29
f 16 29 30
f 17 23 18
f 17 22 31
f 17 31 32
f 17 32 23
f 19 28 33
f 19 33 20
f 20 33 28
f 20 28 27
f 20 27 34
f 20 34 42
f 20 42 41
f 20 41 40
f 20 40 52
f 20 52 65
f 20 65 58
f 20 58 47
f 20 47 32
f 20 32 31
f 20 31 22
f 20 22 21
f 25 35 26
f 26 35 36
f 26 36 37
f 26 37 38
f 26 38 27
f 27 39 40
f 27 40 41
f 27 41 42
f 27 42 34
f 27 38 43
f 27 43 44
f 27 44 45
f 27 45 39
f 29 46 30
f 35 48 49
f 35 49 36
f 36 49 50
f 36 50 37
f 37 50 38
f 38 50 43
f 39 51 52
f 39 52 40
f 39 45 53
f 39 53 51
f 43 54 44
f 43 50 54
f 44 54 66
f 44 66 55
f 44 55 69
f 44 69 56
f 44 56 45
f 45 56 53
f 47 58 59
f 47 59 57
f 48 60 61
f 48 61 49
f 49 61 50
f 50 61 60
f 50 60 74
f 50 74 66
f 50 66 54
f 51 53 62
f 51 62 52
f 52 62 63
f 52 63 64
f 52 64 65
f 53 56 62
f 55 66 67
f 55 67 68
f 55 68 69
f 56 69 64
f 56 64 63
f 56 63 62
f 58 65 70
f 58 70 71
f 58 71 72
f 58 72 59
f 59 72 73
f 64 69 75
f 64 75 76
f 64 76 65
f 65 76 70
f 66 74 67
f 67 74 68
f 68 77 69
f 69 77 78
f 69 78 75
f 70 76 79
f 70 79 71
f 71 79 73
f 71 73 72
f 73 79 80
f 75 78 79
f 75 79 76
f 77 81 82
f 77 82 78
f 78 82 79
f 79 83 80
f 79 82 83
f 81 83 82

