# https://github.com/mikedh/trimesh
v 61.56369575 28.46765074 121.82108740
v 61.56369575 33.54949503 116.46647043
v 62.52730978 32.36004452 116.46647043
v 63.84957763 31.99499928 116.46647043
v 65.23666421 31.99499928 116.46647043
v 63.74298958 28.46765074 121.95521225
v 61.56369575 28.46765074 221.86681584
v 61.56369575 38.31962170 116.46647043
v 66.17146948 33.59051384 116.46647043
v 65.05517654 29.05417539 122.66709629
v 64.15926091 28.46765074 122.29567939
v 63.72858717 28.46765074 221.55730242
v 63.51108955 30.78913966 221.33032433
v 61.56369575 28.90241688 221.81523027
v 63.84525612 46.83858423 116.46647043
v 61.56369575 38.31962170 214.55193534
v 62.16289262 40.55908092 214.55193534
v 67.13076200 36.24012950 116.46647043
v 65.04221201 28.46765074 124.43133544
v 64.91833790 29.52585214 221.19619948
v 64.91833790 29.80886767 221.19619948
v 64.78582473 28.46765074 220.37082640
v 64.34650796 31.57664224 221.09302833
v 62.58060183 32.37234542 221.19619948
v 62.17873685 32.37234542 221.19619948
v 61.94251531 32.00320778 221.23747109
v 61.56369575 31.41257492 221.29937062
v 70.14979576 70.36929143 208.44416272
v 70.14979576 70.36929143 116.46647043
v 61.56369575 38.26630200 217.19313314
v 63.84957763 46.84678483 214.55193534
v 70.04320770 69.97143589 209.24889999
v 68.55241671 41.54345322 116.46647043
v 65.04941321 28.46765074 127.08285114
v 65.13007615 28.77526807 124.43133544
v 64.86648767 28.46765074 219.85496674
v 65.02780960 29.12800450 219.85496674
v 70.24486110 48.01983415 215.93443574
v 67.68242621 39.50087162 218.65817282
v 73.36184385 62.74037059 213.65434088
v 70.54302167 52.13781555 216.17173173
v 67.71411465 41.54345322 218.66849072
v 67.64209868 43.14306807 218.58595144
v 66.23340456 43.46299420 218.65817282
v 67.59168237 56.12043964 215.87253226
v 67.55567241 56.12043964 215.87253226
v 62.21906832 40.32529270 218.57563749
v 62.00445038 38.88973726 218.84388324
v 61.63283202 36.24012950 219.31847128
v 61.56369575 36.10888038 219.21530014
v 70.15988060 70.36929143 209.24889999
v 76.27717319 70.36929143 116.46647043
v 61.56369575 37.71668794 218.12168131
v 61.73654039 38.88973726 217.19313314
v 64.91833790 50.79249832 214.55193534
v 64.55536257 49.46769049 214.55193534
v 70.09794553 69.77046192 210.86870033
v 70.22757901 70.36929143 210.22903372
v 65.99718301 32.00320778 129.73436684
v 65.04941321 28.46765074 217.20345104
v 65.99718301 32.00320778 217.19313314
v 66.42209738 33.59051384 217.19313314
v 67.11347596 36.24012950 217.19313314
v 67.50526005 37.75770675 217.19313314
v 70.26646866 47.94600504 214.55193534
v 76.27573137 70.36929143 209.24889999
v 76.24836443 70.36929143 209.52746760
v 75.67365085 68.74916717 210.90996799
v 75.89259030 70.36929143 211.12662818
v 73.18035618 60.09075493 213.62338717
v 70.40906668 49.48819989 216.10982826
v 75.73991139 70.36929143 211.26075303
v 73.22068765 65.39408655 213.43767675
v 72.99598882 66.94448200 213.27260213
v 71.53112295 65.39408655 213.69560855
v 68.63883903 54.94329003 216.07887850
v 71.53112295 67.05112141 213.31387375
v 70.11378975 66.93627350 213.29323794
v 76.27717319 70.36929143 206.96880513
v 70.93912728 70.36929143 211.31233860
v 74.18718137 70.36929143 212.11707982
v 73.80836182 70.36929143 212.20993306
v 71.38564129 70.36929143 211.68375550
v 71.20271575 70.36929143 211.57026646
f 1 2 3
f 1 3 4
f 1 4 5
f 1 5 6
f 1 6 11
f 1 11 19
f 1 19 34
f 1 34 60
f 1 60 36
f 1 36 22
f 1 22 12
f 1 12 7
f 1 7 14
f 1 14 27
f 1 27 50
f 1 50 53
f 1 53 30
f 1 30 16
f 1 16 8
f 1 8 2
f 2 8 15
f 2 15 29
f 2 29 52
f 2 52 33
f 2 33 18
f 2 18 9
f 2 9 5
f 2 5 4
f 2 4 3
f 5 9 10
f 5 10 11
f 5 11 6
f 7 12 13
f 7 13 14
f 8 16 17
f 8 17 15
f 9 18 19
f 9 19 10
f 10 19 11
f 12 20 21
f 12 21 13
f 12 22 20
f 13 21 23
f 13 23 24
f 13 24 14
f 14 25 26
f 14 26 27
f 14 24 25
f 15 28 29
f 15 17 28
f 16 30 17
f 17 31 32
f 17 32 28
f 17 30 31
f 18 33 34
f 18 34 35
f 18 35 19
f 19 35 34
f 20 22 36
f 20 36 37
f 20 37 38
f 20 38 39
f 20 39 40
f 20 40 21
f 21 40 41
f 21 41 42
f 21 42 43
f 21 43 23
f 23 43 24
f 24 43 44
f 24 44 45
f 24 45 46
f 24 46 25
f 25 46 26
f 26 46 27
f 27 46 47
f 27 47 48
f 27 48 49
f 27 49 50
f 28 32 51
f 28 51 58
f 28 58 80
f 28 80 84
f 28 84 83
f 28 83 82
f 28 82 81
f 28 81 72
f 28 72 69
f 28 69 67
f 28 67 66
f 28 66 79
f 28 79 52
f 28 52 29
f 30 53 47
f 30 47 54
f 30 54 55
f 30 55 56
f 30 56 31
f 31 56 32
f 32 57 58
f 32 58 51
f 32 56 55
f 32 55 57
f 33 52 59
f 33 59 34
f 34 59 61
f 34 61 60
f 36 60 61
f 36 61 62
f 36 62 63
f 36 63 64
f 36 64 38
f 36 38 37
f 38 65 66
f 38 66 67
f 38 67 68
f 38 68 69
f 38 69 70
f 38 70 71
f 38 71 39
f 38 64 63
f 38 63 62
f 38 62 65
f 39 71 70
f 39 70 40
f 40 70 69
f 40 69 72
f 40 72 73
f 40 73 43
f 40 43 41
f 41 43 42
f 43 73 74
f 43 74 44
f 44 74 75
f 44 75 76
f 44 76 45
f 45 76 75
f 45 75 77
f 45 77 46
f 46 77 78
f 46 78 47
f 47 78 57
f 47 57 55
f 47 55 54
f 47 53 48
f 48 50 49
f 48 53 50
f 52 79 61
f 52 61 59
f 57 78 80
f 57 80 58
f 61 79 66
f 61 66 62
f 62 66 65
f 67 69 68
f 72 81 73
f 73 81 74
f 74 82 77
f 74 77 75
f 74 81 82
f 77 82 78
f 78 82 83
f 78 83 84
f 78 84 80

