# https://github.com/mikedh/trimesh
v 108.64660710 202.57615220 94.38292433
v 108.64660710 203.24579682 94.36375800
v 111.29688639 211.20023727 94.38676392
v 111.29688639 208.54968937 94.70891006
v 110.83694172 202.57615220 95.49125369
v 106.44882241 202.57615220 95.48359031
v 108.64660710 205.89634473 94.59002505
v 111.29688639 213.85079308 94.39060351
v 113.94715778 221.79963215 94.35991841
v 113.94715778 219.14908425 94.58235378
v 113.31567203 211.20023727 95.54111302
v 112.96138712 208.54968937 95.88627299
v 112.72892616 206.82095060 96.30045862
v 111.70088843 202.57615220 97.91884480
v 106.53832589 203.24579682 95.49893286
v 105.57740984 202.57615220 97.91884480
v 111.29688639 216.50134098 94.72041302
v 113.94715778 224.45018006 94.44429453
v 109.28431836 213.85079308 95.54494471
v 112.02907046 224.45018006 95.60247532
v 116.86221851 226.84296207 95.62932083
v 116.41718976 224.45018006 95.42989929
v 116.06166449 221.79963215 95.49893286
v 115.70737958 219.14908425 95.75204543
v 115.44384641 217.18499298 96.17006275
v 116.85103156 221.79963215 97.91884480
v 116.14122138 219.14908425 97.91884480
v 111.88114363 203.24579682 97.91884480
v 111.70088843 202.57615220 124.42287017
v 106.89385116 205.89634473 95.76354839
v 105.75641678 203.24579682 97.91884480
v 112.58224759 228.51846803 96.50371186
v 109.86856770 218.20766635 96.31196159
v 107.15489571 207.84362397 96.17773403
v 105.57616948 202.57615220 100.56886338
v 113.94715778 227.10353260 95.08474723
v 116.59743707 229.13207521 95.97831248
v 109.63984363 216.50134098 95.89777595
v 112.38459573 227.10353260 96.08952622
v 118.10904163 228.71459512 96.32730414
v 118.10904163 227.55462884 96.32730414
v 118.23832354 227.38091515 97.91884480
v 118.27064402 227.11474325 103.21888196
v 117.92008810 225.78946929 103.21888196
v 117.56207420 224.45018006 103.21888196
v 116.85227192 221.79963215 103.21888196
v 111.88114363 203.24579682 124.42287017
v 113.30075610 208.54968937 133.53878587
v 113.07451274 207.82121057 133.53878587
v 112.78362843 206.88819869 133.53878587
v 111.20116531 202.57615220 127.10357385
v 106.46622696 205.89634473 97.91884480
v 113.94715778 228.98637629 96.10870046
v 107.42589475 209.47990452 97.91884480
v 108.59688997 213.85079308 97.91884480
v 110.72879333 221.79963215 97.91884480
v 112.56732376 228.58570822 97.91884480
v 113.65752173 229.93620020 100.56886338
v 114.95531024 231.19983534 98.88527532
v 112.14716543 227.10353260 103.21888196
v 105.57616948 202.57615220 123.75557197
v 115.71981479 231.19983534 98.88527532
v 116.60116605 230.40691310 97.96870413
v 118.23832354 229.08724052 97.91884480
v 118.27561337 227.37811052 100.56886338
v 117.92008810 225.78946929 105.87274012
v 118.27064402 229.02840635 103.21888196
v 118.23086558 227.11474325 105.87274012
v 117.54840653 224.45018006 119.12283302
v 116.85103156 221.79963215 132.37676550
v 117.56207420 224.45018006 116.46897880
v 116.85227192 221.79963215 129.72674692
v 115.87395922 218.14882428 133.53878587
v 111.94702495 206.36144835 133.53878587
v 110.28376459 202.57615220 128.70662538
v 112.56732376 228.61092625 100.56886338
v 114.98266137 231.18302332 100.56886338
v 112.56235442 228.59691887 103.21888196
v 112.56235442 228.51285876 111.17277728
v 112.59218628 228.46523523 113.82279586
v 112.14716543 227.10353260 108.52275870
v 105.57740984 202.57615220 124.42287017
v 107.88707979 211.20023727 133.53878587
v 108.59688997 213.85079308 133.53878587
v 115.66636078 231.18302332 100.56886338
v 116.99150042 230.54420601 100.56886338
v 118.27561337 229.21893206 100.56886338
v 118.23086558 228.85188802 105.87274012
v 118.11773995 227.12875063 108.52275870
v 117.45890306 224.45018006 121.77285159
v 116.82864977 221.79963215 133.53878587
v 116.54025408 220.63966588 133.53878587
v 111.29688639 205.95238216 133.53878587
v 108.74605716 202.57615220 128.90221128
v 115.20268712 231.09897111 102.00701014
v 112.62077777 228.42880655 115.15739227
v 112.14840579 227.10353260 111.17277728
v 111.43859561 224.45018006 124.42287017
v 111.45848878 224.45018006 127.07289270
v 110.01650243 219.14628751 133.53878587
v 110.41553513 220.63406450 133.53878587
v 110.72879333 221.79963215 133.53878587
v 106.22381942 202.57615220 126.75074656
v 107.13625080 206.92742410 133.53878587
v 107.13625080 208.05656307 133.53878587
v 107.29909356 208.80186179 133.53878587
v 107.42589475 209.38184493 133.53878587
v 115.34937359 231.09897111 102.00701014
v 118.00089324 228.51285876 110.33290304
v 118.11773995 228.66136231 108.52275870
v 116.48555970 223.18934955 133.53878587
v 109.80641536 205.97199092 133.53878587
v 108.36691763 202.57615220 128.74113821
v 108.64660710 205.98880294 133.53878587
v 112.46788160 225.90434091 131.86670473
v 111.55048088 224.45018006 129.72674692
v 112.22672232 226.21254287 127.07289270
v 112.31870651 226.06124257 129.72674692
v 111.89108232 224.54264618 133.53878587
v 106.44260481 202.57615220 127.24930437
v 107.79757631 206.51555328 133.53878587
v 116.75531048 228.87149678 111.19962279
v 113.34674424 225.90434091 131.86670473
v 114.11746640 225.62416162 132.60303255
v 115.11318365 225.73903323 130.89643857
v 115.51221635 228.50725738 115.56774227
v 115.98085935 228.66976832 113.82279586
v 115.55696413 225.91274692 129.13231397
v 116.21704929 224.16719613 133.53878587
v 114.05158508 225.45324467 133.53878587
f 1 2 3
f 1 3 4
f 1 4 5
f 1 5 14
f 1 14 29
f 1 29 51
f 1 51 75
f 1 75 94
f 1 94 113
f 1 113 120
f 1 120 103
f 1 103 82
f 1 82 61
f 1 61 35
f 1 35 16
f 1 16 6
f 1 6 2
f 2 7 8
f 2 8 9
f 2 9 3
f 2 6 7
f 3 9 10
f 3 10 4
f 4 10 11
f 4 11 5
f 5 11 12
f 5 12 13
f 5 13 14
f 6 15 7
f 6 16 15
f 7 17 18
f 7 18 8
f 7 15 19
f 7 19 20
f 7 20 17
f 8 18 9
f 9 18 21
f 9 21 22
f 9 22 10
f 10 22 23
f 10 23 11
f 11 23 24
f 11 24 12
f 12 24 25
f 12 25 13
f 13 25 26
f 13 26 27
f 13 27 28
f 13 28 14
f 14 28 47
f 14 47 29
f 15 16 30
f 15 30 19
f 16 31 32
f 16 32 33
f 16 33 34
f 16 34 30
f 16 35 31
f 17 20 18
f 18 20 36
f 18 36 37
f 18 37 21
f 19 30 20
f 20 30 38
f 20 38 39
f 20 39 36
f 21 37 40
f 21 40 41
f 21 41 22
f 22 41 23
f 23 41 24
f 24 41 25
f 25 41 26
f 26 41 42
f 26 42 43
f 26 43 44
f 26 44 45
f 26 45 46
f 26 46 27
f 27 46 28
f 28 46 72
f 28 72 47
f 29 47 48
f 29 48 49
f 29 49 50
f 29 50 51
f 30 34 38
f 31 35 52
f 31 52 32
f 32 53 36
f 32 36 39
f 32 39 33
f 32 52 54
f 32 54 55
f 32 55 56
f 32 56 57
f 32 57 58
f 32 58 59
f 32 59 53
f 33 39 34
f 34 39 38
f 35 60 55
f 35 55 54
f 35 54 52
f 35 61 81
f 35 81 60
f 36 53 37
f 37 53 59
f 37 59 62
f 37 62 63
f 37 63 40
f 40 63 64
f 40 64 42
f 40 42 41
f 42 64 87
f 42 87 65
f 42 65 43
f 43 66 44
f 43 65 87
f 43 87 67
f 43 67 88
f 43 88 68
f 43 68 69
f 43 69 70
f 43 70 71
f 43 71 66
f 44 66 71
f 44 71 45
f 45 71 72
f 45 72 46
f 47 72 73
f 47 73 48
f 48 73 92
f 48 92 91
f 48 91 111
f 48 111 129
f 48 129 130
f 48 130 119
f 48 119 102
f 48 102 101
f 48 101 100
f 48 100 84
f 48 84 83
f 48 83 107
f 48 107 106
f 48 106 105
f 48 105 104
f 48 104 121
f 48 121 114
f 48 114 112
f 48 112 93
f 48 93 74
f 48 74 50
f 48 50 49
f 50 74 75
f 50 75 51
f 55 60 56
f 56 60 57
f 57 60 76
f 57 76 58
f 58 77 59
f 58 76 78
f 58 78 79
f 58 79 80
f 58 80 77
f 59 77 85
f 59 85 62
f 60 81 78
f 60 78 76
f 61 82 83
f 61 83 84
f 61 84 81
f 62 85 86
f 62 86 63
f 63 86 64
f 64 86 87
f 67 87 86
f 67 86 88
f 68 88 110
f 68 110 89
f 68 89 90
f 68 90 91
f 68 91 69
f 69 91 70
f 70 91 92
f 70 92 72
f 70 72 71
f 72 92 73
f 74 93 75
f 75 93 94
f 77 95 108
f 77 108 85
f 77 80 96
f 77 96 95
f 78 81 97
f 78 97 79
f 79 97 98
f 79 98 99
f 79 99 80
f 80 99 96
f 81 84 100
f 81 100 101
f 81 101 102
f 81 102 98
f 81 98 97
f 82 103 104
f 82 104 105
f 82 105 106
f 82 106 107
f 82 107 83
f 85 108 109
f 85 109 86
f 86 109 110
f 86 110 88
f 89 110 90
f 90 110 91
f 91 110 109
f 91 109 111
f 93 112 94
f 94 112 114
f 94 114 113
f 95 96 115
f 95 115 123
f 95 123 108
f 96 99 116
f 96 116 117
f 96 117 118
f 96 118 115
f 98 102 99
f 99 102 116
f 102 119 116
f 103 120 104
f 104 120 121
f 108 122 109
f 108 123 124
f 108 124 125
f 108 125 126
f 108 126 127
f 108 127 122
f 109 122 128
f 109 128 129
f 109 129 111
f 113 114 120
f 114 121 120
f 115 118 119
f 115 119 130
f 115 130 123
f 116 118 117
f 116 119 118
f 122 127 128
f 123 130 124
f 124 130 125
f 125 130 129
f 125 129 128
f 125 128 127
f 125 127 126

