# https://github.com/mikedh/trimesh
v -8.26821911 63.34278292 161.54542912
v -10.03034886 63.90864807 160.05630313
v -8.26821911 63.36361624 161.34562243
v -8.26821911 63.49552898 163.88278992
v -10.31215563 63.82533060 161.54542912
v -29.20327819 69.14372825 160.00729506
v -18.59994101 66.41856910 159.95451653
v -8.26821911 63.73160042 159.93566621
v -20.39262550 66.60950563 160.10154272
v -8.26821911 63.52329884 164.19192412
v -20.30095732 66.62686278 163.46432622
v -30.66323397 69.33813305 163.09110211
v -41.02890383 72.05982393 162.06190895
v -20.55559862 66.56437863 161.54542912
v -41.13755389 72.02510964 160.29004000
v -41.13755389 72.02510964 160.21464069
v -39.80322215 71.87236357 160.07515345
v -37.15154054 71.60852623 159.89042663
v -18.59994101 68.05019632 159.45311459
v -8.26821911 63.84615602 159.90550649
v -30.76169253 69.31730763 160.15055276
v -21.21088033 67.00525967 164.28617178
v -8.26821911 63.97807666 166.89496713
v -8.82503832 64.20719576 167.37751876
v -23.90330818 68.15781538 166.84595807
v -39.67759811 72.37920889 166.80071947
v -39.23961256 71.82376040 164.19569261
v -40.56375676 72.18133187 164.19569261
v -41.75548653 74.26425284 172.14648802
v -42.04408368 73.97959008 169.49245308
v -42.19007492 73.72963767 166.84595807
v -42.24100871 73.50398684 164.19569261
v -30.80922915 69.30689492 161.54165866
v -41.91845965 73.10476059 161.32300165
v -41.55516830 73.35470905 159.98467428
v -39.80322215 73.35470905 159.59637229
v -37.15154054 73.35470905 159.36263541
v -26.55159658 70.70245071 159.32493675
v -23.89991102 70.69898244 159.21937772
v -15.94825545 68.05019632 159.40787500
v -8.26821911 65.38057689 159.69439040
v -8.26821911 64.32870369 168.76862564
v -27.78746186 69.40062510 168.02594788
v -17.42179002 66.68587866 168.36147233
v -38.15313567 72.11537155 167.65272475
v -39.80322215 72.92424072 169.49245308
v -41.42954426 74.49684810 174.28781160
v -41.56535189 76.92692784 182.74377744
v -41.81320675 76.58671746 180.09351272
v -42.51262398 76.00349912 172.14648802
v -42.80461434 76.00349912 169.49245308
v -42.95061348 75.96530865 166.84595807
v -42.95061348 75.95836816 166.80071947
v -42.95061348 75.76743163 164.19569261
v -42.95061348 76.00349912 162.92145515
v -42.86912495 76.00349912 161.54165866
v -42.95061348 78.80850352 159.44934413
v -42.95061348 79.12441230 159.28723611
v -42.95061348 81.30107135 158.58602945
v -42.95061348 81.79750001 158.46916101
v -39.80322215 76.00349912 159.07989048
v -34.49985498 73.35470905 159.24576698
v -29.20327819 73.35470905 159.05350121
v -39.80322215 83.94985747 158.01299865
v -41.46349617 87.83451283 157.55306583
v -39.80322215 87.69217947 157.53421748
v -38.42135773 87.70259613 157.53798596
v -38.42135773 87.97337396 157.53798596
v -8.26821911 65.62706103 159.69816086
v -8.26821911 64.47798149 169.52261280
v -36.38421555 71.87930406 168.88172361
v -13.29996706 65.81798966 169.49245308
v -23.89991102 68.67506945 169.57539133
v -35.69158475 72.06329615 170.64605362
v -39.80322215 73.49010191 172.14648802
v -41.07304329 74.70514178 176.05591157
v -41.30052305 77.19076518 184.50810745
v -41.20206054 79.90203940 192.24024585
v -41.37522120 79.65903143 190.69834233
v -42.95061348 84.31089721 187.45242726
v -42.95061348 76.00349912 167.05707515
v -42.95061348 76.46521348 161.54165866
v -42.95061348 83.94985747 158.12609662
v -42.39039710 86.81388171 157.72271279
v -42.95061348 86.76875075 157.75287251
v -42.95061348 87.31031036 157.73025371
v -41.46349617 87.96642952 157.55306583
v -39.80322215 87.99420333 157.53421748
v -42.95061348 89.69178692 158.62372811
v -42.95061348 90.77143787 159.55867164
v -37.92565196 90.72630692 160.01483401
v -36.15673183 90.39998147 160.37674871
v -8.26821911 67.28992638 160.04122327
v -8.26821911 67.15453746 159.96959442
v -8.26821911 64.98134668 171.87505248
v -14.96363430 66.63380722 171.23793276
v -25.32930811 69.34855366 170.94387842
v -37.15154054 72.77843514 172.14648802
v -33.20626947 72.01816520 173.50743517
v -40.03409908 74.18787981 175.02294894
v -32.47289639 72.21604616 175.27553465
v -30.70736948 71.97997868 176.30472732
v -39.30412316 74.45866159 176.94184654
v -38.42135773 74.69472512 178.70994626
v -39.80322215 76.17013011 182.74377744
v -39.74889909 76.96164213 185.39027245
v -39.63685582 79.67291635 193.21288904
v -38.64544428 79.92634099 194.81134155
v -39.65382980 81.21080944 196.04788034
v -41.16131825 82.52999615 196.04788034
v -42.95061348 87.35891354 193.85377921
v -42.95061348 87.10896113 193.45039538
v -42.95061348 89.27867574 158.37868184
v -42.95061348 90.79226724 159.57752196
v -37.08363277 91.09776332 161.37201169
v -35.39959439 90.96931489 162.14861964
v -8.26821911 69.99078789 162.55954241
v -8.26821911 69.83803788 162.33711495
v -8.26821911 68.62299801 161.14581574
v -8.26821911 68.48066466 161.01009896
v -8.26821911 65.04037046 172.14648802
v -14.24384395 66.82821202 173.00603323
v -22.84399283 69.30341875 173.79394959
v -24.61291295 69.53948624 172.70820842
v -23.89991102 69.73736326 174.47630839
v -34.25539728 72.53195495 174.55547668
v -22.10722258 69.50129972 175.56205005
v -11.74155272 66.78655328 175.84479499
v -9.97602580 66.55048975 176.77596905
v -37.38241352 74.13580836 177.67321391
v -37.38241352 74.84747514 180.32347864
v -35.76627895 74.69472512 181.36021099
v -25.40739947 71.97997868 181.58640743
v -23.89991102 71.91749058 182.77770713
v -24.46012739 72.23340331 183.35450691
v -33.05687712 74.71208227 183.95769694
v -31.28795699 74.47254652 184.70791414
v -37.77626356 77.51709062 188.78321469
v -36.99535781 77.90243195 190.51361550
v -37.15154054 78.97513846 193.34860680
v -37.15154054 79.98188465 196.04788034
v -37.66082312 80.12421800 196.04788034
v -41.16131825 82.75217476 196.04788034
v -42.95061348 89.19188605 195.00360929
v -42.95061348 88.82042965 194.88297040
v -37.15154054 91.89968805 164.19569261
v -42.95061348 98.57546287 188.71158584
v -36.09222518 98.65878035 188.96794152
v -35.15173953 98.65878035 188.96794152
v -8.26821911 71.65365719 166.62730205
v -8.26821911 70.96629200 164.48974892
v -8.26821911 70.84825629 164.16553288
v -34.36065017 98.10333581 188.06692718
v -33.42695886 98.44701840 190.69834233
v -29.35946092 97.03409756 196.04788034
v -8.26821911 65.62706103 174.80806288
v -12.47831901 66.59214848 174.07669502
v -8.26821911 66.29012463 177.50356670
v -8.26821911 66.94971205 179.96533488
v -13.29996706 68.33138686 180.09351272
v -31.85156658 73.30263761 180.09351272
v -16.80385541 69.50129972 180.94928821
v -15.03833047 69.26523619 181.80883342
v -14.09445358 69.51865687 183.57316342
v -22.69120331 71.99733978 184.16504356
v -23.89991102 72.64998672 185.20177615
v -29.29155315 74.19482425 185.51468082
v -12.32553345 69.28259334 184.36484975
v -27.41058975 74.80234418 188.98302138
v -36.00734343 77.28102314 189.51081259
v -23.89991102 73.55953051 188.04430739
v -33.07385505 77.35740012 191.94242105
v -30.07585607 77.44765808 194.34764024
v -26.24602150 77.05884453 196.04788034
v -40.75728461 89.22312812 196.04788034
v -42.95061348 91.04221570 194.86035159
v -42.95061348 98.64489542 189.16774820
v -36.30612418 98.80805814 190.69834233
v -34.75110305 98.80805814 190.69834233
v -8.26821911 80.32209502 194.92067104
v -31.85496375 97.86727227 196.04788034
v -23.89991102 91.25745382 196.04788034
v -8.26821911 67.01567238 180.21038066
v -8.26821911 67.72039471 182.74377744
v -15.94825545 70.58095067 185.39404192
v -11.26961131 69.56378783 186.13295021
v -8.26821911 68.44247419 185.12637684
v -8.26821911 68.52232339 185.38273252
v -17.04831310 72.08759774 189.17905761
v -25.64166962 74.56628065 189.69176896
v -23.89991102 74.39617348 190.53623529
v -8.44816620 69.60891878 188.63618752
v -24.47710137 74.87871721 191.45609896
v -14.10803434 72.16397077 191.63328586
v -22.70818124 74.64265368 192.11583748
v -8.26821911 71.22665712 193.33352694
v -15.90751316 73.86502658 194.92067104
v -12.34250940 71.92790724 192.28548544
v -23.89991102 76.41313808 195.99887227
v -23.90330818 76.43396745 196.04788034
v -8.30896140 71.83070484 194.92067104
v -39.53500009 91.18454906 196.04788034
v -42.95061348 97.77701036 192.28925491
v -42.95061348 98.63101049 190.69834233
v -36.20087129 98.76639940 192.25532571
v -35.06686173 98.76639940 192.25532571
v -8.26821911 71.82028818 194.92067104
v -32.17411564 97.64508972 196.04788034
v -23.89991102 80.12769022 196.04788034
v -8.26821911 69.50129972 188.44392076
v -8.26821911 70.19213713 190.47968532
v -15.27939297 71.85153420 189.86518638
v -8.26821911 69.71653389 189.09611935
v -33.64425502 96.59668479 196.04788034
f 1 2 3
f 1 3 8
f 1 8 20
f 1 20 41
f 1 41 69
f 1 69 94
f 1 94 93
f 1 93 120
f 1 120 119
f 1 119 118
f 1 118 117
f 1 117 152
f 1 152 151
f 1 151 150
f 1 150 180
f 1 180 207
f 1 207 196
f 1 196 211
f 1 211 213
f 1 213 210
f 1 210 188
f 1 188 187
f 1 187 184
f 1 184 183
f 1 183 159
f 1 159 158
f 1 158 156
f 1 156 121
f 1 121 95
f 1 95 70
f 1 70 42
f 1 42 23
f 1 23 10
f 1 10 4
f 1 4 5
f 1 5 2
f 2 6 7
f 2 7 8
f 2 8 3
f 2 5 9
f 2 9 6
f 4 10 11
f 4 11 5
f 5 11 12
f 5 12 13
f 5 13 14
f 5 14 15
f 5 15 16
f 5 16 9
f 6 9 17
f 6 17 18
f 6 18 7
f 7 18 19
f 7 19 8
f 8 19 20
f 9 16 21
f 9 21 17
f 10 22 12
f 10 12 11
f 10 23 24
f 10 24 22
f 12 22 25
f 12 25 26
f 12 26 27
f 12 27 28
f 12 28 13
f 13 28 29
f 13 29 30
f 13 30 31
f 13 31 32
f 13 32 15
f 13 15 33
f 13 33 14
f 14 33 15
f 15 32 16
f 16 32 34
f 16 34 35
f 16 35 36
f 16 36 17
f 16 17 21
f 17 36 18
f 18 36 37
f 18 37 19
f 19 37 38
f 19 38 39
f 19 39 40
f 19 40 20
f 20 40 41
f 22 24 25
f 23 42 24
f 24 43 25
f 24 42 44
f 24 44 43
f 25 43 45
f 25 45 26
f 26 28 27
f 26 45 46
f 26 46 28
f 28 46 47
f 28 47 29
f 29 47 48
f 29 48 30
f 30 48 49
f 30 49 50
f 30 50 51
f 30 51 31
f 31 51 52
f 31 52 53
f 31 53 32
f 32 53 54
f 32 54 55
f 32 55 56
f 32 56 34
f 34 56 35
f 35 56 57
f 35 57 58
f 35 58 59
f 35 59 60
f 35 60 36
f 36 60 61
f 36 61 37
f 37 61 62
f 37 62 38
f 38 62 39
f 39 62 61
f 39 61 63
f 39 63 64
f 39 64 65
f 39 65 66
f 39 66 40
f 40 66 67
f 40 67 41
f 41 67 68
f 41 68 69
f 42 70 44
f 43 44 71
f 43 71 45
f 44 72 73
f 44 73 71
f 44 70 72
f 45 71 46
f 46 71 73
f 46 73 74
f 46 74 75
f 46 75 76
f 46 76 47
f 47 76 77
f 47 77 48
f 48 77 78
f 48 78 79
f 48 79 49
f 49 79 80
f 49 80 51
f 49 51 50
f 51 81 52
f 51 80 81
f 52 81 80
f 52 80 112
f 52 112 111
f 52 111 145
f 52 145 144
f 52 144 176
f 52 176 203
f 52 203 204
f 52 204 177
f 52 177 147
f 52 147 114
f 52 114 90
f 52 90 89
f 52 89 113
f 52 113 86
f 52 86 85
f 52 85 83
f 52 83 60
f 52 60 59
f 52 59 58
f 52 58 57
f 52 57 82
f 52 82 55
f 52 55 54
f 52 54 53
f 55 82 56
f 56 82 57
f 60 83 61
f 61 83 63
f 63 83 64
f 64 83 84
f 64 84 65
f 65 84 85
f 65 85 86
f 65 86 87
f 65 87 88
f 65 88 66
f 66 88 68
f 66 68 67
f 68 88 89
f 68 89 90
f 68 90 91
f 68 91 92
f 68 92 93
f 68 93 94
f 68 94 69
f 70 95 96
f 70 96 72
f 72 96 73
f 73 96 97
f 73 97 74
f 74 97 98
f 74 98 75
f 75 98 99
f 75 99 100
f 75 100 76
f 76 100 101
f 76 101 102
f 76 102 103
f 76 103 104
f 76 104 105
f 76 105 77
f 77 105 106
f 77 106 107
f 77 107 78
f 78 107 108
f 78 108 109
f 78 109 110
f 78 110 111
f 78 111 112
f 78 112 79
f 79 112 80
f 83 85 84
f 86 113 87
f 87 113 89
f 87 89 88
f 90 114 91
f 91 115 92
f 91 114 115
f 92 115 116
f 92 116 117
f 92 117 118
f 92 118 119
f 92 119 120
f 92 120 93
f 95 121 96
f 96 121 122
f 96 122 123
f 96 123 124
f 96 124 98
f 96 98 97
f 98 124 99
f 99 123 125
f 99 125 126
f 99 126 100
f 99 124 123
f 100 126 101
f 101 127 102
f 101 126 125
f 101 125 127
f 102 127 128
f 102 128 129
f 102 129 130
f 102 130 103
f 103 130 104
f 104 130 131
f 104 131 105
f 105 131 132
f 105 132 133
f 105 133 134
f 105 134 135
f 105 135 136
f 105 136 106
f 106 136 137
f 106 137 138
f 106 138 107
f 107 138 108
f 108 138 139
f 108 139 140
f 108 140 141
f 108 141 142
f 108 142 109
f 109 142 141
f 109 141 174
f 109 174 200
f 109 200 209
f 109 209 182
f 109 182 155
f 109 155 181
f 109 181 208
f 109 208 214
f 109 214 202
f 109 202 175
f 109 175 143
f 109 143 110
f 110 143 144
f 110 144 145
f 110 145 111
f 114 146 115
f 114 147 148
f 114 148 149
f 114 149 146
f 115 146 149
f 115 149 116
f 116 150 151
f 116 151 152
f 116 152 117
f 116 149 153
f 116 153 154
f 116 154 155
f 116 155 150
f 121 156 122
f 122 156 157
f 122 157 123
f 123 157 156
f 123 156 128
f 123 128 125
f 125 128 127
f 128 156 129
f 129 158 159
f 129 159 160
f 129 160 161
f 129 161 130
f 129 156 158
f 130 161 131
f 131 161 132
f 132 161 162
f 132 162 133
f 133 162 163
f 133 163 134
f 134 164 135
f 134 163 164
f 135 164 136
f 136 164 165
f 136 165 137
f 137 166 167
f 137 167 138
f 137 165 168
f 137 168 166
f 138 169 170
f 138 170 139
f 138 167 171
f 138 171 169
f 139 170 172
f 139 172 140
f 140 173 141
f 140 172 173
f 141 173 174
f 143 175 144
f 144 175 176
f 147 177 148
f 148 177 178
f 148 178 179
f 148 179 149
f 149 179 154
f 149 154 153
f 150 155 180
f 154 179 181
f 154 181 155
f 155 182 180
f 159 183 160
f 160 183 162
f 160 162 161
f 162 183 163
f 163 183 184
f 163 184 164
f 164 184 168
f 164 168 165
f 166 168 185
f 166 185 186
f 166 186 171
f 166 171 167
f 168 184 187
f 168 187 188
f 168 188 186
f 168 186 185
f 169 189 170
f 169 171 189
f 170 189 190
f 170 190 191
f 170 191 172
f 171 186 192
f 171 192 189
f 172 191 193
f 172 193 194
f 172 194 195
f 172 195 173
f 173 196 197
f 173 197 174
f 173 195 198
f 173 198 196
f 174 199 200
f 174 197 201
f 174 201 199
f 175 202 176
f 176 202 203
f 177 204 178
f 178 204 205
f 178 205 206
f 178 206 179
f 179 206 181
f 180 182 209
f 180 209 207
f 181 205 204
f 181 204 203
f 181 203 208
f 181 206 205
f 186 188 192
f 188 210 192
f 189 211 212
f 189 212 190
f 189 192 213
f 189 213 211
f 190 212 191
f 191 212 211
f 191 211 194
f 191 194 193
f 192 210 213
f 194 198 195
f 194 211 198
f 196 207 201
f 196 201 197
f 196 198 211
f 199 201 200
f 200 201 207
f 200 207 209
f 202 214 203
f 203 214 208

