# https://github.com/mikedh/trimesh
v -23.89571986 107.21784524 220.13202538
v -23.89571986 90.70248330 194.92179783
v -23.89571986 88.28374063 220.13202538
v -8.26482589 94.17119518 220.13202538
v -8.26482589 80.32060975 194.92179783
v -23.89571986 76.00984313 194.92179783
v -23.89571986 87.62188184 219.04365635
v -13.29762064 84.87394192 219.19913595
v -18.27532995 86.77635883 220.13202538
v -8.26482589 84.09426073 220.13202538
v -8.26482589 71.82035928 194.92179783
v -18.05345156 74.44008383 194.92179783
v -23.89571986 76.41181082 196.00276519
v -23.89571986 86.56151573 217.20749209
v -18.59820095 85.58431698 217.99970725
v -16.95477648 85.36600562 218.38470886
v -15.18893553 85.13036870 218.78205087
v -8.26482589 83.93485859 219.87042385
v -8.26482589 84.08386382 220.11722006
v -15.69083915 86.08331326 220.13202538
v -8.26482589 82.87449248 218.10336426
v -13.29762064 85.44224039 220.13202538
v -8.26482589 71.83075619 194.95635017
v -8.30766969 71.83075619 194.92179783
v -8.40407217 71.85501432 194.92179783
v -8.26482589 71.87580419 195.07727940
v -8.26482589 72.27430756 196.13850369
v -15.87293120 74.27028873 196.02497712
v -23.89571986 77.11872156 197.82165328
v -8.26482589 72.37826479 196.41491549
v -16.70535537 74.83165856 196.92331520
v -23.89571986 85.54619762 215.39600863
v -22.35787812 85.33828316 215.77360758
v -20.59050647 85.10264625 216.20303306
v -10.64733148 83.19329676 217.53819830
v -8.26482589 82.12600201 216.77806661
v -23.89571986 77.68355570 199.14694896
v -14.93951442 74.59255733 197.52796631
v -8.26482589 73.29655431 198.67063074
v -23.89571986 84.82196133 214.07071295
v -17.32355267 82.61460138 213.25628586
v -13.75973792 82.86063125 215.45770670
v -11.99236825 82.62499434 215.89206992
v -10.64733148 82.44480234 216.21290459
v -8.26482589 80.81267344 214.39895227
v -21.24696140 77.85335080 201.20275975
v -23.89571986 78.60877781 201.30394790
v -9.99547063 74.49552874 200.40067307
v -8.26482589 74.33613055 201.10897822
v -23.89571986 83.53981954 211.68912974
v -21.24849012 83.14131617 212.27650566
v -19.09092235 82.85370262 212.81945574
v -8.26482589 80.45228548 213.74000674
v -8.72541247 80.13694948 212.93545118
v -17.18124500 77.35089415 202.57247930
v -8.58310480 74.87324224 202.16773265
v -23.89571986 79.57904397 203.52264490
v -8.26482589 74.63414101 201.80494298
v -23.89571986 83.26606721 211.16345386
v -22.62260031 82.61806570 210.60322761
v -21.24849012 82.43094111 210.95120998
v -8.26482589 79.73498179 212.40977530
v -10.64733148 79.68646947 211.13137039
v -8.26482589 79.45083255 211.87916365
v -15.41540404 77.11525724 203.10555982
v -8.26482589 75.08115670 202.82174241
v -8.26482589 75.50391821 203.77684377
v -23.89571986 80.17506884 204.84794058
v -23.89571986 82.43094111 209.52225927
v -14.02446208 80.14041380 210.25030749
v -12.25709240 79.90131256 210.72415684
v -8.26482589 78.05087230 209.12491725
v -13.92959030 77.51376061 204.87261941
v -10.64733148 76.22122191 203.95453728
v -8.26482589 76.81724283 206.59032134
v -10.64733148 77.07367356 205.80304195
v -12.16222062 77.27812370 205.38595489
v -22.52772852 79.99140857 205.25268526
v -23.89571986 81.03098086 206.64214787
v -23.89571986 82.20570110 209.06075032
v -8.26482589 77.92612126 208.87071838
v -19.15977817 80.18199748 207.50840347
v -13.14613272 78.03354676 206.40275630
v -21.48566761 80.37258639 206.61746904
f 1 2 6
f 1 6 13
f 1 13 29
f 1 29 37
f 1 37 47
f 1 47 57
f 1 57 68
f 1 68 79
f 1 79 80
f 1 80 69
f 1 69 59
f 1 59 50
f 1 50 40
f 1 40 32
f 1 32 14
f 1 14 7
f 1 7 3
f 1 3 9
f 1 9 20
f 1 20 22
f 1 22 10
f 1 10 4
f 1 4 5
f 1 5 2
f 2 5 11
f 2 11 24
f 2 24 25
f 2 25 12
f 2 12 6
f 3 7 8
f 3 8 9
f 4 10 19
f 4 19 18
f 4 18 21
f 4 21 36
f 4 36 45
f 4 45 53
f 4 53 62
f 4 62 64
f 4 64 72
f 4 72 81
f 4 81 75
f 4 75 67
f 4 67 66
f 4 66 58
f 4 58 49
f 4 49 39
f 4 39 30
f 4 30 27
f 4 27 26
f 4 26 23
f 4 23 11
f 4 11 5
f 6 12 13
f 7 14 15
f 7 15 16
f 7 16 17
f 7 17 8
f 8 18 19
f 8 19 20
f 8 20 9
f 8 17 21
f 8 21 18
f 10 22 19
f 11 23 24
f 12 25 26
f 12 26 27
f 12 27 28
f 12 28 13
f 13 28 30
f 13 30 31
f 13 31 29
f 14 32 33
f 14 33 34
f 14 34 15
f 15 34 35
f 15 35 21
f 15 21 16
f 16 21 17
f 19 22 20
f 21 35 44
f 21 44 36
f 23 25 24
f 23 26 25
f 27 30 28
f 29 31 38
f 29 38 37
f 30 39 38
f 30 38 31
f 32 40 33
f 33 40 41
f 33 41 42
f 33 42 43
f 33 43 34
f 34 43 44
f 34 44 35
f 36 44 45
f 37 46 47
f 37 38 48
f 37 48 46
f 38 39 48
f 39 49 48
f 40 50 51
f 40 51 52
f 40 52 41
f 41 53 42
f 41 52 54
f 41 54 53
f 42 53 43
f 43 53 45
f 43 45 44
f 46 55 47
f 46 48 56
f 46 56 55
f 47 55 57
f 48 49 56
f 49 58 56
f 50 59 60
f 50 60 61
f 50 61 51
f 51 61 52
f 52 61 54
f 53 54 62
f 54 63 64
f 54 64 62
f 54 61 63
f 55 65 57
f 55 56 65
f 56 58 66
f 56 66 67
f 56 67 65
f 57 65 68
f 59 69 60
f 60 69 70
f 60 70 71
f 60 71 61
f 61 71 63
f 63 71 72
f 63 72 64
f 65 73 68
f 65 67 74
f 65 74 73
f 67 75 76
f 67 76 77
f 67 77 73
f 67 73 74
f 68 73 78
f 68 78 79
f 69 80 70
f 70 81 72
f 70 72 71
f 70 80 81
f 73 77 78
f 75 81 82
f 75 82 83
f 75 83 76
f 76 83 78
f 76 78 77
f 78 84 79
f 78 83 84
f 79 84 80
f 80 84 82
f 80 82 81
f 82 84 83

