# https://github.com/mikedh/trimesh
v -42.30842665 219.18226587 133.80222029
v -40.83632797 224.67761637 133.80222029
v -36.18399606 219.18226587 133.80222029
v -42.30842665 219.18226587 182.74313258
v -36.78378547 239.79741462 142.98654544
v -40.18522951 227.10542079 133.80222029
v -40.83632797 224.67761637 182.74313258
v -34.44279444 225.68062568 133.80222029
v -30.65935488 239.79741462 142.98654544
v -36.18399606 219.18226587 182.74313258
v -42.21948410 219.18226587 185.39357185
v -41.17043135 223.27703594 184.27648887
v -36.29574307 239.79741462 140.58376154
v -38.79979412 231.94286665 133.80222029
v -39.47483865 229.75320356 133.80222029
v -36.78378547 239.79741462 177.44225600
v -40.18522951 227.10542079 182.74313258
v -37.34365817 237.70663276 180.09269528
v -33.44277148 229.41415850 133.80222029
v -33.08928451 230.73804988 133.80222029
v -33.08928451 231.33339927 133.80222029
v -31.63999424 239.79741462 140.24652961
v -30.65935488 239.79741462 177.44225600
v -31.93076400 235.05482080 180.09269528
v -34.77233534 224.45360883 182.74313258
v -36.48274916 219.18226587 185.33034111
v -42.21264237 219.18226587 185.41991964
v -41.32094555 220.97839493 186.90058233
v -38.66182178 231.59171819 184.27121931
v -38.77584805 232.05991877 182.74313258
v -39.45089258 229.75320356 182.74313258
v -34.62752126 239.79741462 139.33494357
v -37.20454423 233.26474343 133.80222029
v -38.08939931 232.54830483 133.80222029
v -36.78036460 239.79741462 180.09269528
v -34.57278739 232.77837197 133.80222029
v -31.67648218 239.79741462 140.15168153
v -30.69926368 239.79741462 180.09269528
v -33.11893071 230.85106490 182.20039976
v -34.10869501 227.10542079 182.74313258
v -33.44162987 229.88236697 182.94863544
v -35.59561481 222.25384905 184.69802977
v -36.49643263 219.18226587 185.39357185
v -41.63110286 219.18226587 187.18512263
v -39.80323795 219.18226587 187.63300934
v -39.61166939 221.83811493 186.96381307
v -36.23872994 234.23747846 184.17637320
v -34.50437005 239.79741462 182.80109573
v -36.30486802 239.79741462 182.04232093
v -36.46450717 239.79741462 181.55754930
v -35.90805138 233.03467629 133.80222029
v -30.70610542 239.79741462 180.16646316
v -33.20331473 231.42421421 183.96560276
v -37.62530693 219.18226587 187.14823771
v -37.64469448 219.18226587 187.16404440
v -37.92862250 221.80380356 186.89004322
v -38.32543914 223.22254698 186.73723395
v -38.59796296 223.22254698 186.73723395
v -34.50437005 237.70663276 183.34909811
v -34.50437005 235.49275499 183.86021753
v -32.29793444 239.79741462 182.33740035
v -31.79621253 239.79741462 182.12136035
v -33.16340198 233.19209148 184.08152709
v -33.16340198 233.80761846 184.08152709
v -34.50437005 234.16886361 184.16056453
f 1 2 6
f 1 6 15
f 1 15 14
f 1 14 34
f 1 34 33
f 1 33 51
f 1 51 36
f 1 36 21
f 1 21 20
f 1 20 19
f 1 19 8
f 1 8 3
f 1 3 10
f 1 10 26
f 1 26 43
f 1 43 54
f 1 54 55
f 1 55 45
f 1 45 44
f 1 44 27
f 1 27 11
f 1 11 4
f 1 4 7
f 1 7 2
f 2 5 6
f 2 7 16
f 2 16 5
f 3 8 9
f 3 9 23
f 3 23 10
f 4 11 12
f 4 12 7
f 5 13 14
f 5 14 15
f 5 15 6
f 5 16 35
f 5 35 50
f 5 50 49
f 5 49 48
f 5 48 61
f 5 61 62
f 5 62 52
f 5 52 38
f 5 38 23
f 5 23 9
f 5 9 22
f 5 22 37
f 5 37 32
f 5 32 13
f 7 12 17
f 7 17 18
f 7 18 16
f 8 19 9
f 9 19 20
f 9 20 21
f 9 21 22
f 10 23 24
f 10 24 25
f 10 25 26
f 11 27 28
f 11 28 29
f 11 29 12
f 12 29 30
f 12 30 31
f 12 31 17
f 13 32 33
f 13 33 34
f 13 34 14
f 16 18 35
f 17 31 35
f 17 35 18
f 21 36 37
f 21 37 22
f 23 38 24
f 24 38 25
f 25 38 39
f 25 39 40
f 25 40 41
f 25 41 42
f 25 42 26
f 26 42 43
f 27 44 28
f 28 44 45
f 28 45 46
f 28 46 47
f 28 47 29
f 29 47 48
f 29 48 49
f 29 49 50
f 29 50 35
f 29 35 30
f 30 35 31
f 32 37 36
f 32 36 51
f 32 51 33
f 38 52 39
f 39 52 41
f 39 41 40
f 41 52 53
f 41 53 42
f 42 53 43
f 43 53 54
f 45 55 56
f 45 56 57
f 45 57 58
f 45 58 47
f 45 47 46
f 47 59 48
f 47 58 57
f 47 57 60
f 47 60 59
f 48 59 61
f 52 62 63
f 52 63 53
f 53 63 54
f 54 63 55
f 55 63 64
f 55 64 56
f 56 64 57
f 57 64 65
f 57 65 60
f 59 60 64
f 59 64 61
f 60 65 64
f 61 64 62
f 62 64 63

