# https://github.com/mikedh/trimesh
v -71.22269784 88.41496999 100.57954470
v -71.22269784 88.42071752 97.92221826
v -63.89313842 115.76780888 89.97541749
v -55.47863479 147.13247565 98.36301240
v -71.22269784 88.41496999 211.89775721
v -71.22269784 89.25986887 97.36808519
v -64.74229561 113.69292458 88.13669745
v -64.61901009 113.31933113 89.97541749
v -62.26572210 122.11316192 88.45154363
v -63.18422888 118.41170664 89.97541749
v -56.08121303 144.91964863 89.97541749
v -55.48941882 147.13247565 89.97541749
v -55.48941882 147.13247565 198.64888887
v -56.08121303 144.91964863 198.64888887
v -64.97346090 111.73299287 206.59568965
v -67.71973779 101.48501703 209.25302004
v -70.46600677 91.23704317 211.89775721
v -71.22269784 88.44370764 212.71636755
v -71.22269784 92.04745292 95.66789842
v -66.37896328 112.93424064 87.84702979
v -66.31423541 115.76780888 86.63801792
v -64.44178073 115.76780888 87.74628407
v -62.05150314 123.71674277 88.07372347
v -59.55181310 132.48183689 88.31301036
v -56.83790410 142.85051186 88.21226464
v -56.56049785 144.91964863 87.80925015
v -56.26460469 147.13247565 87.63293723
v -55.49096729 147.13247565 199.08967906
v -56.08275361 144.91964863 201.29362604
v -57.09218593 141.14922101 201.29362604
v -63.18422888 118.41170664 206.59568965
v -62.23027307 121.97522019 206.59568965
v -69.57678672 94.55915944 211.89775721
v -68.87403158 97.20880275 211.89775721
v -70.17165418 92.78889625 213.72388403
v -71.22269784 89.05295381 214.55508759
v -71.22269784 94.55915944 95.08857101
v -70.31806414 114.35390050 88.56489047
v -68.75382721 113.33082619 88.09890990
v -69.10520478 115.56664333 87.70850443
v -66.31423541 118.41170664 86.51206997
v -63.66351370 126.36638805 86.57504395
v -58.36361085 144.91964863 86.68839078
v -61.01433256 134.32106946 86.80172972
v -61.69704442 126.36638805 87.68331799
v -59.30523416 134.32106946 87.92259699
v -58.95077544 136.97071475 87.63293723
v -58.36361085 147.13247565 86.54984961
v -55.61579339 147.13247565 201.29362604
v -56.83790410 142.85051186 202.99381282
v -62.26726268 122.11316192 208.04400026
v -64.98733398 111.78472065 210.57539060
v -71.22269784 89.16216084 214.61805762
v -67.62419052 103.70933911 213.24531420
v -71.22269784 97.20880275 94.77372483
v -70.31806414 114.54357099 88.56489047
v -71.22269784 99.86419359 94.74853840
v -68.47333981 118.41170664 87.59514969
v -66.31423541 121.06135094 86.68839078
v -63.66351370 129.01603235 86.53725640
v -61.01433256 136.97071475 86.53725640
v -61.01433256 139.62035806 86.57504395
v -61.01433256 142.27000335 86.94027089
v -60.68761210 147.13247565 87.58255647
v -55.69593491 147.13247565 201.62106939
v -56.56203843 144.91964863 203.23309576
v -64.88870556 113.11816557 210.67614027
v -59.32681011 134.32106946 205.71411323
v -62.10235792 123.71674277 208.19512675
v -71.22269784 91.11634502 215.13441105
v -67.62419052 103.99671960 213.24531420
v -71.22269784 95.07644116 215.17219070
v -56.38943869 147.13247565 203.19531611
v -70.33192932 114.59529877 89.97541749
v -69.97747060 115.92299419 89.97541749
v -61.61537023 147.13247565 89.97541749
v -62.41366473 143.87358420 88.45154363
v -65.12603316 133.50491021 88.31301036
v -67.84148273 123.13623623 88.21226464
v -68.11888899 121.06135094 87.80925015
v -71.22269784 102.49084678 94.97523207
v -71.22269784 107.81312747 95.54195836
v -71.22269784 110.50300547 96.99026503
v -71.22269784 111.27318448 97.92221826
v -63.66351370 131.66567764 86.80172972
v -65.72861140 129.01603235 87.63293723
v -62.98388299 139.62035806 87.68331799
v -62.62788370 142.27000335 88.07372347
v -71.22269784 97.66286559 214.92031454
v -59.18040016 136.97071475 205.68892285
v -62.01451353 126.36638805 208.19512675
v -64.85171596 115.76780888 210.70133065
v -64.93956035 117.24494406 210.60057703
v -56.69149415 147.13247565 203.34644259
v -69.97747060 115.92299419 206.59568965
v -61.61537023 147.13247565 198.64888887
v -65.37261211 131.66567764 87.92259699
v -71.22269784 111.27318448 206.59568965
v -71.22269784 100.26078112 214.46693114
v -59.39307855 139.62035806 205.43704274
v -62.15013156 128.25160186 208.04400026
v -66.31423541 117.49208986 210.66354705
v -59.62578442 141.04001595 205.28591626
v -58.36361085 147.13247565 203.88798640
v -71.22269784 111.23869929 209.29080363
v -68.59817381 121.06135094 206.59568965
v -65.19538275 133.76355206 203.95095248
v -62.45065434 144.01152691 201.29362604
v -62.06383564 145.33347480 201.29362604
v -61.53676929 147.13247565 201.29362604
v -67.83223928 117.47484726 210.65095384
v -71.22269784 102.82420949 213.82463765
v -63.66351370 128.66542902 208.14474994
v -61.01433256 139.62035806 205.65114320
v -58.81361684 147.13247565 203.77463957
v -62.37822360 141.04001595 205.29850947
v -61.01433256 141.08599817 205.31110269
v -71.22269784 111.00304658 209.65602663
v -70.27183108 114.42287087 210.42426016
v -70.62474132 113.37105891 209.41674369
v -67.94165963 123.49258709 206.59568965
v -62.41366473 143.87358420 202.81749595
v -60.81090552 147.13247565 202.88046598
v -71.22269784 104.71517083 213.33347066
v -60.60747848 147.13247565 203.30866295
v -70.55539173 112.65835718 210.91542716
v -71.22269784 109.72707894 210.73911030
v -70.86515797 110.46277276 211.30584054
f 1 2 3
f 1 3 4
f 1 4 17
f 1 17 5
f 1 5 18
f 1 18 36
f 1 36 53
f 1 53 70
f 1 70 72
f 1 72 89
f 1 89 99
f 1 99 112
f 1 112 124
f 1 124 127
f 1 127 118
f 1 118 105
f 1 105 98
f 1 98 84
f 1 84 83
f 1 83 82
f 1 82 81
f 1 81 57
f 1 57 55
f 1 55 37
f 1 37 19
f 1 19 6
f 1 6 2
f 2 6 7
f 2 7 8
f 2 8 3
f 3 8 7
f 3 7 9
f 3 9 10
f 3 10 4
f 4 10 11
f 4 11 12
f 4 12 27
f 4 27 48
f 4 48 64
f 4 64 76
f 4 76 96
f 4 96 110
f 4 110 123
f 4 123 125
f 4 125 115
f 4 115 104
f 4 104 94
f 4 94 73
f 4 73 65
f 4 65 49
f 4 49 28
f 4 28 13
f 4 13 14
f 4 14 15
f 4 15 16
f 4 16 17
f 5 17 18
f 6 19 7
f 7 20 21
f 7 21 22
f 7 22 23
f 7 23 9
f 7 19 20
f 9 23 24
f 9 24 12
f 9 12 11
f 9 11 10
f 12 24 25
f 12 25 26
f 12 26 27
f 13 28 29
f 13 29 14
f 14 29 30
f 14 30 31
f 14 31 15
f 15 31 16
f 16 31 17
f 17 31 32
f 17 32 33
f 17 33 18
f 18 33 34
f 18 34 35
f 18 35 36
f 19 37 38
f 19 38 39
f 19 39 21
f 19 21 20
f 21 39 40
f 21 40 41
f 21 41 42
f 21 42 43
f 21 43 44
f 21 44 22
f 22 44 45
f 22 45 26
f 22 26 46
f 22 46 23
f 23 46 24
f 24 46 25
f 25 46 26
f 26 45 47
f 26 47 43
f 26 43 27
f 27 43 48
f 28 49 29
f 29 49 50
f 29 50 51
f 29 51 52
f 29 52 32
f 29 32 31
f 29 31 30
f 32 52 33
f 33 52 34
f 34 52 35
f 35 52 36
f 36 52 54
f 36 54 53
f 37 55 38
f 38 56 40
f 38 40 39
f 38 55 57
f 38 57 56
f 40 58 59
f 40 59 41
f 40 56 58
f 41 59 60
f 41 60 48
f 41 48 61
f 41 61 42
f 42 61 43
f 43 61 48
f 43 47 45
f 43 45 44
f 48 60 62
f 48 62 63
f 48 63 64
f 49 65 50
f 50 65 66
f 50 66 51
f 51 66 52
f 52 67 54
f 52 66 68
f 52 68 69
f 52 69 67
f 53 54 70
f 54 71 72
f 54 72 70
f 54 67 69
f 54 69 68
f 54 68 73
f 54 73 71
f 56 74 75
f 56 75 76
f 56 76 77
f 56 77 78
f 56 78 79
f 56 79 80
f 56 80 58
f 56 57 81
f 56 81 82
f 56 82 83
f 56 83 84
f 56 84 74
f 58 80 59
f 59 85 62
f 59 62 60
f 59 80 86
f 59 86 87
f 59 87 85
f 62 85 63
f 63 85 87
f 63 87 64
f 64 87 88
f 64 88 77
f 64 77 76
f 65 73 66
f 66 73 68
f 71 89 72
f 71 73 90
f 71 90 91
f 71 91 92
f 71 92 93
f 71 93 89
f 73 94 90
f 74 84 75
f 75 84 98
f 75 98 95
f 75 95 96
f 75 96 76
f 77 88 78
f 78 88 79
f 79 88 97
f 79 97 80
f 80 97 87
f 80 87 86
f 87 97 88
f 89 93 99
f 90 100 101
f 90 101 93
f 90 93 91
f 90 94 100
f 91 93 92
f 93 102 99
f 93 101 103
f 93 103 102
f 94 104 103
f 94 103 100
f 95 98 105
f 95 105 106
f 95 106 107
f 95 107 108
f 95 108 96
f 96 108 109
f 96 109 110
f 99 102 111
f 99 111 112
f 100 103 101
f 102 113 111
f 102 103 113
f 103 114 113
f 103 104 114
f 104 115 116
f 104 116 117
f 104 117 114
f 105 118 119
f 105 119 120
f 105 120 121
f 105 121 106
f 106 121 107
f 107 122 108
f 107 121 122
f 108 122 109
f 109 122 110
f 110 122 123
f 111 124 112
f 111 113 116
f 111 116 124
f 113 114 116
f 114 117 116
f 115 125 116
f 116 119 126
f 116 126 124
f 116 125 122
f 116 122 119
f 118 127 126
f 118 126 119
f 119 121 120
f 119 122 121
f 122 125 123
f 124 126 128
f 124 128 127
f 126 127 128

