# https://github.com/mikedh/trimesh
v -23.89724859 117.18762676 230.52575741
v -23.89724859 118.43691085 231.67016783
v -17.60436992 151.98123486 260.63701214
v -16.81432539 151.98123486 260.63701214
v 11.19448058 137.55234413 269.28613353
v 11.19448058 117.18762676 254.58483453
v -23.89724859 117.18762676 255.67202245
v -23.89724859 119.18234090 232.37882455
v -23.89724859 120.97689285 234.10424516
v -23.89724859 122.94054762 236.07615780
v -23.89724859 125.64272849 239.02962231
v -22.91484349 133.70095891 246.94807650
v -20.18403951 144.02998814 255.28028181
v -22.75683577 149.11340264 268.70512334
v -17.86199361 152.34359594 262.27000612
v -15.93840565 152.43677506 262.22158466
v -14.08695216 151.97433189 263.07109736
v 11.19448058 139.50219446 270.76066947
v 11.19448058 117.18762676 262.48127825
v -22.67439524 117.18762676 255.98013750
v -23.89724859 118.21949420 256.63157173
v -23.89724859 128.59683787 242.89421463
v -23.89724859 129.06963351 243.55005333
v -23.70488999 147.57422869 270.22367234
v -22.89767200 149.26524904 270.22367234
v -22.82553357 149.17206991 272.03272643
v -17.76581431 152.13653274 264.92416450
v -15.83879166 152.27457421 265.11342615
v -14.08695216 151.97433189 264.36075638
v 9.43233701 141.01375951 271.45171624
v 11.19448058 139.83349615 272.20438601
v 11.19448058 117.82952522 263.00506594
v -12.08436232 117.18762676 258.48903939
v -21.24888119 117.18762676 256.33226561
v -22.66408919 119.71725530 258.31297929
v -23.89724859 118.40240196 256.79883080
v -23.89724859 146.97029257 270.22367234
v -23.36826244 147.69846720 272.89984119
v -23.11063875 146.90127184 274.81893186
v -21.24888119 148.40593492 273.40601892
v -21.24888119 149.21003226 272.08113999
v -17.48070913 151.70514994 266.49992810
v -16.65288101 151.70514994 266.49992810
v -14.88386805 151.48083033 266.12579742
v 9.43233701 141.01375951 271.70260880
v 11.19448058 139.89561541 272.75018418
v 11.19448058 119.15473202 264.05264922
v -12.43129394 117.18762676 258.42741638
v 11.19448058 121.05626704 265.50517469
v 11.19448058 122.19511756 266.37228156
v -18.59707712 117.18762676 256.97049039
v -21.24888119 118.20914074 257.26980442
v -23.89724859 120.71116139 258.56386394
v -23.89724859 118.90625698 257.24779394
v -23.89724859 118.49903158 256.88686481
v -14.00451361 117.18762676 258.06208673
v -21.24888119 119.53434853 258.44942685
v 10.55900908 125.43566530 268.62589827
v -16.91050469 133.09357192 268.83276988
v -18.59707712 133.32134203 268.67431184
v -23.89724859 135.35056660 269.10126450
v -23.89724859 134.02880974 268.16373359
v -23.89724859 146.45263361 271.70260880
v -23.89724859 145.99364192 272.88663175
v -23.24116498 144.92381312 274.81453134
v -21.24888119 144.92381312 275.46596557
v -21.24888119 147.08072713 275.05221446
v -23.89724859 145.51049381 273.45003988
v -23.89724859 144.92381312 273.52486443
v -18.53868340 148.18851728 272.74578367
v -19.38368696 149.04438091 271.77303284
v -18.59707712 146.75632642 274.80572241
v -16.45021833 146.46988904 274.49321474
v -15.83879166 150.88034569 267.45947738
v -13.29347294 150.13146514 267.57391447
v 1.34296586 143.61586077 271.57936277
v 7.90720699 141.27949146 272.16037296
v 11.19448058 138.78782452 274.77931142
v 11.19448058 123.60660250 267.41105591
v 11.19448058 125.35283963 268.68312077
v 11.19448058 125.61166911 268.86358138
v 11.19448058 127.13358762 269.92436621
v 10.55900908 128.66931058 270.87510657
v -11.92978731 135.65426003 271.54415075
v 3.81958381 127.66505153 268.92080388
v -22.29654743 138.37369690 271.50012980
v -23.89724859 136.96911467 270.15764881
v -23.89724859 142.72893726 273.08910284
v -23.89724859 140.13373847 272.04152746
v -22.92514954 143.28110758 274.40078023
v -21.24888119 142.94290342 274.61645287
v -18.59707712 142.58744382 274.84093443
v -13.29347294 142.27339705 275.36913054
v -2.69656866 139.62298148 275.42194462
v 7.90720699 136.96911467 275.46596557
v -10.64510554 142.27339705 275.48796815
v -18.59707712 144.92381312 275.44395510
v -7.99330345 142.27339705 275.40874308
v -2.69656866 141.96625276 275.11383747
v 7.90720699 139.22956053 275.09622751
v -10.64510554 144.36474033 275.01260192
v -14.68464006 146.22831400 274.17629866
v -13.29347294 146.90472233 272.56091463
v -13.29347294 148.22993012 270.51417743
v -0.04476558 141.61769514 274.94657840
v 10.55900908 138.87410093 274.87174594
v -7.99330345 144.00928123 274.71329580
v 2.60703651 141.26223603 274.60765184
v 4.27987116 141.04136790 274.33035619
v -8.07574201 146.93923319 270.34691836
v 6.04544942 140.80324484 273.97822808
v 7.90720699 140.55476831 273.48524400
v 11.19448058 136.96911467 275.42194462
v 11.19448058 128.58648491 270.93232906
v 10.55900908 129.99451836 271.78623438
v 8.80030119 130.22919044 271.62777634
v -1.56645992 132.94517626 271.58816380
v -0.04476558 132.74156356 271.72461137
v -10.16420905 135.41958783 271.70260880
v -20.53096916 138.13212260 271.65858785
v -21.34849321 139.40211335 272.33643307
v -21.24888119 141.61769514 273.77575699
v -23.89724859 138.80853093 271.28005665
v -4.79877447 138.08725878 274.33475670
v -16.00367074 139.79898579 273.51605550
v -7.99330345 139.84039862 274.89375641
v 5.25883959 136.96911467 275.25468555
v 7.90720699 135.06067737 274.57243982
v 10.55900908 134.70866907 274.79692138
v 10.55900908 136.96911467 275.46596557
v -0.04476558 139.62298148 275.48356763
v 11.19448058 134.57407760 274.81453134
v 2.60703651 139.62298148 275.35592110
v -10.64510554 145.68994910 273.33999540
v -5.25906083 144.42340860 273.06710027
v -7.24791388 146.09372302 271.31086816
v 11.19448058 129.91169269 271.84345688
v -7.99330345 135.12969863 271.89627096
v -18.59707712 137.87674410 271.83025533
v -18.59707712 139.62298148 272.95705579
v 3.80240936 135.60939627 274.22472013
v -7.99330345 136.96911467 273.08030181
v 10.55900908 131.67173452 272.86902969
v 11.19448058 133.29718462 274.00903959
v 11.19448058 131.72004933 273.00547725
v 11.19448058 132.17558953 273.29598235
f 1 2 3
f 1 3 4
f 1 4 5
f 1 5 6
f 1 6 19
f 1 19 33
f 1 33 48
f 1 48 56
f 1 56 51
f 1 51 34
f 1 34 20
f 1 20 7
f 1 7 21
f 1 21 36
f 1 36 55
f 1 55 54
f 1 54 53
f 1 53 62
f 1 62 61
f 1 61 87
f 1 87 123
f 1 123 89
f 1 89 88
f 1 88 69
f 1 69 68
f 1 68 64
f 1 64 63
f 1 63 37
f 1 37 23
f 1 23 22
f 1 22 11
f 1 11 10
f 1 10 9
f 1 9 8
f 1 8 2
f 2 8 3
f 3 8 9
f 3 9 10
f 3 10 11
f 3 11 12
f 3 12 13
f 3 13 14
f 3 14 15
f 3 15 16
f 3 16 4
f 4 16 17
f 4 17 18
f 4 18 5
f 5 18 31
f 5 31 46
f 5 46 78
f 5 78 113
f 5 113 132
f 5 132 144
f 5 144 146
f 5 146 145
f 5 145 137
f 5 137 114
f 5 114 82
f 5 82 81
f 5 81 80
f 5 80 79
f 5 79 50
f 5 50 49
f 5 49 47
f 5 47 32
f 5 32 19
f 5 19 6
f 7 20 21
f 11 22 12
f 12 22 23
f 12 23 14
f 12 14 13
f 14 24 25
f 14 25 15
f 14 23 24
f 15 25 26
f 15 26 27
f 15 27 28
f 15 28 16
f 16 28 29
f 16 29 17
f 17 29 45
f 17 45 30
f 17 30 18
f 18 30 31
f 19 32 33
f 20 34 21
f 21 34 35
f 21 35 36
f 23 37 24
f 24 37 38
f 24 38 26
f 24 26 25
f 26 38 39
f 26 39 40
f 26 40 41
f 26 41 42
f 26 42 27
f 27 42 28
f 28 42 43
f 28 43 44
f 28 44 45
f 28 45 29
f 30 45 46
f 30 46 31
f 32 47 33
f 33 47 49
f 33 49 50
f 33 50 48
f 34 51 52
f 34 52 35
f 35 53 54
f 35 54 55
f 35 55 36
f 35 52 51
f 35 51 56
f 35 56 48
f 35 48 57
f 35 57 58
f 35 58 59
f 35 59 60
f 35 60 61
f 35 61 62
f 35 62 53
f 37 63 38
f 38 63 64
f 38 64 39
f 39 65 66
f 39 66 67
f 39 67 40
f 39 64 68
f 39 68 69
f 39 69 65
f 40 70 71
f 40 71 41
f 40 67 72
f 40 72 73
f 40 73 70
f 41 71 43
f 41 43 42
f 43 71 74
f 43 74 44
f 44 74 75
f 44 75 76
f 44 76 77
f 44 77 45
f 45 77 46
f 46 77 78
f 48 50 79
f 48 79 80
f 48 80 58
f 48 58 57
f 58 80 81
f 58 81 82
f 58 82 83
f 58 83 84
f 58 84 85
f 58 85 61
f 58 61 59
f 59 61 60
f 61 85 84
f 61 84 86
f 61 86 87
f 65 69 88
f 65 88 89
f 65 89 90
f 65 90 66
f 66 90 91
f 66 91 92
f 66 92 93
f 66 93 94
f 66 94 95
f 66 95 96
f 66 96 97
f 66 97 67
f 67 97 98
f 67 98 99
f 67 99 100
f 67 100 101
f 67 101 72
f 70 73 102
f 70 102 103
f 70 103 104
f 70 104 71
f 71 104 75
f 71 75 74
f 72 101 105
f 72 105 106
f 72 106 107
f 72 107 73
f 73 107 108
f 73 108 109
f 73 109 102
f 75 104 110
f 75 110 76
f 76 110 111
f 76 111 112
f 76 112 77
f 77 112 78
f 78 109 108
f 78 108 106
f 78 106 113
f 78 112 111
f 78 111 109
f 82 114 83
f 83 114 137
f 83 137 115
f 83 115 116
f 83 116 117
f 83 117 84
f 84 117 118
f 84 118 119
f 84 119 120
f 84 120 86
f 86 120 121
f 86 121 122
f 86 122 91
f 86 91 90
f 86 90 87
f 87 90 123
f 89 123 90
f 91 124 92
f 91 122 125
f 91 125 124
f 92 126 127
f 92 127 93
f 92 124 128
f 92 128 129
f 92 129 126
f 93 127 94
f 94 127 95
f 95 130 131
f 95 131 96
f 95 127 132
f 95 132 130
f 96 131 97
f 97 131 130
f 97 130 98
f 98 133 100
f 98 100 99
f 98 130 133
f 100 106 105
f 100 105 101
f 100 133 130
f 100 130 113
f 100 113 106
f 102 109 111
f 102 111 134
f 102 134 103
f 103 134 111
f 103 111 135
f 103 135 136
f 103 136 104
f 104 136 110
f 106 108 107
f 110 136 111
f 111 136 135
f 113 130 132
f 115 137 138
f 115 138 118
f 115 118 117
f 115 117 116
f 118 138 119
f 119 138 120
f 120 138 139
f 120 139 121
f 121 140 122
f 121 139 140
f 122 140 125
f 124 141 128
f 124 125 141
f 125 140 142
f 125 142 141
f 126 129 127
f 127 129 132
f 128 141 143
f 128 143 144
f 128 144 129
f 129 144 132
f 137 145 143
f 137 143 138
f 138 143 142
f 138 142 140
f 138 140 139
f 141 142 143
f 143 145 146
f 143 146 144

