# https://github.com/mikedh/trimesh
v -85.71521334 40.03243329 188.03563573
v -85.71096293 40.03243329 206.59365925
v -86.87706780 40.03243329 203.93944359
v -86.84836570 40.03884050 137.68074495
v -85.72690591 40.03884050 137.68074495
v -85.73009766 40.04097360 121.77694004
v -84.40666450 41.33324764 119.13346694
v -84.39815579 41.33111454 156.23876748
v -84.38327146 41.33111454 219.85399500
v -85.70883772 40.03243329 219.85399500
v -86.87919301 40.03243329 206.59365925
v -86.84093144 40.04097360 121.77694004
v -88.21006833 40.64759684 219.85399500
v -85.73115632 40.04311461 119.13346694
v -83.48822883 42.65755775 119.13346694
v -84.63095646 41.16022919 116.83386208
v -84.45130958 41.33538075 116.83386208
v -83.48822883 42.66183186 116.83386208
v -83.48822883 42.65755775 219.85399500
v -83.48822883 42.67892039 222.50821263
v -83.50736356 42.75794795 223.99113483
v -85.87147507 40.09223921 221.72376750
v -86.88450997 40.03243329 219.85399500
v -86.88131821 40.03243329 211.89134604
v -88.16542325 40.66895159 119.13346694
v -86.83986489 40.04311461 119.13346694
v -88.20581793 40.64972995 209.23712841
v -89.19971809 41.97404005 219.85399500
v -89.19971809 41.97404005 214.55630820
v -89.19971809 41.99326959 119.13346694
v -86.65596760 40.09223921 221.72376750
v -87.53294205 40.73730573 222.57268768
v -89.19546768 42.12569586 222.50821263
v -85.77580140 40.06233625 116.83386208
v -83.07366397 44.19119648 116.83386208
v -83.07366397 44.19119648 222.50821263
v -80.80735134 53.11320511 223.94815278
v -83.32559148 44.34498540 224.99049416
v -83.49247923 45.33180681 226.51640237
v -84.87119140 42.18764279 224.53917276
v -82.36357728 46.84194980 222.50821263
v -80.75207234 52.91242470 222.50821263
v -87.52124948 41.97404005 224.74334244
v -89.19971809 42.02530566 116.83386208
v -89.05834068 41.84587999 116.83386208
v -88.08889221 40.69886245 116.83386208
v -86.76332595 40.06233625 116.83386208
v -89.19971809 44.18051516 219.85399500
v -89.07641676 42.47386587 224.25977956
v -89.19546768 44.18051516 222.50821263
v -81.09648177 51.56461094 116.83386208
v -81.09648177 51.56461094 219.85399500
v -80.68616732 54.79208454 224.04486536
v -78.34650750 61.85151396 219.85399500
v -78.35075791 61.85151396 219.88623252
v -84.87119140 43.65506049 225.86090734
v -83.49247923 45.87007591 226.51640237
v -84.87119140 44.98151160 226.61311494
v -79.52217975 57.44284575 219.85399500
v -86.61769813 44.98791881 226.59162194
v -89.19971809 44.18051516 116.83386208
v -88.84361609 45.50695837 222.50821263
v -88.48644754 46.84194980 222.50821263
v -87.77636874 49.49271101 222.50821263
v -88.79577925 45.68851714 116.83386208
v -89.07641676 43.74263627 224.25977956
v -80.74143842 52.88892895 116.83386208
v -78.34119054 61.85151396 217.27500089
v -78.81103440 60.09359907 127.08537136
v -80.72656199 57.44284575 223.95889731
v -79.55088185 61.85151396 222.22881943
v -84.87119140 47.68780463 226.38745227
v -84.87119140 46.36135352 226.61311494
v -80.86156379 58.85900575 223.85144021
v -86.61769813 46.29086627 226.59162194
v -86.36789583 54.02740618 224.07709894
v -87.06628205 52.13919812 222.50821263
v -84.94878899 60.04020036 219.85399500
v -84.94878899 60.04020036 129.72884052
v -86.45399423 54.42470079 116.83386208
v -87.36498774 47.04059710 225.39883746
v -80.65427346 54.79208454 116.83386208
v -78.37733481 61.85151396 124.43115373
v -78.34119054 61.85151396 127.08537136
v -79.71351920 61.85151396 222.30404295
v -83.68276003 59.06406026 223.88367773
v -82.22113332 59.05765305 223.88367773
v -80.56285809 61.85151396 222.61566973
v -82.22113332 60.04020036 223.61502906
v -80.35450911 61.85151396 222.56193921
v -84.18023944 60.04020036 222.60492521
v -86.45399423 54.36702797 222.50821263
v -80.56285809 61.85151396 122.23900992
v -84.92115344 60.04020036 127.08537136
v -85.96289044 55.74901089 116.83386208
v -84.88182532 60.04020036 124.43115373
v -80.80840999 56.23601439 116.83386208
v -79.54982320 61.85151396 122.40019755
v -82.60381221 60.04020036 223.61502906
v -82.25090197 56.78923102 116.83386208
v -84.61075517 56.68884081 116.83386208
v -84.06863069 60.04020036 121.87365262
v -84.87544181 60.04020036 124.37742715
v -85.77155099 55.94979130 116.83386208
v -81.03801891 56.37271477 116.83386208
f 1 2 10
f 1 10 23
f 1 23 24
f 1 24 11
f 1 11 3
f 1 3 4
f 1 4 5
f 1 5 6
f 1 6 7
f 1 7 8
f 1 8 9
f 1 9 2
f 2 9 10
f 3 11 4
f 4 12 6
f 4 6 5
f 4 11 13
f 4 13 12
f 6 12 26
f 6 26 14
f 6 14 7
f 7 15 8
f 7 14 16
f 7 16 17
f 7 17 18
f 7 18 15
f 8 15 9
f 9 19 20
f 9 20 21
f 9 21 22
f 9 22 10
f 9 15 19
f 10 22 31
f 10 31 23
f 11 24 13
f 12 25 26
f 12 13 27
f 12 27 25
f 13 28 29
f 13 29 30
f 13 30 27
f 13 24 23
f 13 23 31
f 13 31 32
f 13 32 33
f 13 33 28
f 14 26 47
f 14 47 34
f 14 34 16
f 15 18 35
f 15 35 36
f 15 36 19
f 16 34 47
f 16 47 46
f 16 46 45
f 16 45 44
f 16 44 61
f 16 61 65
f 16 65 80
f 16 80 95
f 16 95 104
f 16 104 101
f 16 101 100
f 16 100 105
f 16 105 97
f 16 97 82
f 16 82 67
f 16 67 51
f 16 51 35
f 16 35 18
f 16 18 17
f 19 36 20
f 20 36 21
f 21 37 38
f 21 38 39
f 21 39 40
f 21 40 22
f 21 36 41
f 21 41 42
f 21 42 37
f 22 40 43
f 22 43 31
f 25 30 44
f 25 44 45
f 25 45 46
f 25 46 47
f 25 47 26
f 25 27 30
f 28 48 61
f 28 61 44
f 28 44 30
f 28 30 29
f 28 33 50
f 28 50 48
f 31 43 32
f 32 43 49
f 32 49 33
f 33 49 66
f 33 66 50
f 35 51 52
f 35 52 36
f 36 52 41
f 37 53 39
f 37 39 38
f 37 42 54
f 37 54 55
f 37 55 53
f 39 56 40
f 39 53 57
f 39 57 73
f 39 73 58
f 39 58 56
f 40 56 43
f 41 52 59
f 41 59 54
f 41 54 42
f 43 56 60
f 43 60 49
f 48 50 62
f 48 62 63
f 48 63 64
f 48 64 65
f 48 65 61
f 49 60 75
f 49 75 66
f 50 66 62
f 51 67 52
f 52 68 59
f 52 67 69
f 52 69 68
f 53 70 57
f 53 55 71
f 53 71 70
f 54 59 68
f 54 68 84
f 54 84 83
f 54 83 98
f 54 98 93
f 54 93 88
f 54 88 90
f 54 90 85
f 54 85 71
f 54 71 55
f 56 58 60
f 57 72 73
f 57 70 74
f 57 74 72
f 58 73 75
f 58 75 60
f 62 66 76
f 62 76 63
f 63 76 64
f 64 77 78
f 64 78 79
f 64 79 65
f 64 76 77
f 65 79 80
f 66 75 81
f 66 81 76
f 67 82 83
f 67 83 84
f 67 84 69
f 68 69 84
f 70 71 74
f 71 85 74
f 72 86 75
f 72 75 73
f 72 74 87
f 72 87 86
f 74 88 89
f 74 89 87
f 74 85 90
f 74 90 88
f 75 76 81
f 75 86 76
f 76 86 91
f 76 91 78
f 76 78 92
f 76 92 77
f 77 92 78
f 78 91 88
f 78 88 93
f 78 93 79
f 79 93 94
f 79 94 80
f 80 94 96
f 80 96 95
f 82 97 83
f 83 97 98
f 86 87 89
f 86 89 99
f 86 99 91
f 88 91 99
f 88 99 89
f 93 98 100
f 93 100 101
f 93 101 102
f 93 102 103
f 93 103 96
f 93 96 94
f 95 96 103
f 95 103 102
f 95 102 104
f 97 105 98
f 98 105 100
f 101 104 102

