# https://github.com/mikedh/trimesh
v -80.56206016 61.85232770 122.24181061
v -80.56206016 71.01465026 116.83627565
v -79.56925025 70.45833273 116.83627565
v -76.93364197 70.99530222 116.83627565
v -79.89013233 61.85232770 122.33500751
v -80.56206016 61.85232770 222.62731095
v -80.56206016 76.41819433 116.83627565
v -75.79364787 71.86122403 116.83627565
v -79.54913586 61.85232770 122.38678664
v -80.35362427 61.85232770 222.57553182
v -79.56925025 65.39825005 222.21309371
v -80.56206016 64.40655410 222.40984492
v -80.47978554 76.72779861 116.83627565
v -80.56206016 76.41819433 214.55007875
v -75.61080924 72.06439826 116.83627565
v -78.08003538 63.45839717 122.89420078
v -78.37622876 61.85232770 124.42680457
v -79.71277656 61.85232770 222.30629061
v -77.88988099 65.39825005 221.56069958
v -79.56925025 68.04923248 221.84029820
v -77.86337520 68.04923248 221.46750268
v -78.04346450 69.87782422 221.28110492
v -80.56206016 70.06165040 221.35359097
v -78.26469901 84.99517335 116.83627565
v -79.96326620 78.65314243 214.55007875
v -75.47094081 95.42009610 211.89908842
v -80.56206016 76.20534213 217.20106513
v -75.24970630 73.38988552 116.83627565
v -77.99592788 63.14878894 124.42680457
v -78.33966577 61.85232770 127.07779489
v -79.54913586 61.85232770 222.23380457
v -78.07821040 63.45355423 221.40537010
v -75.11257140 76.00216395 219.06504270
v -72.15425605 89.25221734 216.43476323
v -75.00469953 78.65314243 218.95113493
v -79.56925025 70.20194151 221.37430183
v -75.56418116 82.66347317 218.53691769
v -76.91901046 78.65314243 219.45854907
v -72.19905124 91.90319582 216.15516857
v -72.49981894 93.67373948 215.96877082
v -80.56206016 70.54540684 221.20861493
v -76.76725984 81.51697310 218.79580149
v -71.61763023 99.85612730 214.62256479
v -74.26877857 91.90319582 216.39334151
v -75.59892706 93.23835711 215.88592737
v -78.55266808 80.77682939 218.76473718
v -71.22269784 111.27274798 161.54065136
v -71.22269784 111.27274798 122.59389526
v -72.77316439 105.48703855 116.83627565
v -79.25294249 81.30412090 214.55007875
v -78.57095747 83.84867328 214.55007875
v -71.44027447 110.46004120 209.24809810
v -80.56206016 76.20050314 217.25284426
v -71.22269784 88.41048257 116.83627565
v -78.33966577 61.85232770 217.27355512
v -78.34972296 61.85232770 219.89347718
v -78.34514864 61.85232770 219.85205545
v -77.99501143 63.14395391 219.85205545
v -72.88652703 82.42159495 216.07232513
v -72.68083258 83.95509938 216.37263460
v -72.34623543 86.60123887 216.57973927
v -71.22269784 91.10983511 215.14033634
v -71.22269784 95.07179179 215.17140461
v -71.22269784 97.65987924 214.92287426
v -74.26877857 89.25221734 217.05608909
v -71.61763023 97.20514882 215.12998288
v -80.56206016 75.14108113 218.80615890
v -71.22269784 104.71302983 213.33849135
v -71.61763023 102.50710577 213.90804203
v -71.22269784 100.25280963 214.46723530
v -71.22269784 102.81671005 213.82519858
v -71.61763023 104.50017763 213.36955962
v -72.95508658 103.86645804 213.23493704
v -71.22269784 111.26791097 206.59711172
v -71.22269784 111.26791097 116.83627565
v -71.44027447 110.46004120 116.83627565
v -78.21259596 85.17416054 214.55007875
v -74.99190090 97.20514882 211.89908842
v -74.27243645 99.85612730 211.89908842
v -71.22269784 111.23404794 209.29987723
v -73.50268604 102.50710577 211.89908842
v -71.22269784 88.41048257 211.89908842
v -76.67949446 68.04923248 217.20106513
v -72.41846076 83.95509938 214.55007875
v -71.72824354 86.60123887 214.55007875
v -71.22269784 89.04903917 214.55007875
v -71.22269784 89.15546527 214.62256479
v -71.22269784 109.72473252 210.73928016
v -71.22269784 110.99700871 209.66231534
v -71.22269784 88.43466960 212.71716549
f 1 2 3
f 1 3 4
f 1 4 5
f 1 5 9
f 1 9 17
f 1 17 30
f 1 30 55
f 1 55 57
f 1 57 56
f 1 56 31
f 1 31 18
f 1 18 10
f 1 10 6
f 1 6 12
f 1 12 23
f 1 23 41
f 1 41 67
f 1 67 53
f 1 53 27
f 1 27 14
f 1 14 7
f 1 7 2
f 2 7 13
f 2 13 24
f 2 24 49
f 2 49 76
f 2 76 75
f 2 75 54
f 2 54 28
f 2 28 15
f 2 15 8
f 2 8 4
f 2 4 3
f 4 8 9
f 4 9 5
f 6 10 11
f 6 11 12
f 7 14 13
f 8 15 9
f 9 16 17
f 9 15 16
f 10 18 19
f 10 19 11
f 11 20 12
f 11 19 21
f 11 21 22
f 11 22 20
f 12 20 23
f 13 14 25
f 13 25 26
f 13 26 24
f 14 27 25
f 15 28 29
f 15 29 17
f 15 17 16
f 17 29 30
f 18 31 19
f 19 32 33
f 19 33 34
f 19 34 35
f 19 35 21
f 19 31 32
f 20 36 23
f 20 22 37
f 20 37 38
f 20 38 36
f 21 35 39
f 21 39 22
f 22 39 40
f 22 40 37
f 23 36 42
f 23 42 43
f 23 43 44
f 23 44 45
f 23 45 46
f 23 46 41
f 24 47 48
f 24 48 49
f 24 26 47
f 25 27 50
f 25 50 26
f 26 50 51
f 26 51 52
f 26 52 47
f 27 53 51
f 27 51 50
f 28 54 30
f 28 30 29
f 30 54 82
f 30 82 55
f 31 56 32
f 32 56 57
f 32 57 58
f 32 58 59
f 32 59 60
f 32 60 61
f 32 61 33
f 33 61 34
f 34 61 62
f 34 62 63
f 34 63 64
f 34 64 39
f 34 39 35
f 36 38 65
f 36 65 42
f 37 40 43
f 37 43 65
f 37 65 38
f 39 64 66
f 39 66 40
f 40 66 43
f 41 46 67
f 42 65 43
f 43 68 69
f 43 69 45
f 43 45 44
f 43 66 70
f 43 70 71
f 43 71 68
f 45 67 46
f 45 69 72
f 45 72 73
f 45 73 67
f 47 52 74
f 47 74 80
f 47 80 89
f 47 89 88
f 47 88 68
f 47 68 71
f 47 71 70
f 47 70 64
f 47 64 63
f 47 63 62
f 47 62 87
f 47 87 86
f 47 86 90
f 47 90 82
f 47 82 54
f 47 54 75
f 47 75 48
f 48 75 76
f 48 76 49
f 51 77 78
f 51 78 52
f 51 53 77
f 52 78 77
f 52 77 79
f 52 79 80
f 52 80 74
f 53 67 73
f 53 73 81
f 53 81 79
f 53 79 77
f 55 82 83
f 55 83 58
f 55 58 57
f 58 83 82
f 58 82 84
f 58 84 85
f 58 85 59
f 59 85 86
f 59 86 60
f 60 86 87
f 60 87 61
f 61 87 62
f 64 70 66
f 68 88 72
f 68 72 69
f 72 88 73
f 73 88 89
f 73 89 80
f 73 80 81
f 79 81 80
f 82 90 84
f 84 90 85
f 85 90 86

