# https://github.com/mikedh/trimesh
v 39.99476500 92.19774196 220.13449425
v 41.84451398 91.88387543 220.13449425
v 41.61901326 90.95751566 217.86418798
v 38.70713243 80.17334260 196.81935501
v 37.85415541 80.17334260 196.81935501
v 10.73867966 75.77617736 195.89889585
v 10.73867966 87.89504163 220.13449425
v 41.86412273 91.86863953 220.13449425
v 41.64515959 88.66904245 214.55480318
v 41.32488386 88.17843638 212.80403221
v 37.07307980 79.47552521 195.89889585
v 37.01098474 79.48466596 195.89889585
v 41.07323879 85.30489218 207.87909946
v 39.16139673 78.78075341 195.89889585
v 10.73867966 67.09459723 195.89889585
v 10.73867966 79.00015503 220.13449425
v 42.01445523 89.43084902 217.07183061
v 42.83474836 89.25410949 220.13449425
v 42.81840839 89.25410949 219.85693394
v 41.08631393 82.71473878 205.10586053
v 42.64519835 68.10323161 195.89889585
v 13.28453461 66.40897013 195.89889585
v 12.62764517 66.92394890 196.79800422
v 10.73867966 67.14640006 196.03411787
v 10.73867966 78.98187354 220.10602521
v 13.23878150 78.32976383 220.13449425
v 44.03741227 80.64566323 220.13449425
v 44.10930973 78.64972156 219.85693394
v 44.12565168 78.64972156 220.13449425
v 43.80210915 76.94631538 220.13449425
v 42.13537459 65.98539884 195.89889585
v 23.68038000 63.62379175 195.89889585
v 22.99734521 64.20886274 196.96881056
v 10.73867966 68.19160533 198.63892254
v 14.39569033 66.68626578 197.41955128
v 10.73867966 77.67460457 217.91874804
v 12.37926987 77.45520690 218.30543638
v 14.14731503 77.22056938 218.70635727
v 18.68671388 76.87013591 220.13449425
v 43.48837099 75.76094147 220.13449425
v 43.43608229 75.62381447 220.13449425
v 41.25298640 69.13624659 213.74584315
v 40.90329754 66.86910442 207.15791470
v 39.26270931 63.30383402 201.30303540
v 39.13852116 61.99352340 195.89889585
v 26.46807465 62.88331227 195.89889585
v 26.46807465 62.91988316 196.00090464
v 24.76212356 63.97117962 197.56663475
v 10.73867966 68.27997115 198.85005838
v 15.86633829 67.05498470 199.20590559
v 10.73867966 69.13015539 200.84517841
v 23.85358905 64.62633493 198.53216857
v 10.73867966 76.99811821 216.72309967
v 29.11524020 72.56438998 217.58425360
v 22.74570162 74.74621194 218.41456442
v 24.51374728 74.50852487 218.81074112
v 18.99391546 76.78786129 220.13449425
v 29.14465334 74.06972558 220.13449425
v 42.05693955 73.17383761 220.13449425
v 39.72024436 68.93208481 214.03763601
v 38.88360928 63.74872846 203.22698481
v 41.30200632 71.79343872 219.16184218
v 37.06980904 61.07020528 195.89889585
v 34.23309446 61.53948031 195.89889585
v 37.06980904 61.93867102 198.65315508
v 34.41937569 62.42013634 198.65315508
v 26.46807465 63.74567891 198.10040655
v 37.06980904 62.92292481 201.30303540
v 26.46807465 64.30941885 199.42653177
v 10.73867966 69.63599340 202.02184808
v 19.34033504 66.58875922 200.29242790
v 23.56926403 65.99758913 201.55924492
v 21.16720647 66.91175860 202.18791024
v 10.73867966 76.93107949 216.60448723
v 29.11524020 71.81476976 216.25812640
v 37.06980904 71.79343872 218.91037684
v 38.92282680 72.14082264 220.13449425
v 29.23942835 74.04534499 220.13449425
v 29.14465334 73.98440142 219.99215695
v 39.72024436 72.03721698 220.13449425
v 37.06980904 67.00622351 210.06874872
v 37.06980904 66.35411775 208.74262350
v 34.50434829 61.49377658 195.89889585
v 27.53674505 66.65579399 205.41900616
v 26.46807465 65.11389146 201.30303540
v 12.15377014 69.44706357 202.46309846
v 10.73867966 70.49226884 203.95054166
v 22.52020239 66.73197742 202.61255401
v 10.73867966 75.80360355 214.55242911
v 17.34352284 74.71878575 215.80501556
v 27.70668631 72.00369564 215.92125789
v 29.11524020 70.87926530 214.55480318
v 29.11524020 69.76397571 212.50511913
v 29.11524020 69.06616226 211.17899391
v 29.11524020 68.14589370 209.25504451
v 27.44197005 69.28251433 210.75672223
v 26.52363214 68.83457035 209.34281977
v 26.58245842 67.39932302 206.42486948
v 10.73867966 72.23833315 207.64898491
v 17.17358060 69.37088015 205.28852931
v 25.77196769 66.89347711 204.90895724
v 26.58245842 66.26574404 203.99798743
v 24.28824755 66.49429430 203.14158163
v 13.92181530 69.20938046 203.00161445
v 10.73867966 71.55880120 206.24220070
v 13.10805678 69.83710958 203.91258426
v 15.40553544 69.60856721 204.76899202
v 10.73867966 74.92295147 212.93450906
v 12.00997324 74.70964500 213.16936779
v 13.77801840 74.47195794 213.60350190
v 18.51677263 71.80257946 211.00107130
v 17.07880560 71.99455489 210.63573375
v 25.67719269 69.52019745 210.28463072
v 16.06242489 71.59841374 209.26453287
v 10.73867966 73.02147472 209.25504451
v 10.73867966 71.64107582 206.41300705
v 16.12125116 69.02959138 203.91258426
v 10.73867966 74.17333125 211.53246904
f 1 2 3
f 1 3 4
f 1 4 5
f 1 5 6
f 1 6 7
f 1 7 16
f 1 16 26
f 1 26 39
f 1 39 57
f 1 57 58
f 1 58 78
f 1 78 77
f 1 77 80
f 1 80 59
f 1 59 41
f 1 41 40
f 1 40 30
f 1 30 29
f 1 29 27
f 1 27 18
f 1 18 8
f 1 8 2
f 2 8 3
f 3 8 9
f 3 9 10
f 3 10 4
f 4 11 12
f 4 12 5
f 4 10 13
f 4 13 14
f 4 14 11
f 5 12 6
f 6 15 24
f 6 24 34
f 6 34 49
f 6 49 51
f 6 51 70
f 6 70 87
f 6 87 105
f 6 105 116
f 6 116 99
f 6 99 115
f 6 115 118
f 6 118 108
f 6 108 89
f 6 89 74
f 6 74 53
f 6 53 36
f 6 36 25
f 6 25 16
f 6 16 7
f 6 12 11
f 6 11 14
f 6 14 21
f 6 21 31
f 6 31 45
f 6 45 63
f 6 63 83
f 6 83 64
f 6 64 46
f 6 46 32
f 6 32 22
f 6 22 15
f 8 17 9
f 8 18 19
f 8 19 17
f 9 17 19
f 9 19 13
f 9 13 10
f 13 20 14
f 13 19 21
f 13 21 20
f 14 20 21
f 15 22 23
f 15 23 24
f 16 25 26
f 18 27 19
f 19 27 21
f 21 27 28
f 21 28 29
f 21 29 30
f 21 30 31
f 22 32 33
f 22 33 23
f 23 34 24
f 23 33 35
f 23 35 34
f 25 36 37
f 25 37 38
f 25 38 39
f 25 39 26
f 27 29 28
f 30 40 31
f 31 40 41
f 31 41 42
f 31 42 43
f 31 43 44
f 31 44 45
f 32 46 47
f 32 47 33
f 33 47 48
f 33 48 35
f 34 35 49
f 35 50 51
f 35 51 49
f 35 48 52
f 35 52 50
f 36 53 54
f 36 54 37
f 37 55 56
f 37 56 38
f 37 54 55
f 38 57 39
f 38 56 58
f 38 58 57
f 41 59 42
f 42 60 61
f 42 61 44
f 42 44 43
f 42 59 62
f 42 62 60
f 44 61 63
f 44 63 45
f 46 64 65
f 46 65 66
f 46 66 47
f 47 67 48
f 47 66 68
f 47 68 67
f 48 67 69
f 48 69 52
f 50 52 51
f 51 52 71
f 51 71 72
f 51 72 73
f 51 73 70
f 52 69 72
f 52 72 71
f 53 74 75
f 53 75 54
f 54 75 76
f 54 76 77
f 54 77 78
f 54 78 79
f 54 79 56
f 54 56 55
f 56 79 58
f 58 79 78
f 59 80 62
f 60 62 80
f 60 80 81
f 60 81 82
f 60 82 61
f 61 82 68
f 61 68 65
f 61 65 63
f 63 65 83
f 64 83 65
f 65 68 66
f 67 68 69
f 68 82 84
f 68 84 69
f 69 84 85
f 69 85 72
f 70 86 87
f 70 73 88
f 70 88 86
f 72 88 73
f 72 85 88
f 74 89 90
f 74 90 91
f 74 91 75
f 75 91 92
f 75 92 76
f 76 81 77
f 76 92 93
f 76 93 81
f 77 81 80
f 81 93 94
f 81 94 82
f 82 94 95
f 82 95 84
f 84 96 97
f 84 97 98
f 84 98 99
f 84 99 100
f 84 100 101
f 84 101 102
f 84 102 85
f 84 95 94
f 84 94 96
f 85 102 103
f 85 103 88
f 86 104 87
f 86 88 104
f 87 104 106
f 87 106 107
f 87 107 100
f 87 100 105
f 88 103 104
f 89 91 90
f 89 108 109
f 89 109 110
f 89 110 92
f 89 92 91
f 92 110 93
f 93 110 109
f 93 109 108
f 93 108 111
f 93 111 96
f 93 96 94
f 96 111 112
f 96 112 113
f 96 113 97
f 97 113 114
f 97 114 99
f 97 99 98
f 99 116 100
f 99 114 115
f 100 116 105
f 100 107 101
f 101 103 102
f 101 107 106
f 101 106 117
f 101 117 103
f 103 117 104
f 104 117 106
f 108 118 111
f 111 118 112
f 112 118 115
f 112 115 114
f 112 114 113

