# https://github.com/mikedh/trimesh
v 74.13832144 70.37304807 94.48845769
v 75.85108167 70.37304807 95.48655296
v 71.36829600 70.37304807 95.35100603
v 74.18413578 74.22606237 87.74822757
v 76.07310622 74.25880947 87.92074040
v 76.27750896 70.37304807 97.92634226
v 77.66956882 76.00521745 89.96622144
v 70.92777047 70.37304807 95.73299760
v 72.62643642 74.48802337 88.16718504
v 74.18413578 76.00521745 86.68852509
v 76.59116218 76.00521745 87.50178293
v 78.39203147 79.12692068 88.10557783
v 78.15238511 77.36959831 89.96622144
v 78.50832910 78.69032164 89.96622144
v 76.36561406 70.70049932 97.92634226
v 76.27750896 70.37304807 209.24481944
v 70.15596991 70.37304807 97.92634226
v 72.47489516 76.00521745 87.83448398
v 74.18413578 78.65757454 86.88567922
v 76.83785964 86.61464977 86.50369556
v 76.83785964 83.96229268 86.35583193
v 76.83785964 81.30993164 86.49137096
v 78.68453931 81.30993164 87.67429575
v 86.29681800 108.45567377 88.17950964
v 83.58318551 98.08637368 88.31504866
v 80.86954512 87.72798402 88.47523689
v 83.82282792 99.86552481 87.88377449
v 81.07395181 89.25609248 88.04396272
v 77.07750204 73.35285641 97.92634226
v 88.77080807 117.05673711 88.61078381
v 83.29067372 96.53643645 89.96622144
v 78.50832910 78.69032164 206.59555139
v 76.36561406 70.70049932 209.24481944
v 76.24931643 70.37304807 209.52822998
v 70.40266341 71.31174428 97.92634226
v 72.37269577 78.65757454 89.96622144
v 72.61586175 78.65757454 88.08092862
v 70.15596991 70.37304807 208.45619895
v 75.00879782 86.61464977 87.69894496
v 79.48805992 97.21316771 86.61459328
v 98.03946194 166.13082225 86.55297817
v 95.38926165 155.52138795 86.46672175
v 82.13826021 105.17024294 86.39278994
v 79.48805992 94.56081062 86.36814864
v 87.43866079 123.72583414 86.35583193
v 84.78846050 113.11640181 86.35583193
v 82.13826021 102.51788387 86.38047324
v 79.48805992 91.90844958 86.41743914
v 87.43866079 121.07347704 86.46672175
v 95.38926165 150.21667179 86.52833686
v 84.78846050 110.46404274 86.55297817
v 82.13826021 99.86552481 86.67620839
v 81.42989580 91.90844958 87.60036394
v 99.93900705 160.82610411 87.63733775
v 97.19365451 150.21667179 87.72358626
v 86.56818045 110.46404274 87.74822757
v 91.70294154 129.00872104 87.99467221
v 96.91523701 148.14281059 88.15486043
v 102.10639104 167.11317600 88.37666377
v 91.48796413 127.41512282 88.42595428
v 99.39275066 156.74387393 88.56149330
v 94.44829407 139.61815385 87.84680858
v 77.07750204 73.35285641 206.59555139
v 104.06584478 174.07697915 89.96622144
v 83.29067372 96.53643645 201.29701926
v 82.05015511 91.90844958 203.94628730
v 94.83243454 139.61815385 193.34921908
v 91.98840618 129.00872104 195.99848713
v 104.89755792 177.19868632 185.38909826
v 88.77080807 117.05673711 199.99086819
v 75.89337244 70.37304807 211.13010830
v 83.51622184 98.27193004 205.33869083
v 83.76291929 121.21537193 97.92634226
v 70.40266341 71.31174428 206.59555139
v 73.79294816 83.96229268 89.96622144
v 94.05359079 159.53812788 88.61078381
v 83.43516388 119.85099007 88.56149330
v 72.81674487 80.14202152 88.51221069
v 78.00789495 99.11238891 88.24111685
v 75.29425852 88.74308487 88.11790243
v 80.49950684 107.82260004 87.95771420
v 77.75415036 97.21316771 87.80984268
v 70.16302101 70.37304807 209.24481944
v 76.63345295 94.56081062 203.94628730
v 72.37269577 78.65757454 206.59555139
v 71.66080384 76.00521745 206.59555139
v 96.26326555 166.13082225 87.74822757
v 93.51438154 155.52138795 87.66197115
v 82.88891539 115.76876088 87.63733775
v 80.14355890 105.17024294 87.57572264
v 90.76902901 144.92287001 87.58803934
v 100.68966222 174.07697915 86.38047324
v 98.65267410 174.07697915 87.55108133
v 92.73906136 144.92287001 86.40511454
v 90.08886107 134.31343769 86.36814864
v 98.03946194 163.47846121 86.35583193
v 95.38926165 152.86903086 86.35583193
v 92.73906136 142.27051193 86.36814864
v 90.08886107 131.66107912 86.40511454
v 98.03946194 160.82610411 86.45440505
v 100.68966222 168.78317934 86.75014020
v 92.73906136 139.61815385 86.63923458
v 102.68435958 171.42462205 87.57572264
v 102.33193917 168.78317934 87.95771420
v 103.04030358 174.07697915 87.46482492
v 104.11870627 176.72934019 89.96622144
v 106.15570229 181.88124511 97.92634226
v 104.06584478 174.07697915 182.73983416
v 97.67294723 150.21667179 190.68763039
v 106.15570229 181.88124511 182.73983416
v 106.14864725 181.88124511 182.90002239
v 105.39446850 179.38169728 185.38909826
v 104.81649996 177.48247609 186.91704871
v 102.08524171 167.16775186 189.45541508
v 75.93918678 70.70049932 211.16707816
v 75.74183118 70.37304807 211.26565522
v 83.55146546 99.86552481 205.35101149
v 76.17178599 73.35285641 211.15475356
v 99.39275066 159.07969613 192.04307197
v 84.43604008 123.72583414 97.92634226
v 95.80863784 166.13082225 89.96622144
v 90.83599268 147.57522908 89.96622144
v 79.47396168 105.17024294 89.96622144
v 79.47396168 105.17024294 201.29701926
v 90.83599268 147.57522908 190.68763039
v 99.54077229 180.05843250 182.73983416
v 91.33995040 149.16882582 88.42595428
v 96.79541975 169.80919457 89.96622144
v 97.22889023 171.42462205 89.96622144
v 98.65267410 176.72934019 89.96622144
v 99.24826050 178.20287278 88.31504866
v 96.53110444 168.13919123 88.17950964
v 80.72153139 109.48168900 88.38898047
v 91.12497300 147.57522908 87.99467221
v 88.37962046 136.96579577 87.84680858
v 70.22997678 70.37304807 210.24291470
v 72.81674487 80.14202152 208.09885660
v 73.80351888 83.96229268 206.59555139
v 80.18937324 107.82260004 201.29701926
v 83.02635840 118.42111797 198.64775122
v 83.43516388 119.84007470 200.01551345
v 99.00861809 176.72934019 87.88377449
v 100.68966222 171.42462205 86.39278994
v 100.68966222 176.72934019 86.87335462
v 103.06850005 176.72934019 87.63733775
v 105.40856279 181.88124511 95.48655296
v 105.71870034 181.88124511 185.38909826
v 105.69402744 181.88124511 185.48767532
v 104.98566302 179.38169728 187.05259168
v 102.18392543 168.78317934 189.52934690
v 74.19118292 70.37304807 212.12820752
v 83.52679255 101.45912352 205.32637018
v 99.39275066 159.65819400 192.04307197
v 76.17883314 76.00521745 210.92063352
v 74.18413578 70.70049932 212.14052817
v 99.54077229 180.05843250 97.92634226
v 98.64915053 176.72934019 185.38909826
v 91.30118321 149.31072268 190.68763039
v 100.03063572 181.88124511 182.73983416
v 99.18835187 178.27927742 89.96622144
v 100.03063572 181.88124511 97.92634226
v 100.68966222 178.34476767 87.98234761
v 100.07292649 181.88124511 97.72918813
v 101.21829285 181.88124511 95.10456139
v 103.10373577 181.88124511 94.24201305
v 70.94186871 70.37304807 211.31494178
v 72.72158867 77.67522080 210.69883413
v 75.36121824 88.33922899 208.07421134
v 78.03256391 98.91591421 205.42494725
v 80.72505496 109.42711313 202.75103395
v 83.42459316 119.89465057 198.64775122
v 99.24473693 178.47574817 186.91704871
v 99.18482830 178.70496602 185.38909826
v 102.61739591 178.29019180 88.09325322
v 103.68171221 181.88124511 94.52542360
v 104.97509231 181.88124511 186.95401462
v 102.16982324 170.90070005 189.50470164
v 73.81409355 70.37304807 212.21445998
v 85.64131507 114.30614267 202.59084573
v 74.18413578 73.35285641 211.85711762
v 101.76454134 172.66894075 189.34451342
v 95.81216141 166.13082225 188.03836630
v 99.65001883 180.03659978 185.38909826
v 100.36543038 181.88124511 185.38909826
v 103.13545582 181.88124511 94.22968845
v 71.20618007 70.37304807 211.56138642
v 72.42203368 76.00521745 210.94527877
v 74.18413578 76.00521745 211.29029653
v 74.18413578 78.06816230 210.77276594
v 83.42106959 114.53535854 202.64013623
v 85.96201544 125.41766822 200.07712461
v 88.54878353 136.17991179 197.48946773
v 91.17783448 146.87666510 194.88949019
v 93.83861338 157.48609742 192.26487135
v 96.53462801 168.03003949 189.60328266
v 101.34868872 181.88124511 187.05259168
v 101.26058362 181.88124511 186.91704871
v 104.87993216 181.88124511 186.99098052
v 71.38944138 70.37304807 211.68460874
v 87.43866079 123.72583414 200.50839878
v 78.50832910 90.75145385 207.96331362
v 99.99891567 172.90906903 189.40612458
v 103.34338608 181.88124511 187.29903633
v 83.87568940 114.53535854 202.64013623
v 99.29055126 172.90906903 189.40612458
f 1 2 6
f 1 6 16
f 1 16 34
f 1 34 71
f 1 71 116
f 1 116 151
f 1 151 178
f 1 178 199
f 1 199 186
f 1 186 166
f 1 166 136
f 1 136 83
f 1 83 38
f 1 38 17
f 1 17 8
f 1 8 3
f 1 3 4
f 1 4 5
f 1 5 2
f 2 5 7
f 2 7 6
f 3 8 9
f 3 9 4
f 4 9 10
f 4 10 5
f 5 10 11
f 5 11 12
f 5 12 7
f 6 7 13
f 6 13 14
f 6 14 15
f 6 15 33
f 6 33 16
f 7 12 13
f 8 17 9
f 9 18 10
f 9 17 18
f 10 19 20
f 10 20 21
f 10 21 22
f 10 22 11
f 10 18 19
f 11 22 23
f 11 23 12
f 12 24 25
f 12 25 26
f 12 26 13
f 12 23 27
f 12 27 28
f 12 28 24
f 13 26 14
f 14 29 15
f 14 26 30
f 14 30 31
f 14 31 65
f 14 65 32
f 14 32 63
f 14 63 29
f 15 29 63
f 15 63 33
f 16 33 34
f 17 35 36
f 17 36 37
f 17 37 18
f 17 38 74
f 17 74 35
f 18 37 19
f 19 37 39
f 19 39 20
f 20 40 41
f 20 41 42
f 20 42 94
f 20 94 43
f 20 43 44
f 20 44 21
f 20 39 40
f 21 44 45
f 21 45 96
f 21 96 97
f 21 97 46
f 21 46 47
f 21 47 48
f 21 48 22
f 22 48 49
f 22 49 50
f 22 50 51
f 22 51 52
f 22 52 23
f 23 53 54
f 23 54 55
f 23 55 56
f 23 56 27
f 23 52 53
f 24 28 57
f 24 57 58
f 24 58 59
f 24 59 25
f 25 59 60
f 25 60 26
f 26 61 30
f 26 60 61
f 27 56 62
f 27 62 57
f 27 57 28
f 30 61 64
f 30 64 31
f 31 64 108
f 31 108 65
f 32 65 66
f 32 66 33
f 32 33 63
f 33 66 67
f 33 67 68
f 33 68 69
f 33 69 70
f 33 70 34
f 34 70 72
f 34 72 71
f 35 73 36
f 35 74 73
f 36 75 76
f 36 76 77
f 36 77 78
f 36 78 37
f 36 73 75
f 37 78 79
f 37 79 80
f 37 80 81
f 37 81 82
f 37 82 39
f 38 83 84
f 38 84 85
f 38 85 86
f 38 86 74
f 39 82 87
f 39 87 88
f 39 88 89
f 39 89 90
f 39 90 40
f 40 90 91
f 40 91 41
f 41 92 42
f 41 91 93
f 41 93 92
f 42 92 94
f 43 94 92
f 43 92 95
f 43 95 44
f 44 95 96
f 44 96 45
f 46 97 98
f 46 98 47
f 47 98 99
f 47 99 48
f 48 99 100
f 48 100 49
f 49 100 50
f 50 101 102
f 50 102 51
f 50 100 101
f 51 102 52
f 52 102 53
f 53 103 54
f 53 102 103
f 54 103 104
f 54 104 55
f 55 104 62
f 55 62 56
f 57 62 104
f 57 104 58
f 58 104 59
f 59 61 60
f 59 104 64
f 59 64 61
f 64 104 103
f 64 103 105
f 64 105 106
f 64 106 107
f 64 107 110
f 64 110 108
f 65 108 109
f 65 109 66
f 66 109 67
f 67 109 69
f 67 69 68
f 69 110 111
f 69 111 112
f 69 112 113
f 69 113 114
f 69 114 70
f 69 109 110
f 70 114 72
f 71 115 116
f 71 72 115
f 72 117 118
f 72 118 115
f 72 114 119
f 72 119 117
f 73 120 121
f 73 121 122
f 73 122 123
f 73 123 75
f 73 74 124
f 73 124 125
f 73 125 126
f 73 126 120
f 74 86 124
f 75 123 76
f 76 127 77
f 76 123 122
f 76 122 121
f 76 121 128
f 76 128 129
f 76 129 130
f 76 130 131
f 76 131 132
f 76 132 127
f 77 127 133
f 77 133 78
f 78 133 79
f 79 133 132
f 79 132 80
f 80 132 134
f 80 134 81
f 81 134 135
f 81 135 82
f 82 135 87
f 83 136 137
f 83 137 138
f 83 138 84
f 84 139 140
f 84 140 124
f 84 124 86
f 84 86 85
f 84 138 141
f 84 141 139
f 87 135 142
f 87 142 93
f 87 93 88
f 88 91 89
f 88 93 91
f 89 91 90
f 92 143 96
f 92 96 95
f 92 93 144
f 92 144 145
f 92 145 105
f 92 105 143
f 93 142 144
f 96 143 97
f 97 143 98
f 98 143 99
f 99 143 100
f 100 143 101
f 101 143 103
f 101 103 102
f 103 143 105
f 105 145 106
f 106 145 146
f 106 146 107
f 107 146 175
f 107 175 185
f 107 185 165
f 107 165 164
f 107 164 163
f 107 163 161
f 107 161 159
f 107 159 184
f 107 184 197
f 107 197 196
f 107 196 203
f 107 203 198
f 107 198 176
f 107 176 148
f 107 148 147
f 107 147 111
f 107 111 110
f 108 110 109
f 111 147 112
f 112 147 113
f 113 147 148
f 113 148 149
f 113 149 114
f 114 150 119
f 114 149 150
f 115 118 116
f 116 118 151
f 117 152 118
f 117 119 153
f 117 153 152
f 118 154 155
f 118 155 151
f 118 152 154
f 119 150 149
f 119 149 153
f 120 156 121
f 120 126 156
f 121 156 128
f 124 140 157
f 124 157 158
f 124 158 125
f 125 158 157
f 125 157 126
f 126 157 159
f 126 159 161
f 126 161 156
f 127 132 133
f 128 156 129
f 129 156 130
f 130 160 131
f 130 156 161
f 130 161 160
f 131 162 144
f 131 144 142
f 131 142 132
f 131 160 161
f 131 161 163
f 131 163 164
f 131 164 165
f 131 165 162
f 132 142 134
f 134 142 135
f 136 166 167
f 136 167 168
f 136 168 169
f 136 169 170
f 136 170 137
f 137 170 141
f 137 141 138
f 139 141 171
f 139 171 140
f 140 171 157
f 141 170 172
f 141 172 173
f 141 173 171
f 144 162 174
f 144 174 145
f 145 174 146
f 146 174 175
f 148 176 149
f 149 176 177
f 149 177 153
f 151 155 178
f 152 179 180
f 152 180 154
f 152 153 181
f 152 181 179
f 153 177 181
f 154 180 155
f 155 180 178
f 157 173 159
f 157 171 182
f 157 182 173
f 159 173 172
f 159 172 183
f 159 183 184
f 162 165 185
f 162 185 174
f 166 186 187
f 166 187 167
f 167 187 180
f 167 180 188
f 167 188 189
f 167 189 190
f 167 190 191
f 167 191 192
f 167 192 193
f 167 193 168
f 168 193 194
f 168 194 169
f 169 194 195
f 169 195 170
f 170 195 172
f 171 173 182
f 172 196 197
f 172 197 184
f 172 184 183
f 172 195 196
f 174 185 175
f 176 198 177
f 177 198 181
f 178 180 199
f 179 200 201
f 179 201 180
f 179 181 200
f 180 201 188
f 180 187 199
f 181 202 200
f 181 198 203
f 181 203 202
f 186 199 187
f 188 190 189
f 188 201 204
f 188 204 190
f 190 205 191
f 190 204 202
f 190 202 205
f 191 205 192
f 192 205 193
f 193 205 194
f 194 205 196
f 194 196 195
f 196 205 203
f 200 204 201
f 200 202 204
f 202 203 205

