# https://github.com/mikedh/trimesh
v 55.62793823 1.99795254 211.90182393
v 57.60153366 2.42514221 193.33722432
v 55.62793823 1.99795254 222.50459030
v 53.65687487 2.67365675 219.85064523
v 53.65772021 2.67365675 217.19670016
v 53.66025624 2.67571085 198.64511446
v 53.66448689 2.67981906 164.18286830
v 53.66955894 2.68392726 129.73363605
v 55.62793823 2.00411484 177.43957975
v 57.60153366 2.42925041 121.78481278
v 57.60153366 2.42719631 156.24705499
v 57.60153366 2.42514221 222.50459030
v 58.60609144 4.42763725 119.13086771
v 57.58039617 2.44362911 225.15853537
v 55.62793823 2.02465584 225.15853537
v 53.66871360 2.68392726 225.15853537
v 53.65687487 2.67365675 222.50459030
v 53.66195087 2.67776495 182.73445795
v 52.92375460 4.42763725 222.50459030
v 52.93136267 4.42763725 169.49075647
v 52.93558938 4.42763725 140.33640045
v 52.93812540 4.42763725 124.42574591
v 52.93897470 4.42763725 119.13086771
v 53.67124963 2.68598136 119.13086771
v 55.62793823 2.01438534 121.78481278
v 55.62793823 2.01027714 142.99034552
v 57.60153366 2.43130451 119.13086771
v 58.60524610 4.42763725 116.47692264
v 58.60609144 4.42763725 222.50459030
v 59.28255804 6.94974068 111.18204443
v 58.37355543 4.42763725 225.15853537
v 57.35631358 2.67571085 226.86278294
v 55.62793823 2.57712984 226.99287860
v 53.88856554 2.82975258 226.78472713
v 53.03790728 4.42763725 225.15853537
v 53.19264819 7.07707910 222.50459030
v 53.19264819 7.07707910 111.18204443
v 52.96603352 4.42763725 116.47692264
v 53.69830845 2.70652236 116.47692264
v 55.62793823 2.01643944 119.13086771
v 57.60068832 2.44157501 116.47692264
v 58.57142060 4.42763725 113.82297757
v 59.63685875 8.31554361 103.22020922
v 59.63770804 8.27857771 105.87415429
v 59.28255804 6.94974068 222.50459030
v 59.62586932 8.31759771 223.92263059
v 59.63770804 8.27446951 108.52809936
v 59.81527712 9.72858295 224.23485384
v 60.16957783 12.38008681 224.53407306
v 57.54657067 4.42763725 226.94083876
v 55.62793823 4.42763725 227.37015363
v 53.72705795 4.42763725 226.90181085
v 54.02216897 7.07707910 226.69365938
v 53.46746312 7.07707910 225.15853537
v 54.28768119 11.10876459 223.87059075
v 53.90294030 9.72858295 222.50459030
v 54.63521917 12.46223502 219.85064523
v 54.63521917 12.46223502 103.22020922
v 53.90294030 9.72858295 105.87415429
v 54.28768119 11.10876459 101.82819281
v 53.24507515 7.07707910 108.52809936
v 53.10809036 4.42763725 113.82297757
v 55.62793823 2.04723515 116.47692264
v 53.84036924 2.80921158 113.82297757
v 57.56686676 2.51552263 113.82297757
v 58.40145959 4.42763725 111.18204443
v 59.62502397 8.36688822 101.85420878
v 61.44725986 15.02747456 100.57927609
v 60.02583031 9.72858295 103.22020922
v 59.63770804 8.27446951 222.50459030
v 60.73612241 12.38008681 222.50459030
v 61.30604836 15.02747456 222.50459030
v 60.38435772 15.02747456 224.43000128
v 61.56141253 16.67054944 222.49157837
v 61.56141253 17.41198486 222.72575371
v 57.34278416 7.07707910 226.66763551
v 60.38604841 17.67897841 224.15679803
v 57.08488001 8.57022046 226.51152388
v 55.62793823 7.07707910 226.88879891
v 54.28176380 8.45109844 226.49851194
v 56.89885357 19.14541646 223.88360268
v 56.77116754 19.63628324 222.50459030
v 57.45271014 22.97787001 219.85064523
v 54.28007312 11.13545999 222.50459030
v 57.45271014 22.97787001 100.57927609
v 56.67138961 20.05731851 97.92533102
v 54.28007312 11.13545999 103.22020922
v 55.32352450 15.02747456 100.57927609
v 56.12260510 17.67897841 97.92533102
v 56.76525015 19.70611475 96.31215120
v 56.58260507 17.67897841 96.16905150
v 54.25977703 9.72858295 101.80217684
v 53.74904473 6.88607937 105.65299879
v 53.88349350 5.30256550 106.39453692
v 53.62220798 4.84456432 108.52809936
v 54.26062237 8.34635512 101.84120474
v 55.62793823 2.22387198 113.82297757
v 54.07121457 2.96119920 111.93659450
v 57.39690181 2.73527976 111.18204443
v 57.15760307 2.95914510 109.46478493
v 57.30980795 5.56545875 104.28699834
v 59.82711585 10.72264112 98.96609627
v 59.90660163 9.79430627 100.81345143
v 61.56141253 16.32139188 97.92533102
v 60.71075427 12.38008681 100.57927609
v 61.56141253 15.53066594 99.95482168
v 61.56141253 15.45468003 100.57927609
v 61.44725986 15.02747456 219.85064523
v 61.56141253 15.45468003 219.85064523
v 61.56141253 15.79561329 221.56790474
v 61.56141253 21.20131021 222.95992115
v 61.56141253 22.97787001 222.80380952
v 60.10193473 19.58493863 223.94864656
v 60.92891553 22.97787001 223.15506859
v 58.27800421 15.02747456 225.09348360
v 58.27800421 17.67897841 224.45601725
v 58.27800421 19.54386452 223.96165849
v 58.52745100 22.97787001 222.25741093
v 57.45609545 22.97787001 97.92533102
v 58.53083236 22.97787001 95.47954532
v 58.27800421 17.67897841 95.44051741
v 56.64686681 15.70113257 96.32516313
v 54.48555031 5.87558840 104.62524547
v 55.47234803 4.95957814 105.65299879
v 55.55436983 3.55475520 108.56712727
v 54.62253510 3.22408455 110.16730305
v 56.44138962 10.72880342 99.00512417
v 55.62793823 8.07113727 101.56800149
v 55.55436983 2.72295516 111.10398862
v 56.38980800 2.95914510 109.46478493
v 56.25282321 5.56545875 104.28699834
v 58.27800421 9.23566207 100.24102896
v 58.27800421 8.08551598 101.56800149
v 58.27800421 10.56038300 98.84901255
v 59.62079332 13.68426673 96.58535444
v 61.56141253 18.13082518 96.11701166
v 61.56141253 22.97787001 94.82906703
v 60.92891553 22.97787001 94.46480394
v 58.49532013 14.90219814 96.20807941
v 60.92891553 20.33048226 95.01120253
v 57.75712386 13.93483537 96.70243817
v 55.47234803 6.62113203 103.33730084
v 58.49532013 12.63065545 97.40495629
v 59.52439676 13.68426673 96.58535444
v 60.07994795 15.02747456 96.31215120
v 61.03461480 17.75497222 95.90886019
v 61.56141253 20.33048226 95.40148950
f 1 2 12
f 1 12 3
f 1 3 17
f 1 17 4
f 1 4 5
f 1 5 6
f 1 6 7
f 1 7 8
f 1 8 9
f 1 9 10
f 1 10 11
f 1 11 2
f 2 11 13
f 2 13 29
f 2 29 12
f 3 12 14
f 3 14 15
f 3 15 16
f 3 16 17
f 4 18 5
f 4 17 19
f 4 19 20
f 4 20 21
f 4 21 22
f 4 22 23
f 4 23 18
f 5 18 7
f 5 7 6
f 7 18 23
f 7 23 8
f 8 23 24
f 8 24 25
f 8 25 26
f 8 26 9
f 9 26 10
f 10 26 25
f 10 25 40
f 10 40 27
f 10 27 28
f 10 28 13
f 10 13 11
f 12 29 14
f 13 28 30
f 13 30 45
f 13 45 29
f 14 31 32
f 14 32 15
f 14 29 31
f 15 32 33
f 15 33 34
f 15 34 16
f 16 34 35
f 16 35 19
f 16 19 17
f 19 35 36
f 19 36 37
f 19 37 20
f 20 37 21
f 21 37 22
f 22 37 23
f 23 37 38
f 23 38 24
f 24 38 39
f 24 39 40
f 24 40 25
f 27 40 41
f 27 41 28
f 28 41 42
f 28 42 43
f 28 43 44
f 28 44 30
f 29 45 46
f 29 46 31
f 30 44 47
f 30 47 70
f 30 70 45
f 31 46 48
f 31 48 32
f 32 48 49
f 32 49 50
f 32 50 51
f 32 51 33
f 33 51 34
f 34 51 52
f 34 52 35
f 35 52 53
f 35 53 54
f 35 54 36
f 36 54 55
f 36 55 56
f 36 56 57
f 36 57 58
f 36 58 37
f 37 58 59
f 37 59 60
f 37 60 61
f 37 61 38
f 38 61 62
f 38 62 39
f 39 63 40
f 39 62 64
f 39 64 63
f 40 63 41
f 41 63 65
f 41 65 42
f 42 65 66
f 42 66 67
f 42 67 43
f 43 67 68
f 43 68 69
f 43 69 44
f 44 69 68
f 44 68 47
f 45 70 46
f 46 70 71
f 46 71 72
f 46 72 48
f 47 68 108
f 47 108 70
f 48 72 49
f 49 73 50
f 49 72 74
f 49 74 75
f 49 75 73
f 50 76 51
f 50 73 77
f 50 77 76
f 51 76 78
f 51 78 79
f 51 79 80
f 51 80 53
f 51 53 52
f 53 80 54
f 54 80 55
f 55 80 81
f 55 81 82
f 55 82 83
f 55 83 84
f 55 84 56
f 56 84 83
f 56 83 57
f 57 83 85
f 57 85 58
f 58 85 86
f 58 86 87
f 58 87 59
f 59 87 60
f 60 87 88
f 60 88 86
f 60 86 89
f 60 89 90
f 60 90 91
f 60 91 92
f 60 92 61
f 61 93 94
f 61 94 95
f 61 95 62
f 61 92 96
f 61 96 93
f 62 95 64
f 63 64 97
f 63 97 65
f 64 98 97
f 64 95 98
f 65 97 99
f 65 99 66
f 66 99 67
f 67 99 100
f 67 100 101
f 67 101 102
f 67 102 103
f 67 103 104
f 67 104 105
f 67 105 68
f 68 105 106
f 68 106 107
f 68 107 109
f 68 109 108
f 70 108 71
f 71 108 109
f 71 109 110
f 71 110 72
f 72 110 74
f 73 75 111
f 73 111 112
f 73 112 77
f 74 110 109
f 74 109 107
f 74 107 106
f 74 106 104
f 74 104 136
f 74 136 147
f 74 147 137
f 74 137 112
f 74 112 111
f 74 111 75
f 76 77 113
f 76 113 78
f 77 112 114
f 77 114 113
f 78 113 115
f 78 115 79
f 79 115 116
f 79 116 80
f 80 116 117
f 80 117 81
f 81 117 114
f 81 114 118
f 81 118 83
f 81 83 82
f 83 118 114
f 83 114 112
f 83 112 137
f 83 137 138
f 83 138 120
f 83 120 119
f 83 119 85
f 85 119 86
f 86 119 90
f 86 90 89
f 86 88 87
f 90 120 91
f 90 119 120
f 91 120 121
f 91 121 122
f 91 122 96
f 91 96 92
f 93 96 94
f 94 96 123
f 94 123 124
f 94 124 125
f 94 125 126
f 94 126 98
f 94 98 95
f 96 122 127
f 96 127 128
f 96 128 123
f 97 98 129
f 97 129 130
f 97 130 100
f 97 100 99
f 98 126 129
f 100 130 131
f 100 131 101
f 101 131 132
f 101 132 133
f 101 133 102
f 102 132 134
f 102 134 135
f 102 135 136
f 102 136 104
f 102 104 103
f 102 133 132
f 104 106 105
f 113 114 115
f 114 117 116
f 114 116 115
f 120 138 121
f 121 139 122
f 121 138 140
f 121 140 135
f 121 135 139
f 122 139 141
f 122 141 127
f 123 128 142
f 123 142 131
f 123 131 124
f 124 130 125
f 124 131 130
f 125 130 126
f 126 130 129
f 127 141 143
f 127 143 134
f 127 134 128
f 128 131 142
f 128 134 132
f 128 132 131
f 134 143 144
f 134 144 135
f 135 144 139
f 135 140 145
f 135 145 136
f 136 145 146
f 136 146 147
f 137 147 140
f 137 140 138
f 139 144 141
f 140 147 146
f 140 146 145
f 141 144 143

