# https://github.com/mikedh/trimesh
v -71.22404090 111.27273416 116.83627170
v -71.22404090 88.40678124 116.83627170
v -71.22404090 111.27273416 111.16827406
v -80.47970653 76.73012132 116.83627170
v -71.22404090 88.40678124 100.57083847
v -75.25075705 73.39393052 116.83627170
v -78.33912064 61.85292813 105.94166309
v -71.22404090 111.26770951 97.91819697
v -75.82696380 94.09437973 97.91819697
v -80.96167748 74.92636839 116.83190278
v -80.56183104 76.41860910 116.83627170
v -84.93454459 60.09942165 97.92038537
v -84.97627443 59.94366554 100.56865007
v -84.97627443 59.94366554 103.21910317
v -84.22505043 62.74726762 108.51782096
v -71.70869798 86.59800366 97.91819697
v -71.22404090 88.41180588 97.91819697
v -75.61155978 72.06749521 116.83627170
v -77.99582517 63.14419092 108.51782096
v -78.36066500 61.85292813 108.51782096
v -80.56183104 59.94366554 111.16827406
v -78.33912064 61.85292813 100.57083847
v -71.22404090 110.49395558 96.98300457
v -73.03478568 104.16826069 96.37337129
v -80.93879006 74.84095337 96.47825681
v -81.35478489 73.35373730 116.83190278
v -80.56183104 71.01739960 116.83627170
v -83.65288867 64.47565877 96.33623157
v -84.97358830 59.94366554 97.92038537
v -84.95743201 59.94366554 105.71878530
v -84.88473266 60.09942165 108.51782096
v -72.88669294 82.42274446 96.44985492
v -77.38999987 65.40014614 97.91819697
v -71.22404090 89.25087428 97.36756376
v -72.68205714 83.95517838 96.08057508
v -75.79465912 71.86149659 116.83627170
v -78.36605306 61.85292813 108.55278807
v -82.22178905 59.94366554 111.91774418
v -80.56183104 59.94366554 95.30707199
v -76.93495344 70.99730102 116.83627170
v -78.34316564 61.85292813 97.91819697
v -77.99582517 63.14419092 97.91819697
v -71.22404090 107.80591244 95.54305652
v -73.25692083 102.50518993 95.99754992
v -75.74888429 93.80296609 96.24882960
v -84.92242540 59.94366554 108.51782096
v -84.16582123 59.94366554 111.16172464
v -81.28477957 71.41934754 116.83190278
v -82.24333340 59.94366554 111.92211309
v -79.56827850 70.45969555 116.83627170
v -83.88444899 62.74726762 95.96914014
v -78.46163193 83.44269219 96.14613248
v -81.13938086 73.35373730 96.11116538
v -84.25736301 59.94366554 95.69601589
v -84.23986365 60.09942165 95.69163908
v -78.07929275 63.45570314 96.22697713
v -71.22404090 92.03940638 95.66542560
v -75.36519414 73.82100168 96.13083734
v -77.81677082 65.40014614 95.84459055
v -75.07170270 76.00660792 95.74845075
v -72.32664248 86.59800366 95.67416342
v -79.50500431 61.85292813 95.51246622
v -82.22044598 59.94366554 94.67341363
v -79.56827850 65.40014614 94.74333204
v -71.22404090 102.48509530 94.97276715
v -71.61849928 99.85231931 94.59256898
v -71.61849928 102.50518993 94.89410301
v -76.35874668 89.25087428 95.59331087
v -73.57464275 99.85231931 95.66979451
v -76.00333202 91.89872420 95.86644302
v -78.74704917 81.30732846 95.76374590
v -81.49480343 70.70086273 95.68508966
v -82.22044598 60.09942165 94.65593007
v -82.22044598 62.74726762 94.86570112
v -71.22404090 94.55159877 95.08857101
v -77.46269922 68.05301676 95.58457305
v -71.61849928 94.55159877 94.83073401
v -79.56827850 68.05301676 94.52264266
v -76.92014811 76.00660792 94.65374957
v -71.22404090 99.85231931 94.74552045
v -71.61849928 97.20446939 94.57508542
v -74.26932370 89.25087428 94.52701157
v -79.56827850 70.70086273 94.60130680
v -76.92014811 81.30732846 94.66904471
v -74.26932370 91.89872420 94.76299610
v -71.22404090 97.20446939 94.77611075
v -74.26932370 86.59800366 94.59038057
v -76.92014811 78.65445784 94.51390483
f 1 2 5
f 1 5 17
f 1 17 34
f 1 34 57
f 1 57 75
f 1 75 86
f 1 86 80
f 1 80 65
f 1 65 43
f 1 43 23
f 1 23 8
f 1 8 3
f 1 3 9
f 1 9 4
f 1 4 11
f 1 11 27
f 1 27 50
f 1 50 40
f 1 40 36
f 1 36 18
f 1 18 6
f 1 6 2
f 2 6 7
f 2 7 22
f 2 22 16
f 2 16 5
f 3 8 9
f 4 10 11
f 4 9 12
f 4 12 13
f 4 13 14
f 4 14 15
f 4 15 10
f 5 16 17
f 6 18 19
f 6 19 7
f 7 19 20
f 7 20 21
f 7 21 39
f 7 39 22
f 8 23 24
f 8 24 25
f 8 25 9
f 9 25 12
f 10 26 11
f 10 15 26
f 11 26 27
f 12 28 29
f 12 29 13
f 12 25 28
f 13 29 54
f 13 54 63
f 13 63 39
f 13 39 21
f 13 21 38
f 13 38 49
f 13 49 47
f 13 47 46
f 13 46 30
f 13 30 14
f 14 30 15
f 15 30 31
f 15 31 26
f 16 32 17
f 16 22 33
f 16 33 32
f 17 32 35
f 17 35 34
f 18 36 21
f 18 21 37
f 18 37 20
f 18 20 19
f 20 37 21
f 21 36 40
f 21 40 38
f 22 39 41
f 22 41 42
f 22 42 33
f 23 43 24
f 24 43 44
f 24 44 45
f 24 45 28
f 24 28 25
f 26 31 46
f 26 46 47
f 26 47 48
f 26 48 27
f 27 48 49
f 27 49 50
f 28 51 29
f 28 45 52
f 28 52 53
f 28 53 51
f 29 51 55
f 29 55 54
f 30 46 31
f 32 33 42
f 32 42 41
f 32 41 56
f 32 56 35
f 34 35 57
f 35 56 58
f 35 58 59
f 35 59 60
f 35 60 61
f 35 61 57
f 38 40 49
f 39 62 56
f 39 56 41
f 39 63 64
f 39 64 62
f 40 50 49
f 43 65 66
f 43 66 67
f 43 67 68
f 43 68 69
f 43 69 44
f 44 52 45
f 44 69 70
f 44 70 51
f 44 51 52
f 47 49 48
f 51 53 52
f 51 70 71
f 51 71 72
f 51 72 55
f 54 55 73
f 54 73 63
f 55 74 73
f 55 72 74
f 56 62 59
f 56 59 58
f 57 61 75
f 59 62 64
f 59 64 76
f 59 76 60
f 60 76 61
f 61 77 75
f 61 76 64
f 61 64 77
f 63 73 64
f 64 78 79
f 64 79 77
f 64 73 78
f 65 80 66
f 66 80 81
f 66 81 82
f 66 82 83
f 66 83 84
f 66 84 85
f 66 85 67
f 67 85 68
f 68 71 70
f 68 70 69
f 68 85 72
f 68 72 71
f 72 85 74
f 73 74 83
f 73 83 78
f 74 85 84
f 74 84 83
f 75 77 86
f 77 81 86
f 77 79 87
f 77 87 81
f 78 88 81
f 78 81 87
f 78 87 79
f 78 83 88
f 80 86 81
f 81 88 82
f 82 88 83

