# https://github.com/mikedh/trimesh
v 100.03202619 181.88124511 133.53878587
v 106.15534678 181.88124511 133.53878587
v 100.03098334 181.88124511 137.47539021
v 100.04979416 181.95108847 133.53878587
v 107.44710729 186.70218706 133.53878587
v 109.03882176 192.64064651 140.33311389
v 106.15534678 181.88124511 182.74109428
v 100.38423330 183.19997754 133.53878587
v 100.03098334 181.88124511 174.78894000
v 107.64672634 187.44719741 133.53878587
v 110.45912946 197.94218869 142.98558554
v 109.68260842 195.04363582 142.98558554
v 110.70786521 198.87012458 155.31116341
v 109.03882176 192.64064651 180.09388428
v 107.64672634 187.44719741 182.74109428
v 106.15012462 181.88124511 182.89897954
v 100.78346351 184.68999824 133.53878587
v 100.78346351 184.68999824 182.74109428
v 100.03202619 181.88124511 182.74109428
v 100.07383504 182.03922518 182.74109428
v 108.32814254 189.99154042 133.53878587
v 110.70682236 198.87012458 142.98558554
v 110.70786521 198.87012458 179.16762525
v 109.68260842 195.04363582 180.09388428
v 110.01495395 196.45216799 181.55695479
v 108.27379578 189.99154042 182.74109428
v 107.53803283 187.85296123 184.37783897
v 110.45912946 197.94218869 180.09388428
v 105.72058063 181.88124511 185.39356592
v 102.13375008 189.72878939 133.53878587
v 101.96235121 188.87568595 184.18311223
v 101.93413893 188.98211600 182.74109428
v 104.58350178 198.87012458 178.16242161
v 100.36646533 181.88124511 185.39356592
v 108.58733050 191.47989414 133.53878587
v 108.78903526 192.64064651 133.53878587
v 110.30236210 198.87012458 140.59625600
v 110.69637015 198.87012458 180.09388428
v 110.53750919 198.87012458 181.23065898
v 110.21457301 197.94218869 181.84641111
v 107.76900852 189.99154042 184.55677481
v 104.97855268 181.88124511 186.96189328
v 105.69654766 181.88124511 185.49356111
v 110.32848867 198.87012458 181.92009011
v 104.58350178 198.87012458 142.98558554
v 102.91445043 192.64064651 133.53878587
v 101.81499321 183.85019906 186.84084751
v 104.38806203 194.68443292 184.27784379
v 104.44031518 197.47489666 182.14639272
v 104.63157562 198.87012458 180.51491166
v 104.58454463 198.87012458 180.09388428
v 104.32535666 197.90393897 180.09388428
v 101.26317495 181.88124511 186.91452849
v 108.40652227 193.76148612 133.53878587
v 108.82665689 198.87012458 139.32791223
v 108.10761906 194.63454593 133.53878587
v 107.84111534 192.64064651 184.44625434
v 104.97855268 182.03922518 186.95662965
v 104.88135423 181.88124511 186.99347112
v 109.30741118 198.87012458 182.66741528
v 105.59621276 198.87012458 140.10154963
v 104.44031518 197.11070466 138.45427964
v 103.97001310 194.84407997 133.53878587
v 104.32535666 197.63121369 140.33311389
v 103.37639390 193.60516908 133.53878587
v 101.35200689 181.88124511 187.06188649
v 101.40008073 182.03922518 187.04609954
v 103.34503726 181.88124511 187.30397802
v 103.34503726 182.03922518 187.27766381
v 103.34503726 183.98822670 186.86716172
v 105.99440011 195.07357038 184.34626113
v 105.99440011 196.39895494 183.93575905
v 105.87212584 198.87012458 182.63583743
v 105.99440011 195.51259088 133.53878587
v 105.75925302 198.87012458 139.89103594
v 107.63313768 194.72434567 184.23047900
v 104.80923950 183.71050839 186.79348272
v 108.64585656 198.87012458 182.96739688
v 105.99440011 192.64064651 184.89885955
v 106.55562773 198.87012458 182.81477328
f 1 2 7
f 1 7 16
f 1 16 29
f 1 29 43
f 1 43 42
f 1 42 59
f 1 59 68
f 1 68 66
f 1 66 53
f 1 53 34
f 1 34 19
f 1 19 9
f 1 9 3
f 1 3 4
f 1 4 8
f 1 8 17
f 1 17 30
f 1 30 46
f 1 46 65
f 1 65 63
f 1 63 74
f 1 74 56
f 1 56 54
f 1 54 36
f 1 36 35
f 1 35 21
f 1 21 10
f 1 10 5
f 1 5 2
f 2 5 6
f 2 6 14
f 2 14 7
f 3 8 4
f 3 9 8
f 5 10 6
f 6 10 11
f 6 11 12
f 6 12 13
f 6 13 23
f 6 23 14
f 7 14 15
f 7 15 16
f 8 9 18
f 8 18 17
f 9 19 20
f 9 20 18
f 10 21 11
f 11 21 22
f 11 22 13
f 11 13 12
f 13 22 37
f 13 37 55
f 13 55 75
f 13 75 61
f 13 61 45
f 13 45 33
f 13 33 51
f 13 51 50
f 13 50 73
f 13 73 80
f 13 80 78
f 13 78 60
f 13 60 44
f 13 44 39
f 13 39 38
f 13 38 23
f 14 23 24
f 14 24 15
f 15 25 26
f 15 26 27
f 15 27 16
f 15 24 28
f 15 28 25
f 16 27 29
f 17 18 30
f 18 20 31
f 18 31 32
f 18 32 33
f 18 33 30
f 19 34 31
f 19 31 20
f 21 35 22
f 22 35 36
f 22 36 37
f 23 38 28
f 23 28 24
f 25 38 39
f 25 39 40
f 25 40 27
f 25 27 26
f 25 28 38
f 27 41 42
f 27 42 43
f 27 43 29
f 27 40 44
f 27 44 41
f 30 45 46
f 30 33 45
f 31 34 47
f 31 47 48
f 31 48 49
f 31 49 50
f 31 50 51
f 31 51 32
f 32 51 52
f 32 52 33
f 33 52 51
f 34 53 47
f 36 54 37
f 37 54 56
f 37 56 55
f 39 44 40
f 41 44 57
f 41 57 42
f 42 58 59
f 42 57 58
f 44 60 57
f 45 61 62
f 45 62 63
f 45 63 64
f 45 64 46
f 46 64 65
f 47 53 66
f 47 66 67
f 47 67 68
f 47 68 69
f 47 69 70
f 47 70 71
f 47 71 48
f 48 71 72
f 48 72 73
f 48 73 49
f 49 73 50
f 55 74 75
f 55 56 74
f 57 76 77
f 57 77 58
f 57 60 76
f 58 77 68
f 58 68 59
f 60 78 76
f 61 75 63
f 61 63 62
f 63 65 64
f 63 75 74
f 66 68 67
f 68 77 69
f 69 77 79
f 69 79 70
f 70 79 71
f 71 76 78
f 71 78 72
f 71 79 76
f 72 78 80
f 72 80 73
f 76 79 77

