# https://github.com/mikedh/trimesh
v -41.16049661 82.53191199 196.04843534
v -39.65471859 81.21259888 196.04843534
v -41.13852959 82.61718086 197.35943132
v -41.16049661 82.74982044 196.04843534
v -39.81864765 82.12451279 198.40667686
v -37.66222149 80.12067468 196.04843534
v -41.13852959 82.65981529 197.35943132
v -38.94323353 82.40163858 200.50726112
v -39.53810889 83.87491046 201.70854642
v -39.62937020 84.16387893 201.70854642
v -40.13974304 86.60590800 201.70854642
v -40.75828006 89.22321503 196.04843534
v -37.15522212 79.98092475 196.04843534
v -37.15522212 80.22015634 196.68564789
v -37.15522212 81.02784836 198.65158686
v -38.24526603 82.65981529 201.70854642
v -40.05862583 87.01094104 201.70854642
v -39.45867841 89.25400678 201.70854642
v -39.35728091 89.60692888 201.70854642
v -38.79113135 91.25310861 201.70854642
v -39.53472753 91.18678487 196.04843534
v -35.67310180 80.02119302 197.21647384
v -35.12385511 79.43614574 196.04843534
v -37.40195907 82.39926846 201.70854642
v -33.90537068 79.78433155 197.78276166
v -34.67431920 80.36463860 198.66045306
v -31.24701719 100.62803846 201.70854642
v -33.64511221 96.59904306 196.04843534
v -25.30839184 77.30440433 197.37826979
v -26.24633751 77.05807029 196.04843534
v -27.07612296 77.54363197 196.75213951
v -32.49760880 80.16093900 199.54977977
v -29.82742448 80.36937488 201.70854642
v -29.64997786 100.47881597 201.70854642
v -30.36822171 98.68341375 196.98042808
v -30.97323722 98.68341375 196.98042808
v -31.85541407 97.86861534 196.04843534
v -32.17482273 97.64596666 196.04843534
v -23.90062995 76.43275869 196.04843534
v -23.90062995 77.11965380 197.81877754
v -23.90062995 77.68338190 199.14362685
v -28.19151525 79.93118392 201.70854642
v -29.10918064 99.91508788 201.70854642
v -29.36098964 97.03249774 196.04843534
v -23.89725254 91.26021105 196.04843534
v -23.89725254 77.11965380 197.81988656
v -23.89725254 80.12304085 196.04843534
v -23.89725254 77.68338190 199.14473488
v -23.89725254 78.60713453 201.30183850
v -26.87163331 79.57826183 201.70854642
v -23.89725254 94.30860660 201.70854642
v -23.89725254 94.23991669 201.57223711
v -23.90062995 78.78478261 201.70854642
v -23.89725254 82.50585652 201.70854642
f 1 2 3
f 1 3 7
f 1 7 4
f 1 4 12
f 1 12 21
f 1 21 28
f 1 28 38
f 1 38 37
f 1 37 44
f 1 44 45
f 1 45 47
f 1 47 39
f 1 39 30
f 1 30 23
f 1 23 13
f 1 13 6
f 1 6 2
f 2 5 3
f 2 6 5
f 3 5 8
f 3 8 9
f 3 9 10
f 3 10 11
f 3 11 7
f 4 7 12
f 5 6 8
f 6 13 14
f 6 14 15
f 6 15 16
f 6 16 8
f 7 11 12
f 8 16 9
f 9 16 24
f 9 24 33
f 9 33 42
f 9 42 50
f 9 50 53
f 9 53 54
f 9 54 51
f 9 51 43
f 9 43 34
f 9 34 27
f 9 27 20
f 9 20 19
f 9 19 18
f 9 18 17
f 9 17 11
f 9 11 10
f 11 17 12
f 12 18 19
f 12 19 20
f 12 20 21
f 12 17 18
f 13 22 14
f 13 23 22
f 14 22 15
f 15 24 16
f 15 22 25
f 15 25 26
f 15 26 24
f 20 27 21
f 21 27 28
f 22 23 29
f 22 29 25
f 23 30 31
f 23 31 29
f 24 26 32
f 24 32 29
f 24 29 33
f 25 29 26
f 26 29 32
f 27 34 35
f 27 35 36
f 27 36 37
f 27 37 38
f 27 38 28
f 29 31 30
f 29 30 39
f 29 39 40
f 29 40 41
f 29 41 42
f 29 42 33
f 34 43 35
f 35 44 37
f 35 37 36
f 35 43 45
f 35 45 44
f 39 46 40
f 39 47 46
f 40 46 48
f 40 48 41
f 41 48 49
f 41 49 42
f 42 49 50
f 43 51 52
f 43 52 45
f 45 52 51
f 45 51 54
f 45 54 49
f 45 49 48
f 45 48 46
f 45 46 47
f 49 53 50
f 49 54 53

