# https://github.com/mikedh/trimesh
v 11.19448058 78.88346238 220.13449425
v 13.61583038 78.23226911 220.13449425
v 11.19448058 79.21520354 220.68370144
v 11.19448058 87.84865847 220.13449425
v 18.68717013 76.87254158 220.13449425
v 11.19448058 79.74762635 221.56397034
v 11.19448058 108.38792796 246.35007653
v 44.81599926 113.66711402 246.35007653
v 41.03779569 93.23433186 221.17901219
v 39.99204332 92.20224518 220.13449425
v 21.48334091 76.12305171 220.13449425
v 14.86023895 80.06708241 223.69663215
v 13.21477124 80.28824187 223.33477077
v 11.19448058 80.45616062 222.71627325
v 30.05176776 74.57083127 221.35865906
v 15.78979639 79.20291844 222.69317647
v 11.19448058 98.48894180 246.35007653
v 44.81599926 113.66711402 246.35264416
v 47.84081215 113.87189203 246.35007653
v 41.06778160 93.23433186 221.17901219
v 41.84366271 91.88688942 220.13449425
v 26.46847066 74.78789832 220.13449425
v 23.81848072 77.54011630 223.49132086
v 25.22781083 77.35171974 223.79928581
v 16.62564933 79.82953756 224.06875613
v 11.19448058 81.89779936 224.98238837
v 29.14844750 75.41861379 222.34928056
v 26.25482250 76.43840747 222.75477183
v 29.02475610 74.10393821 220.13449425
v 29.14844750 74.07117136 220.13449425
v 29.24215299 74.04659720 220.13449425
v 38.92380052 72.14216175 220.13449425
v 39.71842332 72.29369511 220.66060071
v 40.28440500 74.38243471 224.23813645
v 32.83669333 77.27390489 226.57354586
v 31.07128295 77.46639779 226.28354244
v 29.11846159 76.83158598 224.58973128
v 11.19448058 98.20634894 246.03954791
v 11.97785915 98.27597504 246.35007653
v 48.45177270 94.55310379 246.35007653
v 48.92779466 96.12580203 246.35007653
v 49.28387691 97.44867032 246.35007653
v 49.48628085 99.84866933 246.35007653
v 48.62793551 110.71421044 246.35007653
v 48.26435975 113.13878558 246.35007653
v 13.55960729 97.85003363 246.35007653
v 26.18360644 94.46709624 246.35007653
v 34.57961527 92.21863058 246.35007653
v 42.37216101 90.94900300 246.35007653
v 43.87519759 90.71965084 246.35007653
v 45.02215193 90.60497674 246.35007653
v 47.19611893 91.82545602 246.35007653
v 47.20736315 91.84593382 246.35007653
v 46.75382964 107.15516357 239.05385674
v 44.00638548 96.32648369 225.90885083
v 41.86240440 91.87050797 220.13449425
v 26.99322220 77.11417884 224.16371087
v 11.19448058 82.76605968 226.28611007
v 18.51475211 79.57561520 224.44858299
v 39.71842332 72.03567245 220.13449425
v 41.53256131 74.38243471 224.23813645
v 43.68029112 82.62271508 237.09570657
v 39.71842332 78.67458803 230.46417786
v 31.76845251 79.58380395 229.71222702
v 31.88089871 78.15445031 227.60009832
v 29.11846159 77.71213140 225.91654976
v 11.19448058 97.91965973 245.72388009
v 46.39774739 87.87323262 242.46714346
v 47.72086849 91.90736722 243.71696873
v 43.76650013 77.22066419 226.72752833
v 43.78898858 77.11008249 225.16203524
v 46.54767697 87.24251715 235.76375679
v 44.97342630 81.30394315 227.81310457
v 43.48912943 75.76264005 220.13449425
v 43.80023281 76.95035643 220.13449425
v 44.12257843 78.65411023 220.13449425
v 49.18642170 97.80088533 244.67166323
v 49.18642170 98.95993121 244.67166323
v 49.47128592 99.84866933 246.27821857
v 46.51769106 104.35788970 236.63632677
v 43.80772830 93.58654687 223.39123087
v 11.19448058 96.90805481 244.60237289
v 23.81848072 94.90122640 246.12936740
v 23.81848072 93.57426177 244.65626537
v 29.11846159 91.54285921 243.97360882
v 34.41844344 90.83432890 244.76148667
v 43.14804212 85.09234414 239.97005266
v 42.37216101 87.66845461 242.71094938
v 42.37216101 88.85616704 244.03520418
v 44.08884576 85.09234414 239.97005266
v 46.64887894 90.26913923 245.47750655
v 42.83319198 89.25753430 220.13449425
v 15.86476118 82.13943662 227.21514016
v 11.19448058 82.95445624 226.56584693
v 42.05731087 73.17424448 220.13449425
v 41.95611088 73.84591555 222.51096196
v 43.75525393 79.91554511 231.91675073
v 43.70652830 82.62271508 237.09570657
v 34.41844344 88.33193693 241.90510605
v 32.37191560 85.08824779 237.32411463
v 31.76845251 82.83158944 234.16490037
v 31.76845251 81.84865501 232.84321319
v 31.76845251 80.52578672 231.03648182
v 39.71842332 79.76401175 232.07330083
v 29.88684622 79.82953756 229.35293721
v 29.05099328 79.13738869 228.00045433
v 28.12143485 80.06708241 229.00904131
v 15.86476118 83.03227109 228.53939101
v 43.28297873 75.68072885 222.51096196
v 43.43665507 75.62339180 220.13449425
v 44.25001956 78.65411023 225.16203524
v 44.04011815 80.64865353 220.13449425
v 11.19448058 96.59269510 244.25077806
v 17.29283199 93.25890206 242.35935455
v 18.31234817 94.09030313 243.59121829
v 21.16848979 93.93057708 244.26361224
v 27.66415260 90.54763969 242.43121251
v 29.11846159 90.35514678 242.64935797
v 34.41844344 89.65890156 243.43723581
v 13.01236730 83.25343450 227.73354769
v 11.19448058 83.78176096 227.79257542
v 31.76845251 88.68005954 241.49448349
v 31.76845251 87.58244706 240.16766501
v 31.59978125 84.26913577 235.99472853
v 31.59978125 86.08756762 238.29163935
v 11.19448058 92.98450190 240.03934694
v 11.19448058 91.03091420 237.65261268
v 11.64051860 90.51896919 237.17013216
v 30.60650423 85.32578870 237.03411516
v 29.11846159 85.52237796 236.77747507
v 26.46847066 84.86708439 234.98870917
v 12.42389717 88.07391427 234.24445726
v 15.89849484 86.16538247 232.93303663
v 26.35977320 83.40087545 232.98436544
v 29.11846159 82.20087002 232.36586792
v 29.05099328 80.74694618 230.32816086
v 25.40022885 82.70052993 231.69604159
v 21.16848979 83.26571960 230.90302850
v 23.81848072 81.96742546 230.07665602
v 21.16848979 82.32374077 229.57621002
v 11.19448058 84.98585879 229.56081217
v 19.51927434 82.54490023 229.26311377
v 11.19448058 95.40907507 242.92652721
v 15.86476118 93.45139496 242.12581519
v 11.19448058 93.93467343 241.18651854
v 11.19448058 93.05822040 240.12917038
v 23.81848072 89.97016492 240.48589651
v 11.19448058 90.18313168 236.57986271
v 18.51475211 88.27050353 236.65428830
v 15.86476118 87.61520996 234.86295478
v 11.19448058 89.60975326 235.83304713
v 11.19448058 88.24183303 234.02374812
v 11.19448058 87.28756515 232.74569083
v 15.03640472 85.41179625 231.60878578
v 13.21477124 85.65752986 231.27002118
v 11.19448058 85.21111460 229.87904367
v 13.21477124 93.81180662 241.69466347
v 11.19448058 85.92783762 230.88763064
f 1 2 3
f 1 3 6
f 1 6 14
f 1 14 26
f 1 26 58
f 1 58 94
f 1 94 121
f 1 121 141
f 1 141 156
f 1 156 158
f 1 158 153
f 1 153 152
f 1 152 151
f 1 151 148
f 1 148 127
f 1 127 126
f 1 126 146
f 1 146 145
f 1 145 143
f 1 143 113
f 1 113 82
f 1 82 67
f 1 67 38
f 1 38 17
f 1 17 7
f 1 7 4
f 1 4 10
f 1 10 21
f 1 21 56
f 1 56 92
f 1 92 112
f 1 112 76
f 1 76 75
f 1 75 74
f 1 74 110
f 1 110 95
f 1 95 60
f 1 60 32
f 1 32 31
f 1 31 30
f 1 30 29
f 1 29 22
f 1 22 11
f 1 11 5
f 1 5 2
f 2 5 6
f 2 6 3
f 4 7 8
f 4 8 9
f 4 9 10
f 5 11 6
f 6 12 13
f 6 13 14
f 6 11 15
f 6 15 16
f 6 16 12
f 7 17 18
f 7 18 8
f 8 18 19
f 8 19 9
f 9 19 20
f 9 20 10
f 10 20 21
f 11 22 15
f 12 16 23
f 12 23 24
f 12 24 25
f 12 25 26
f 12 26 13
f 13 26 14
f 15 27 24
f 15 24 28
f 15 28 16
f 15 22 29
f 15 29 30
f 15 30 31
f 15 31 32
f 15 32 33
f 15 33 34
f 15 34 35
f 15 35 36
f 15 36 37
f 15 37 27
f 16 28 23
f 17 38 39
f 17 39 18
f 18 40 41
f 18 41 42
f 18 42 43
f 18 43 44
f 18 44 45
f 18 45 19
f 18 39 46
f 18 46 47
f 18 47 48
f 18 48 49
f 18 49 50
f 18 50 51
f 18 51 52
f 18 52 53
f 18 53 40
f 19 45 54
f 19 54 55
f 19 55 21
f 19 21 20
f 21 55 56
f 23 28 24
f 24 27 57
f 24 57 25
f 25 58 26
f 25 57 59
f 25 59 58
f 27 37 57
f 32 60 33
f 33 60 61
f 33 61 34
f 34 61 98
f 34 98 62
f 34 62 63
f 34 63 35
f 35 63 64
f 35 64 65
f 35 65 36
f 36 66 37
f 36 65 64
f 36 64 66
f 37 66 57
f 38 67 39
f 39 67 46
f 40 53 68
f 40 68 69
f 40 69 70
f 40 70 71
f 40 71 72
f 40 72 41
f 41 72 73
f 41 73 42
f 42 73 74
f 42 74 75
f 42 75 76
f 42 76 77
f 42 77 43
f 43 77 78
f 43 78 79
f 43 79 44
f 44 79 78
f 44 78 80
f 44 80 45
f 45 80 81
f 45 81 54
f 46 67 82
f 46 82 83
f 46 83 47
f 47 83 48
f 48 83 84
f 48 84 85
f 48 85 86
f 48 86 87
f 48 87 88
f 48 88 89
f 48 89 49
f 49 89 50
f 50 89 87
f 50 87 51
f 51 90 91
f 51 91 52
f 51 87 90
f 52 91 68
f 52 68 53
f 54 81 55
f 55 81 56
f 56 81 92
f 57 66 59
f 58 93 94
f 58 59 66
f 58 66 93
f 60 95 96
f 60 96 61
f 61 96 70
f 61 70 97
f 61 97 98
f 62 98 90
f 62 90 87
f 62 87 99
f 62 99 100
f 62 100 101
f 62 101 102
f 62 102 103
f 62 103 104
f 62 104 63
f 63 104 64
f 64 104 103
f 64 103 105
f 64 105 66
f 66 105 106
f 66 106 107
f 66 107 108
f 66 108 93
f 68 91 98
f 68 98 97
f 68 97 70
f 68 70 69
f 70 96 95
f 70 95 109
f 70 109 110
f 70 110 74
f 70 74 71
f 71 74 111
f 71 111 72
f 72 111 73
f 73 111 74
f 76 112 78
f 76 78 77
f 78 112 80
f 80 112 81
f 81 112 92
f 82 113 114
f 82 114 115
f 82 115 116
f 82 116 84
f 82 84 83
f 84 116 115
f 84 115 85
f 85 117 86
f 85 115 117
f 86 117 118
f 86 118 119
f 86 119 87
f 87 89 88
f 87 119 99
f 90 98 91
f 93 108 120
f 93 120 94
f 94 120 121
f 95 110 109
f 99 119 118
f 99 118 117
f 99 117 122
f 99 122 123
f 99 123 100
f 100 124 101
f 100 123 125
f 100 125 126
f 100 126 127
f 100 127 128
f 100 128 129
f 100 129 124
f 101 124 130
f 101 130 131
f 101 131 132
f 101 132 133
f 101 133 134
f 101 134 135
f 101 135 102
f 102 135 103
f 103 136 105
f 103 135 137
f 103 137 138
f 103 138 136
f 105 136 139
f 105 139 140
f 105 140 141
f 105 141 142
f 105 142 107
f 105 107 106
f 107 142 108
f 108 142 141
f 108 141 121
f 108 121 120
f 113 143 114
f 114 143 144
f 114 144 145
f 114 145 146
f 114 146 147
f 114 147 123
f 114 123 117
f 114 117 115
f 117 123 122
f 123 147 125
f 124 129 130
f 125 147 126
f 126 147 146
f 127 148 128
f 128 148 149
f 128 149 130
f 128 130 129
f 130 149 131
f 131 149 150
f 131 150 132
f 132 150 151
f 132 151 152
f 132 152 153
f 132 153 133
f 133 153 154
f 133 154 135
f 133 135 134
f 135 154 137
f 136 138 139
f 137 154 138
f 138 154 155
f 138 155 139
f 139 141 140
f 139 155 156
f 139 156 141
f 143 145 157
f 143 157 144
f 144 157 145
f 148 151 149
f 149 151 150
f 153 158 155
f 153 155 154
f 155 158 156

