# https://github.com/mikedh/trimesh
v 61.56259759 15.45622060 129.73426019
v 61.56259759 15.63198049 121.74518049
v 63.57846799 22.98084055 127.08461292
v 64.77461408 27.44492207 127.08461292
v 65.04865082 28.46765074 129.12203162
v 61.56259759 15.45622060 216.68072595
v 61.56259759 17.81499145 120.43039430
v 62.02945115 17.75257840 121.63477655
v 65.04114545 28.46765074 124.43496961
v 65.04797139 28.46765074 127.08461292
v 65.04865082 28.46765074 217.20262545
v 63.57846799 22.98084055 219.85226876
v 61.56259759 15.45749257 219.85226876
v 61.56259759 28.46765074 121.82547212
v 63.74159516 28.46765074 121.95594699
v 64.15828522 28.46765074 122.28715092
v 64.86504980 28.46765074 219.85226876
v 64.21493493 25.63254192 219.85226876
v 62.34103053 18.68487926 221.59862539
v 61.56259759 15.79755678 221.56851702
v 61.56259759 28.46765074 221.85957514
v 64.78485298 28.46765074 220.37416826
v 62.56183051 20.33168312 221.94990420
v 61.56259759 16.67254033 222.49187858
v 61.56259759 26.27955193 222.41158696
v 61.66975448 28.46765074 221.84954165
v 63.72794329 28.46765074 221.55847958
v 62.91675141 22.98084055 222.07034559
v 61.56259759 17.41252209 222.73275345
v 61.56259759 23.72082231 222.80301158
v 61.56259759 21.20157882 222.96359483
v 63.19795380 25.63254192 221.90975839
f 1 2 3
f 1 3 4
f 1 4 5
f 1 5 11
f 1 11 6
f 1 6 13
f 1 13 20
f 1 20 24
f 1 24 29
f 1 29 31
f 1 31 30
f 1 30 25
f 1 25 21
f 1 21 14
f 1 14 7
f 1 7 2
f 2 7 8
f 2 8 9
f 2 9 3
f 3 9 4
f 4 10 5
f 4 9 10
f 5 10 9
f 5 9 16
f 5 16 15
f 5 15 14
f 5 14 21
f 5 21 26
f 5 26 27
f 5 27 22
f 5 22 17
f 5 17 11
f 6 11 12
f 6 12 13
f 7 14 15
f 7 15 16
f 7 16 9
f 7 9 8
f 11 17 18
f 11 18 12
f 12 18 19
f 12 19 13
f 13 19 20
f 17 22 18
f 18 22 19
f 19 22 23
f 19 23 24
f 19 24 20
f 21 25 26
f 22 27 28
f 22 28 23
f 23 28 29
f 23 29 24
f 25 30 27
f 25 27 26
f 27 30 31
f 27 31 32
f 27 32 28
f 28 32 31
f 28 31 29

