# https://github.com/mikedh/trimesh
v 60.92912884 22.97787791 94.46515155
v 60.92912884 25.63347416 94.37747307
v 61.56225788 25.63347416 94.66683261
v 61.56225788 22.97787791 94.82247811
v 58.53136169 22.97787791 95.47135261
v 58.88412972 25.63347416 95.52615759
v 60.92912884 28.28456719 94.67121732
v 61.56225788 33.58525218 95.31571501
v 61.56225788 28.26955646 94.83563225
v 61.56225788 22.97787791 111.07512851
v 57.45617050 22.97787791 97.91780195
v 59.23930738 28.28456719 95.84621803
v 61.56225788 35.72894292 95.55465428
v 61.56225788 33.49818203 116.77035087
v 60.92912884 22.97787791 111.33599135
v 58.16451911 25.63347416 97.91780195
v 59.47944751 30.07548200 96.26272638
v 57.45335402 22.97787791 100.56812074
v 57.45415986 22.98238113 100.56812074
v 61.56225788 36.23634521 95.83525229
v 61.56225788 38.31398082 116.77035087
v 61.42669910 33.64229297 116.77035087
v 58.58043889 22.97787791 110.65423544
v 61.56225788 38.31398082 97.91780195
v 57.45335402 22.97787791 105.86875833
v 57.45415986 22.98238113 105.86875833
v 61.00555323 36.23634521 116.77035087
v 57.50564667 22.97787791 108.51906922
f 1 2 3
f 1 3 4
f 1 4 10
f 1 10 15
f 1 15 23
f 1 23 28
f 1 28 25
f 1 25 18
f 1 18 11
f 1 11 5
f 1 5 2
f 2 5 6
f 2 6 7
f 2 7 8
f 2 8 9
f 2 9 3
f 3 9 8
f 3 8 13
f 3 13 20
f 3 20 24
f 3 24 21
f 3 21 14
f 3 14 10
f 3 10 4
f 5 11 6
f 6 11 12
f 6 12 13
f 6 13 7
f 7 13 8
f 10 14 15
f 11 16 17
f 11 17 12
f 11 18 19
f 11 19 16
f 12 17 13
f 13 17 20
f 14 21 27
f 14 27 22
f 14 22 23
f 14 23 15
f 16 19 26
f 16 26 27
f 16 27 21
f 16 21 24
f 16 24 17
f 17 24 20
f 18 25 26
f 18 26 19
f 22 27 23
f 23 27 28
f 25 28 26
f 26 28 27

