# https://github.com/mikedh/trimesh
v -58.36063240 147.13247565 86.54525949
v -60.68561330 147.13247565 87.57942002
v -58.36063240 147.57678941 86.52227727
v -53.05848584 166.13934282 86.56824171
v -55.70955517 155.53217000 86.61420616
v -56.26217927 147.13247565 87.62538446
v -60.59102198 147.57678941 87.56792496
v -58.36063240 150.22858360 86.63718048
v -61.61162545 147.13247565 89.96948430
v -60.23505429 150.22858360 87.75178274
v -55.70955517 158.18396419 86.52227727
v -47.76131258 187.33958230 86.51079011
v -50.40989723 176.73946453 86.53376443
v -42.45916206 205.89508066 86.55675455
v -45.11023534 195.28791180 86.60271900
v -47.76131258 184.68779008 86.67165777
v -50.40989723 174.08766837 86.76358666
v -53.81273570 155.53217000 87.72880052
v -54.16620687 152.88037779 88.19991634
v -54.35788603 151.45574463 88.56762400
v -55.48801255 147.13247565 89.96948430
v -55.70955517 160.83575641 86.71762221
v -47.76131258 189.98432342 86.66017060
v -50.40989723 179.39125675 86.59122394
v -53.05848584 168.78408394 86.54525949
v -61.49462863 147.57678941 89.96948430
v -59.69736982 154.24859034 88.61358055
v -59.87908659 152.88037779 88.24588078
v -61.61411407 147.13247565 100.04680587
v -57.48938573 160.83575641 87.84371163
v -46.86268317 200.59149623 87.86668595
v -49.60586310 189.98432342 87.77475706
v -52.35152770 179.39125675 87.69433113
v -55.09719625 168.78408394 87.63687953
v -45.11023534 197.93970402 86.52227727
v -42.45916206 208.54687683 86.55675455
v -39.80808483 213.84340622 86.77507382
v -42.45916206 203.24329240 86.85550765
v -40.43787201 205.89508066 87.64836669
v -43.18602918 195.28791180 87.70581829
v -45.93169773 184.68779008 87.78625212
v -48.67736233 174.08766837 87.88966818
v -51.42054226 163.48755060 88.02755361
v -48.92878027 172.19050917 88.28035017
v -51.64457746 161.82312690 88.41824350
v -43.73864538 191.14801078 88.52165956
v -38.22491068 211.56540891 89.96948430
v -43.29555618 192.63611564 89.96948430
v -55.36852711 147.57678941 89.96948430
v -55.35608400 147.57678941 97.92102530
v -55.47805806 147.13247565 97.92102530
v -45.11023534 200.59149623 86.74059653
v -57.31264620 163.19133945 89.96948430
v -45.16002358 208.54687683 89.96948430
v -43.93779041 213.09583219 89.96948430
v -43.88800218 212.90540919 88.38376622
v -54.50474631 173.21314304 88.34929683
v -57.22054350 162.84575879 88.23438572
v -61.61411407 147.13247565 166.83058392
v -54.74371718 171.43587615 87.95861485
v -44.47049369 208.54687683 87.65985385
v -44.11701857 211.19161795 87.99308423
v -42.45916206 211.19161795 86.86700271
v -42.63092041 213.81520184 87.60240224
v -41.86173487 215.80404501 87.91265040
v -39.80808483 215.93098841 87.63687953
v -38.12533817 215.54309526 88.02755361
v -38.08799699 213.84340622 87.88966818
v -40.79383970 203.24329240 87.99308423
v -43.53950430 192.63611564 88.14246473
v -38.31203614 211.88277532 88.25737584
v -41.02534076 201.51539107 88.37227906
v -37.69220345 213.84340622 89.96948430
v -36.19366219 219.14699855 97.92102530
v -36.90310500 216.49520238 97.92102530
v -54.68148584 150.08753208 97.92102530
v -55.47805806 147.13247565 98.36915890
v -55.36852711 147.57678941 198.64825289
v -55.48801255 147.13247565 199.08489933
v -57.31264620 163.19133945 195.99390885
v -42.30980527 219.18225797 97.92102530
v -45.16002358 208.54687683 185.38801985
v -43.55195136 214.42173027 89.96948430
v -46.60131075 202.53802494 88.25737584
v -51.99805653 182.04304896 88.10799534
v -61.61162545 147.13247565 198.64825289
v -61.49462863 147.57678941 198.64825289
v -41.77959061 219.18225797 95.23220793
v -39.80808483 219.18225797 94.09463135
v -39.43718541 219.18225797 94.20954246
v -37.48061532 219.18225797 95.11729682
v -36.18619632 219.18225797 97.92102530
v -36.19366219 219.14699855 182.74516297
v -36.90310500 216.49520238 182.74516297
v -44.07221153 189.73747981 190.69670793
v -53.23771400 155.53217000 198.64825289
v -54.35788603 151.45574463 200.10756874
v -55.61496385 147.13247565 201.29110977
v -60.07325438 152.88037779 198.64825289
v -59.70234706 154.26269450 198.64825289
v -55.81162026 168.78408394 195.99390885
v -52.97136039 179.39125675 193.33956481
v -41.78207923 219.18225797 95.24370299
v -42.30980527 219.18225797 182.74516297
v -46.68594758 202.84834420 188.04236389
v -61.53445448 147.13247565 201.29110977
v -59.69736982 154.24859034 200.01564380
v -36.18619632 219.18225797 182.74516297
v -36.98276459 216.49520238 185.38801985
v -37.61503643 213.84340622 185.38801985
v -40.45529631 203.24329240 188.04236389
v -43.73864538 191.14801078 192.09857218
v -49.01839435 172.40208941 197.39576915
v -55.69462344 147.13247565 201.62433620
v -49.42912356 192.60085226 190.69670793
v -43.93779041 213.09583219 185.38801985
v -43.56937566 214.42173027 185.38801985
v -42.99186534 216.49520238 185.38801985
v -42.22019119 219.18225797 185.38801985
v -49.06817863 193.92675035 190.69670793
v -60.81007598 147.13247565 202.88831106
v -60.05831475 150.22858360 202.93427551
v -59.77454079 151.77311301 202.70446118
v -61.40501455 147.57678941 201.29110977
v -60.60595371 150.22858360 201.29110977
v -57.13840319 162.42965336 200.07309541
v -54.47238633 173.01566894 197.43024248
v -51.78397187 183.51705163 194.74142511
v -52.25444776 182.04304896 193.33956481
v -36.48241734 219.18225797 185.33056430
v -36.49735302 219.14699855 185.38801985
v -38.31203614 211.88277532 187.12311053
v -43.55195136 192.63611564 192.30540428
v -46.26525993 182.57905065 194.85633227
v -38.04817115 213.84340622 187.39888535
v -40.79383970 203.24329240 189.84639729
v -49.00097004 174.08766837 197.39576915
v -56.35428197 147.57678941 203.18706811
v -56.38664196 147.13247565 203.18706811
v -37.77186305 216.49520238 187.38739424
v -40.55984606 205.89508066 189.90385285
v -43.36028009 195.28791180 192.40882034
v -46.17564585 184.68779008 194.90229672
v -42.21521395 219.18225797 185.42248924
v -60.60595371 147.13247565 203.31346638
v -60.50140790 147.57678941 203.27899305
v -58.36063240 147.57678941 203.84203776
v -58.36063240 150.22858360 203.23303255
v -54.41514013 164.84165701 199.98117047
v -46.53659079 199.50539067 192.08708107
v -43.94774490 210.28182530 189.50167975
v -41.63272244 219.18225797 187.18056214
v -36.49735302 219.18225797 185.38801985
v -49.04079589 175.56872608 197.34980865
v -56.40157368 150.22858360 202.92278439
v -56.69033279 147.13247565 203.34793972
v -37.62748349 219.18225797 187.14609275
v -37.64241917 219.14699855 187.16907103
v -58.81119142 147.13247565 203.78458220
v -54.30312056 164.84165701 199.98117047
v -58.36063240 147.13247565 203.88799825
v -50.40989723 175.86493525 197.41875137
v -45.11023534 199.56181127 192.09857218
v -39.80808483 219.14699855 187.64019079
v -39.80559621 219.18225797 187.62869968
v -43.70130816 199.42075778 192.05260773
v -40.81126400 210.43698098 189.49018863
v -37.64740036 219.18225797 187.15758386
v -39.78568329 219.18225797 187.62869968
v -39.80808483 216.49520238 188.19174439
v -47.76131258 187.11389987 194.90229672
v -45.11023534 197.93970402 192.46627194
v -42.45916206 208.54687683 190.05322939
f 1 2 3
f 1 3 4
f 1 4 5
f 1 5 6
f 1 6 21
f 1 21 51
f 1 51 77
f 1 77 79
f 1 79 98
f 1 98 114
f 1 114 139
f 1 139 156
f 1 156 161
f 1 161 159
f 1 159 145
f 1 145 121
f 1 121 106
f 1 106 86
f 1 86 59
f 1 59 29
f 1 29 9
f 1 9 2
f 2 7 8
f 2 8 3
f 2 9 10
f 2 10 7
f 3 11 12
f 3 12 13
f 3 13 4
f 3 8 11
f 4 14 15
f 4 15 5
f 4 13 14
f 5 15 16
f 5 16 17
f 5 17 6
f 6 17 18
f 6 18 19
f 6 19 20
f 6 20 21
f 7 10 8
f 8 22 52
f 8 52 23
f 8 23 24
f 8 24 25
f 8 25 11
f 8 10 22
f 9 26 27
f 9 27 28
f 9 28 10
f 9 29 26
f 10 28 30
f 10 30 31
f 10 31 32
f 10 32 33
f 10 33 34
f 10 34 22
f 11 25 35
f 11 35 12
f 12 35 14
f 12 14 13
f 14 36 37
f 14 37 15
f 14 35 36
f 15 37 16
f 16 37 38
f 16 38 17
f 17 38 39
f 17 39 40
f 17 40 18
f 18 40 41
f 18 41 42
f 18 42 43
f 18 43 19
f 19 43 44
f 19 44 45
f 19 45 20
f 20 45 72
f 20 72 46
f 20 46 47
f 20 47 48
f 20 48 49
f 20 49 21
f 21 49 50
f 21 50 51
f 22 34 52
f 23 52 36
f 23 36 24
f 24 36 25
f 25 36 35
f 26 53 27
f 26 29 53
f 27 53 54
f 27 54 55
f 27 55 56
f 27 56 57
f 27 57 58
f 27 58 28
f 28 58 30
f 29 59 80
f 29 80 53
f 30 58 60
f 30 60 31
f 31 61 32
f 31 60 62
f 31 62 61
f 32 61 33
f 33 61 52
f 33 52 34
f 36 52 63
f 36 63 37
f 37 63 64
f 37 64 65
f 37 65 66
f 37 66 67
f 37 67 68
f 37 68 39
f 37 39 38
f 39 68 40
f 40 68 69
f 40 69 41
f 41 69 42
f 42 69 43
f 43 69 70
f 43 70 44
f 44 71 72
f 44 72 45
f 44 70 71
f 46 72 47
f 47 72 71
f 47 71 73
f 47 73 74
f 47 74 75
f 47 75 76
f 47 76 48
f 48 76 49
f 49 76 50
f 50 77 51
f 50 76 78
f 50 78 79
f 50 79 77
f 52 61 63
f 53 80 82
f 53 82 54
f 54 81 55
f 54 82 104
f 54 104 81
f 55 83 56
f 55 81 83
f 56 65 64
f 56 64 62
f 56 62 84
f 56 84 57
f 56 83 65
f 57 84 58
f 58 62 85
f 58 85 60
f 58 84 62
f 59 86 87
f 59 87 80
f 60 85 62
f 61 62 63
f 62 64 63
f 65 83 88
f 65 88 89
f 65 89 66
f 66 89 90
f 66 90 91
f 66 91 67
f 67 91 92
f 67 92 68
f 68 92 73
f 68 73 71
f 68 71 69
f 69 71 70
f 73 92 74
f 74 92 108
f 74 108 93
f 74 93 94
f 74 94 75
f 75 94 76
f 76 94 95
f 76 95 78
f 78 95 96
f 78 96 79
f 79 96 97
f 79 97 98
f 80 87 99
f 80 99 100
f 80 100 101
f 80 101 102
f 80 102 82
f 81 103 83
f 81 104 119
f 81 119 144
f 81 144 152
f 81 152 165
f 81 165 169
f 81 169 168
f 81 168 157
f 81 157 153
f 81 153 130
f 81 130 108
f 81 108 92
f 81 92 91
f 81 91 90
f 81 90 89
f 81 89 88
f 81 88 103
f 82 102 105
f 82 105 104
f 83 103 88
f 86 106 87
f 87 106 107
f 87 107 99
f 93 108 109
f 93 109 110
f 93 110 94
f 94 110 95
f 95 110 111
f 95 111 96
f 96 112 97
f 96 111 112
f 97 113 114
f 97 114 98
f 97 112 113
f 99 107 100
f 100 107 101
f 101 107 115
f 101 115 105
f 101 105 102
f 104 105 116
f 104 116 117
f 104 117 118
f 104 118 119
f 105 115 120
f 105 120 116
f 106 121 122
f 106 122 123
f 106 123 124
f 106 124 107
f 107 124 125
f 107 125 123
f 107 123 126
f 107 126 127
f 107 127 128
f 107 128 120
f 107 120 129
f 107 129 115
f 108 130 109
f 109 130 131
f 109 131 132
f 109 132 112
f 109 112 110
f 110 112 111
f 112 133 134
f 112 134 113
f 112 132 135
f 112 135 136
f 112 136 133
f 113 137 138
f 113 138 139
f 113 139 114
f 113 134 140
f 113 140 141
f 113 141 142
f 113 142 143
f 113 143 137
f 115 129 120
f 116 120 117
f 117 120 118
f 118 120 128
f 118 128 119
f 119 128 144
f 121 145 122
f 122 145 146
f 122 146 147
f 122 147 123
f 123 125 124
f 123 147 148
f 123 148 149
f 123 149 150
f 123 150 151
f 123 151 126
f 126 151 127
f 127 151 128
f 128 151 152
f 128 152 144
f 130 153 131
f 131 153 140
f 131 140 135
f 131 135 132
f 133 136 134
f 134 136 135
f 134 135 140
f 137 154 138
f 137 143 154
f 138 155 156
f 138 156 139
f 138 154 155
f 140 153 157
f 140 157 158
f 140 158 141
f 141 158 142
f 142 154 143
f 142 158 154
f 145 159 147
f 145 147 146
f 147 160 149
f 147 149 148
f 147 159 161
f 147 161 156
f 147 156 155
f 147 155 154
f 147 154 162
f 147 162 160
f 149 163 150
f 149 160 163
f 150 163 164
f 150 164 151
f 151 164 152
f 152 164 165
f 154 166 162
f 154 158 167
f 154 167 166
f 157 168 158
f 158 168 169
f 158 169 170
f 158 170 167
f 160 162 171
f 160 171 172
f 160 172 163
f 162 166 171
f 163 173 164
f 163 172 173
f 164 173 166
f 164 166 170
f 164 170 169
f 164 169 165
f 166 172 171
f 166 167 170
f 166 173 172

