# https://github.com/mikedh/trimesh
v 52.88072120 126.36740128 275.24154721
v 52.88072120 127.90076547 274.50214218
v 52.88072120 124.54613220 274.96855727
v 52.97667929 126.36740128 275.22283119
v 52.97667929 127.89010242 274.48810319
v 52.88072120 128.97134777 272.87358031
v 52.88072120 123.81890463 274.85624538
v 54.59327602 124.73593700 274.49902153
v 54.54386701 126.36740128 274.43818856
v 54.33316767 127.70456333 274.21979819
v 52.97667929 128.94362334 272.87670096
v 52.88072120 133.61622369 265.10359017
v 52.88072120 122.64382294 273.91093259
v 57.04532673 127.23111888 271.76758947
v 57.04532673 127.84105188 271.76758947
v 52.88072120 119.78609334 271.49616381
v 52.88072120 118.48092192 270.25290376
v 52.91992292 118.44466705 270.17491115
v 54.56101875 119.37449508 269.25766844
v 55.09021821 123.79757754 272.78154081
v 55.38095241 128.13962031 272.74098813
v 52.98892884 133.67593777 264.89923879
v 52.88072120 133.66740733 264.98347270
v 57.05226722 127.14368037 270.22638217
v 56.07716603 123.71653834 270.22638217
v 54.38951717 116.89850818 266.43732544
v 56.79420111 125.81718284 270.22638217
v 57.05226722 127.86024538 270.22638217
v 54.42299901 133.24514552 263.99759933
v 52.88072120 118.36789307 270.13747122
v 52.88072120 117.12883208 268.78189139
v 52.88072120 115.87484331 267.40448279
v 54.42299901 133.24514552 262.76058059
v 53.17758215 133.60556113 262.03677883
v 52.88072120 133.68020299 262.33628246
v 52.88072120 133.70152909 264.89923879
v 56.99224009 127.42092269 268.84897357
v 52.88072120 113.95760529 264.83372089
v 52.88072120 112.33893668 262.23020398
v 53.21719074 113.11521478 262.27388521
v 54.43321025 116.70230604 264.92576038
v 54.86318481 118.41694262 264.92576038
v 54.38951717 116.76415224 263.14588242
v 56.99224009 127.76640953 268.84897357
v 54.08898254 131.65206823 262.03677883
v 52.88072120 129.18674389 259.91683665
v 52.88072120 131.66699700 260.42069167
v 52.88072120 133.39443023 261.57971780
v 54.55448513 118.41694262 263.02888560
v 53.02690599 113.11521478 259.62357432
v 52.88072120 113.11521478 259.30534677
v 52.88072120 133.61835679 262.06329252
v 52.88072120 111.91667487 259.62357432
v 52.88072120 126.36740128 259.58769077
f 1 2 6
f 1 6 12
f 1 12 23
f 1 23 36
f 1 36 35
f 1 35 52
f 1 52 48
f 1 48 47
f 1 47 46
f 1 46 54
f 1 54 51
f 1 51 53
f 1 53 39
f 1 39 38
f 1 38 32
f 1 32 31
f 1 31 30
f 1 30 17
f 1 17 16
f 1 16 13
f 1 13 7
f 1 7 3
f 1 3 4
f 1 4 2
f 2 4 5
f 2 5 6
f 3 7 4
f 4 7 8
f 4 8 9
f 4 9 10
f 4 10 5
f 5 10 6
f 6 11 12
f 6 10 11
f 7 13 8
f 8 14 15
f 8 15 9
f 8 13 16
f 8 16 17
f 8 17 18
f 8 18 19
f 8 19 20
f 8 20 14
f 9 15 10
f 10 15 21
f 10 21 12
f 10 12 11
f 12 22 23
f 12 21 22
f 14 24 28
f 14 28 15
f 14 20 19
f 14 19 25
f 14 25 26
f 14 26 27
f 14 27 24
f 15 28 29
f 15 29 22
f 15 22 21
f 17 30 18
f 18 30 19
f 19 30 31
f 19 31 32
f 19 32 26
f 19 26 25
f 22 29 33
f 22 33 34
f 22 34 35
f 22 35 36
f 22 36 23
f 24 37 44
f 24 44 28
f 24 27 37
f 26 32 38
f 26 38 39
f 26 39 40
f 26 40 41
f 26 41 27
f 27 41 42
f 27 42 43
f 27 43 37
f 28 44 33
f 28 33 29
f 33 45 46
f 33 46 47
f 33 47 48
f 33 48 34
f 33 44 49
f 33 49 50
f 33 50 51
f 33 51 45
f 34 48 52
f 34 52 35
f 37 43 49
f 37 49 44
f 39 53 40
f 40 53 41
f 41 53 43
f 41 43 42
f 43 53 50
f 43 50 49
f 45 54 46
f 45 51 54
f 50 53 51

