# https://github.com/mikedh/trimesh
v -34.62587403 239.79942922 139.33649995
v -33.66239431 244.00661388 135.03960245
v -31.85332047 243.47558943 135.03960245
v -30.02724105 243.79922084 135.03960245
v -31.67536032 239.79942922 140.15005800
v -36.29439606 239.79942922 140.58489129
v -33.67599877 244.02028944 135.03960245
v -29.13290550 245.65211417 135.03960245
v -30.44097241 241.50874093 138.85023514
v -31.63908570 239.79942922 140.24357092
v -36.78406988 239.79942922 142.98348404
v -34.50232385 248.31180283 135.03960245
v -34.51252720 245.66123122 135.03960245
v -28.38252289 248.30268578 135.03960245
v -30.65973805 239.79942922 142.98348404
v -30.36956082 241.20334361 140.33240681
v -35.69930738 243.84935669 142.98348404
v -33.79274673 250.96237443 135.03960245
v -36.78406988 239.79942922 177.44282681
v -26.96110519 253.60154578 135.03960245
v -29.08983260 245.66123122 137.68132958
v -30.65973805 239.79942922 177.44282681
v -31.66175586 258.91408925 135.03960245
v -35.69930738 243.84935669 177.44282681
v -36.78067272 239.79942922 180.09390601
v -25.56236159 258.82292669 135.03960245
v -26.24813090 256.26351764 150.93671968
v -29.79940576 243.01065171 177.44282681
v -30.69940984 239.79942922 180.09390601
v -30.85243241 261.77206179 135.03960245
v -31.66175586 258.91408925 145.63456522
v -34.50232385 248.31180283 177.44282681
v -32.95282114 254.09610994 169.48959215
v -36.46329051 239.79942922 181.55737549
v -35.97361668 242.13092793 181.60880700
v -36.62991360 240.36008011 180.09390601
v -25.20530365 260.15847115 135.03960245
v -25.20530365 260.15847115 137.68132958
v -25.56009418 258.83204374 137.68132958
v -26.95884173 253.61294604 166.83851393
v -29.08983260 245.66123122 177.44282681
v -30.36729341 241.04381112 180.09390601
v -30.70621207 239.79942922 180.16871477
v -30.81389433 261.84270704 135.03960245
v -31.63342112 258.91408925 148.28564245
v -32.93468580 254.03913236 172.14067037
v -32.33392465 256.26351764 161.53635750
v -30.88984074 260.63023480 148.28564245
v -32.37133298 256.26351764 158.88995532
v -33.75420864 250.96237443 177.44282681
v -36.04955914 242.43860846 180.09390601
v -33.26453482 252.51214575 178.90629628
v -36.30346570 239.79942922 182.03896525
v -36.22751929 240.36008011 181.94545233
v -34.50345755 239.79942922 182.80576684
v -33.19312323 247.01956039 181.42645819
v -25.20530365 260.37953975 135.03960245
v -25.20530365 260.30205276 137.68132958
v -25.21210588 260.18353907 139.63106584
v -26.96564001 253.61294604 169.48959215
v -27.62080717 251.36576814 177.44282681
v -30.43757130 241.29450616 181.52932122
v -31.79550939 239.79942922 182.12312608
v -30.21540454 262.80904275 135.84848742
v -29.33580321 263.04606224 135.03960245
v -32.87687473 253.92290188 174.79174859
v -30.78102083 260.47298552 150.93671968
v -31.85332047 253.05684577 179.21488734
v -31.18228538 255.38606917 176.91448059
v -31.55180619 255.74161024 174.79174859
v -32.29652027 239.79942922 182.33820422
v -31.85332047 243.01065171 182.02026108
v -32.03808285 245.78657874 181.60880700
v -33.04463548 247.01956039 181.42645819
v -31.85332047 250.96237443 180.11260820
v -25.96135479 261.70596716 135.03960245
v -25.21210588 260.27242632 139.63106584
v -27.01438144 253.61294604 172.14067037
v -27.72282485 251.61418788 178.96240483
v -27.16173549 253.61294604 174.79174859
v -30.35142549 243.01065171 181.59010481
v -29.25418828 263.05746249 135.03960245
v -30.64387012 260.33395452 152.86307672
v -31.10974009 258.05031635 164.18743670
v -31.23442398 258.26910964 161.53635750
v -29.20318338 253.16168389 179.25696874
v -29.20318338 254.48583599 178.35457283
v -29.20318338 255.42709588 177.02669570
v -29.20318338 256.17463040 174.79174859
v -30.65633693 257.65603968 168.54044076
v -30.87283516 257.81101365 166.83851393
v -30.38316134 244.98434195 181.53867330
v -31.27749688 246.75290656 181.36099955
v -32.03808285 248.06565840 181.03838136
v -27.28188851 263.08253042 135.03960245
v -26.91010029 260.76926579 145.63456522
v -27.44398073 255.37011829 174.79174859
v -27.72282485 252.65116885 178.96240483
v -27.65821155 255.14220796 176.53108078
v -27.54032989 253.56508550 177.42412462
v -28.44826595 262.93894880 136.61528704
v -29.98076703 260.33395452 152.86307672
v -27.88151201 257.58538653 165.50596175
v -30.26527573 257.65603968 168.54044076
v -27.72622202 262.93894880 136.61528704
v -27.63327398 257.75176076 163.73857627
f 1 2 3
f 1 3 4
f 1 4 5
f 1 5 10
f 1 10 15
f 1 15 22
f 1 22 29
f 1 29 43
f 1 43 63
f 1 63 71
f 1 71 55
f 1 55 53
f 1 53 34
f 1 34 25
f 1 25 19
f 1 19 11
f 1 11 6
f 1 6 2
f 2 7 13
f 2 13 12
f 2 12 18
f 2 18 23
f 2 23 30
f 2 30 44
f 2 44 65
f 2 65 82
f 2 82 95
f 2 95 76
f 2 76 57
f 2 57 37
f 2 37 26
f 2 26 20
f 2 20 14
f 2 14 8
f 2 8 4
f 2 4 3
f 2 6 7
f 4 8 9
f 4 9 5
f 5 9 10
f 6 11 12
f 6 12 13
f 6 13 7
f 8 14 15
f 8 15 16
f 8 16 9
f 9 16 15
f 9 15 10
f 11 17 18
f 11 18 12
f 11 19 24
f 11 24 17
f 14 20 21
f 14 21 15
f 15 21 20
f 15 20 22
f 17 23 18
f 17 24 31
f 17 31 23
f 19 25 24
f 20 26 27
f 20 27 22
f 22 28 29
f 22 27 28
f 23 31 30
f 24 25 32
f 24 32 33
f 24 33 31
f 25 34 35
f 25 35 36
f 25 36 32
f 26 37 38
f 26 38 39
f 26 39 27
f 27 39 38
f 27 38 40
f 27 40 28
f 28 41 29
f 28 40 41
f 29 41 42
f 29 42 43
f 30 31 45
f 30 45 46
f 30 46 47
f 30 47 48
f 30 48 44
f 31 33 49
f 31 49 45
f 32 50 33
f 32 36 51
f 32 51 52
f 32 52 50
f 33 50 46
f 33 46 45
f 33 45 49
f 34 53 54
f 34 54 35
f 35 51 36
f 35 54 55
f 35 55 56
f 35 56 52
f 35 52 51
f 37 57 58
f 37 58 38
f 38 58 77
f 38 77 59
f 38 59 60
f 38 60 40
f 40 60 41
f 41 60 61
f 41 61 42
f 42 61 62
f 42 62 43
f 43 62 63
f 44 64 65
f 44 48 64
f 46 50 52
f 46 52 66
f 46 66 48
f 46 48 47
f 48 67 64
f 48 66 67
f 52 56 68
f 52 68 69
f 52 69 70
f 52 70 66
f 53 55 54
f 55 71 72
f 55 72 73
f 55 73 74
f 55 74 56
f 56 74 75
f 56 75 68
f 57 76 77
f 57 77 58
f 59 77 78
f 59 78 60
f 60 78 61
f 61 79 62
f 61 78 80
f 61 80 79
f 62 81 63
f 62 79 81
f 63 81 71
f 64 82 65
f 64 67 83
f 64 83 82
f 66 70 84
f 66 84 85
f 66 85 67
f 67 85 84
f 67 84 83
f 68 75 86
f 68 86 87
f 68 87 69
f 69 88 89
f 69 89 90
f 69 90 70
f 69 87 88
f 70 90 91
f 70 91 84
f 71 81 92
f 71 92 72
f 72 92 73
f 73 92 93
f 73 93 74
f 74 93 94
f 74 94 75
f 75 94 86
f 76 95 77
f 77 95 96
f 77 96 97
f 77 97 80
f 77 80 78
f 79 80 98
f 79 98 81
f 80 97 99
f 80 99 100
f 80 100 98
f 81 98 92
f 82 83 101
f 82 101 95
f 83 102 105
f 83 105 101
f 83 84 91
f 83 91 90
f 83 90 104
f 83 104 102
f 86 98 87
f 86 94 93
f 86 93 92
f 86 92 98
f 87 98 99
f 87 99 88
f 88 99 89
f 89 99 103
f 89 103 104
f 89 104 90
f 95 101 105
f 95 105 103
f 95 103 96
f 96 103 106
f 96 106 97
f 97 106 103
f 97 103 99
f 98 100 99
f 102 104 105
f 103 105 104

