# https://github.com/mikedh/trimesh
v 10.73681912 58.21960380 161.54051310
v 10.56010328 58.25988787 161.54051310
v 8.93803454 58.69668441 160.13674684
v 10.73681912 58.45920671 160.09635019
v 10.73681912 58.22596362 161.71892949
v 8.85990763 58.67547978 161.54051310
v 9.03290337 58.71577175 163.18665728
v -0.04100993 61.24538054 160.05595354
v 10.56010328 58.51857811 159.99199399
v -1.43799766 61.40440741 160.19397526
v 10.73681912 58.50161598 159.98189335
v 10.73681912 58.41892264 164.12586899
v -1.43799766 61.40440741 160.78308532
v -1.33196757 61.43197186 162.55041747
v -8.26296338 63.52054951 164.18982854
v 10.50801900 58.47828614 164.11913589
v 10.73681912 58.51857811 164.72844526
v -8.26296338 63.89373214 166.41161855
v -8.26296338 63.72834546 159.93476557
v -7.99323827 63.70078101 159.91456823
v -8.26296338 63.34031800 161.54051310
v -8.26296338 63.36151474 161.34189937
v 2.60787395 60.98245570 159.88090469
v 10.73681912 59.97315768 159.52070436
v 10.73681912 58.46344922 164.39517538
v -8.26296338 63.49298506 163.88349108
v 10.73681912 58.94477234 167.25320519
v 10.50801900 58.97657929 167.08488747
v 1.54385589 61.49134326 167.75142526
v -8.26296338 63.97642548 166.89300685
v -8.26296338 63.84496306 159.90110202
v 10.73681912 60.09613509 159.48367525
v 10.56010328 60.09613509 159.49713949
v 10.73681912 59.37732637 169.49182697
v 10.56010328 59.42397815 169.49182697
v 3.31101818 61.25598286 168.95994336
v -7.05385275 63.97006567 168.66033900
v -8.26296338 64.32841138 168.76469520
v -8.26296338 65.37799346 159.69238765
v -7.99323827 65.39708079 159.68228898
v -8.26296338 65.62396408 159.69575519
v 10.73681912 62.40311101 159.69238765
v 10.73681912 59.94346803 172.13440931
v 10.56010328 59.99223711 172.14450798
v 7.90936034 60.13430186 169.49182697
v 4.00486168 61.44045687 170.72727551
v -6.36000925 64.15453968 170.42767115
v -8.26296338 64.47471863 169.51875741
v 10.73681912 62.57061499 159.71595253
v -8.26296338 67.15275197 159.96506157
v 10.73681912 59.98376000 172.31955881
v 5.90595626 61.23902073 172.14450798
v 10.73681912 60.52869703 174.79382392
v 6.49191011 61.39593030 173.58193878
v -8.26296338 65.03661778 172.14450798
v 10.73681912 63.80679629 160.27476658
v -8.26296338 67.28633960 160.03912177
v 10.73681912 63.89584944 160.31852879
v 7.22481757 61.59312393 175.34927093
v 5.46881605 61.89634075 174.59857575
v 10.73681912 61.14784238 177.32531720
v 8.99197937 61.35776353 176.36254185
v -3.25166360 64.27751709 174.79382392
v -3.87482235 64.11213041 173.29243308
v -8.26296338 65.62396408 174.80392308
v -8.26296338 68.47798642 161.00863146
v -8.26296338 68.61793386 161.14328367
v -8.26296338 69.83503178 162.33497197
v 10.73681912 65.06205702 161.55734487
v -1.37289157 64.07184634 176.12689753
v 5.25861641 62.64694852 177.44313936
v 10.73681912 61.87301091 180.03186058
v -8.26296338 66.28976121 177.50709990
v -8.26296338 69.98557758 162.56051614
v 10.73681912 66.37881436 163.36170811
v 10.73681912 65.14051576 161.64487127
v -0.48931042 64.30720674 177.89086362
v -5.34249681 65.48825915 177.44313936
v -8.11973136 66.26643927 177.56769438
v 10.73681912 62.62362658 182.73503764
v 3.92859432 64.07184634 181.42216236
v 2.16143302 64.30720674 180.54017907
v -8.26296338 66.97676298 180.07562304
v 10.73681912 66.46575021 163.49299475
v -8.26296338 70.84432979 164.16626564
v -8.11973136 66.97676298 180.22037613
v 7.67869919 63.51206449 182.97741457
v 10.73681912 63.47389773 185.52910643
v 6.64258381 64.08880847 184.01761593
v 5.25861641 64.27328248 183.37127745
v -4.66911531 66.54844355 182.02810468
v -6.43627563 66.78592915 181.18651804
v -8.26296338 67.64256011 182.47582894
v 10.73681912 66.93435370 164.72844526
v -8.26296338 70.96095134 164.48943488
v 10.73681912 66.96827796 164.81933525
v 10.73681912 63.68805349 186.20237535
v 8.40974610 63.85132287 184.76157899
v -3.72228762 66.80289128 183.79543733
v -1.95512533 66.56540568 184.56296427
v -2.78104156 66.27703369 182.84612695
v -5.46898792 66.99796761 182.84612695
v -8.26296338 67.71889364 182.74513680
v -8.26296338 71.64795311 166.62706405
v -8.26296338 79.87925864 193.87428071
v 10.73681912 74.97906791 193.86418205
v 10.73681912 64.34749081 188.26258073
v 9.46446294 64.13333505 186.52891114
v -8.26296338 69.21588248 187.57247905
v -7.99323827 68.45042198 185.39445225
v -8.26296338 68.43981966 185.12514488
v -8.26296338 71.42531233 193.87428071
v 10.73681912 74.98118522 193.87428071
v 10.73681912 65.17232271 190.69308363
v 3.68863293 66.65870924 189.55862425
v -6.67809854 69.37066684 189.37684130
v -8.26296338 69.49576945 188.44436269
v -8.26296338 68.52039570 185.38435358
v -8.18483646 71.40411164 193.87428071
v -8.26296338 71.22387619 193.33566597
v 10.73681912 71.15602767 193.87428071
v 10.73681912 65.23805392 190.87486559
v 6.62584239 66.73504277 191.99249370
v 5.25861641 66.91739157 191.47744186
v 5.25861641 66.44667078 190.15110135
v -5.34249681 69.19043533 189.88179299
v -7.73467444 70.02798686 190.43724148
v -8.26296338 70.18701373 190.48436926
v -8.26296338 69.71416772 189.09743428
v -7.50587531 71.22175888 193.87428071
v -7.99323827 71.15602767 193.34913021
v -8.26296338 71.13058053 193.07982382
v -3.73902854 69.44700037 191.81407730
v 10.73309902 66.33640509 193.87428071
v 10.73681912 66.31732566 193.82715294
v 10.73681912 66.24310943 193.62853723
v 10.52848001 66.23038981 193.44675527
v -1.97186625 69.20952267 192.45705022
v -5.34249681 69.66116008 191.20813350
v -5.35551665 70.64501490 193.87428071
v -1.55890912 69.62723188 193.87428071
v 10.12110352 66.49967447 193.87428071
v 0.40357145 69.10138218 193.87428071
f 1 2 3
f 1 3 4
f 1 4 11
f 1 11 24
f 1 24 32
f 1 32 42
f 1 42 49
f 1 49 56
f 1 56 58
f 1 58 69
f 1 69 76
f 1 76 75
f 1 75 84
f 1 84 94
f 1 94 96
f 1 96 106
f 1 106 113
f 1 113 121
f 1 121 135
f 1 135 136
f 1 136 122
f 1 122 114
f 1 114 107
f 1 107 97
f 1 97 88
f 1 88 80
f 1 80 72
f 1 72 61
f 1 61 53
f 1 53 51
f 1 51 43
f 1 43 34
f 1 34 27
f 1 27 17
f 1 17 25
f 1 25 12
f 1 12 5
f 1 5 2
f 2 6 3
f 2 5 7
f 2 7 6
f 3 8 9
f 3 9 4
f 3 6 10
f 3 10 8
f 4 9 11
f 5 12 7
f 6 13 10
f 6 7 14
f 6 14 13
f 7 15 14
f 7 12 16
f 7 16 17
f 7 17 18
f 7 18 15
f 8 19 9
f 8 10 19
f 9 19 20
f 9 20 11
f 10 13 21
f 10 21 22
f 10 22 19
f 11 20 23
f 11 23 24
f 12 25 16
f 13 14 21
f 14 15 26
f 14 26 21
f 15 18 30
f 15 30 38
f 15 38 48
f 15 48 55
f 15 55 65
f 15 65 73
f 15 73 83
f 15 83 93
f 15 93 103
f 15 103 111
f 15 111 118
f 15 118 109
f 15 109 117
f 15 117 129
f 15 129 128
f 15 128 132
f 15 132 120
f 15 120 112
f 15 112 105
f 15 105 104
f 15 104 95
f 15 95 85
f 15 85 74
f 15 74 68
f 15 68 67
f 15 67 66
f 15 66 57
f 15 57 50
f 15 50 41
f 15 41 39
f 15 39 31
f 15 31 19
f 15 19 22
f 15 22 21
f 15 21 26
f 16 25 17
f 17 27 28
f 17 28 18
f 18 28 29
f 18 29 30
f 19 31 20
f 20 31 32
f 20 32 33
f 20 33 24
f 20 24 23
f 24 33 32
f 27 34 35
f 27 35 29
f 27 29 28
f 29 36 37
f 29 37 30
f 29 35 36
f 30 37 38
f 31 39 32
f 32 39 40
f 32 40 41
f 32 41 42
f 34 43 44
f 34 44 35
f 35 45 37
f 35 37 36
f 35 44 46
f 35 46 47
f 35 47 45
f 37 48 38
f 37 45 47
f 37 47 48
f 39 41 40
f 41 49 42
f 41 50 49
f 43 51 44
f 44 52 46
f 44 51 53
f 44 53 54
f 44 54 52
f 46 52 55
f 46 55 47
f 47 55 48
f 49 50 56
f 50 57 58
f 50 58 56
f 52 54 55
f 53 59 60
f 53 60 54
f 53 61 62
f 53 62 59
f 54 60 63
f 54 63 64
f 54 64 55
f 55 64 65
f 57 66 58
f 58 66 67
f 58 67 68
f 58 68 69
f 59 63 60
f 59 62 70
f 59 70 63
f 61 71 62
f 61 72 71
f 62 71 70
f 63 70 65
f 63 65 64
f 65 70 73
f 68 74 75
f 68 75 76
f 68 76 69
f 70 71 77
f 70 77 78
f 70 78 79
f 70 79 73
f 71 72 77
f 72 80 81
f 72 81 82
f 72 82 77
f 73 79 83
f 74 84 75
f 74 85 84
f 77 82 86
f 77 86 78
f 78 86 79
f 79 86 83
f 80 87 81
f 80 88 89
f 80 89 90
f 80 90 87
f 81 91 92
f 81 92 82
f 81 87 91
f 82 92 86
f 83 86 93
f 84 85 94
f 85 95 96
f 85 96 94
f 86 92 93
f 87 90 91
f 88 97 98
f 88 98 89
f 89 99 90
f 89 98 100
f 89 100 99
f 90 99 101
f 90 101 91
f 91 93 92
f 91 101 102
f 91 102 103
f 91 103 93
f 95 104 96
f 96 104 105
f 96 105 106
f 97 107 108
f 97 108 109
f 97 109 98
f 98 109 100
f 99 100 110
f 99 110 111
f 99 111 103
f 99 103 102
f 99 102 101
f 100 109 110
f 105 112 119
f 105 119 130
f 105 130 140
f 105 140 141
f 105 141 143
f 105 143 142
f 105 142 134
f 105 134 121
f 105 121 113
f 105 113 106
f 107 109 108
f 107 114 115
f 107 115 116
f 107 116 117
f 107 117 109
f 109 118 110
f 110 118 111
f 112 120 119
f 114 122 123
f 114 123 124
f 114 124 125
f 114 125 115
f 115 125 126
f 115 126 116
f 116 126 127
f 116 127 128
f 116 128 129
f 116 129 117
f 119 120 131
f 119 131 130
f 120 132 133
f 120 133 131
f 121 134 135
f 122 136 137
f 122 137 123
f 123 138 133
f 123 133 124
f 123 137 138
f 124 133 139
f 124 139 127
f 124 127 125
f 125 127 126
f 127 139 133
f 127 133 128
f 128 133 132
f 130 131 140
f 131 133 138
f 131 138 141
f 131 141 140
f 134 142 135
f 135 142 137
f 135 137 136
f 137 142 143
f 137 143 138
f 138 143 141

