# https://github.com/mikedh/trimesh
v 108.82799996 198.87012853 139.32601613
v 110.30369726 198.87012853 140.59379108
v 105.76033537 198.87012853 139.89215780
v 108.64698632 205.98755468 133.53878587
v 111.29627806 205.95112600 133.53878587
v 112.78396025 206.88796958 133.53878587
v 110.70768350 198.87012853 142.98416742
v 105.59730301 198.87012853 140.10023026
v 107.13653522 206.92700538 133.53878587
v 113.30062969 208.54827520 133.53878587
v 114.72117440 213.84666117 133.53878587
v 110.70768350 198.87012853 179.16404243
v 104.58433922 198.87012853 142.98416742
v 107.13653522 208.05642877 133.53878587
v 116.14172701 219.15025351 133.53878587
v 114.72117440 213.84666117 169.49123741
v 113.30062969 208.54827520 177.44142251
v 110.69809243 198.87012853 180.09309622
v 104.68024200 199.23185560 142.98416742
v 107.88696128 211.20007136 133.53878587
v 107.42663739 209.38363041 133.53878587
v 107.29956758 208.80329966 133.53878587
v 104.58433922 198.87012853 180.09309622
v 116.53971685 220.63879684 133.53878587
v 116.14172701 219.15025351 145.63584113
v 115.52915478 216.86539077 161.53621331
v 115.52315838 216.86799000 164.18788702
v 114.61328673 213.84666117 174.78974781
v 113.94916448 211.20007136 177.44142251
v 111.13924209 200.59548593 180.09309622
v 110.53865474 198.87012853 181.23022051
v 105.75554774 203.24728209 142.98416742
v 104.68024200 199.23185560 177.44142251
v 110.72686564 221.79945044 133.53878587
v 104.63229456 198.87012853 180.51407421
v 104.68144286 199.23185560 180.09309622
v 107.07179945 208.15531790 177.44142251
v 105.75554774 203.24728209 177.44142251
v 116.82981903 221.79945044 133.53878587
v 116.13693147 219.15025351 148.28751681
v 115.48119943 216.92263697 166.83956172
v 116.80224668 221.79945044 135.03398133
v 115.36851623 217.28957039 169.49123741
v 114.39631052 213.84666117 177.44142251
v 112.96137921 208.54827520 179.49308363
v 112.73001641 206.82031067 179.16888141
v 110.33006875 198.87012853 181.92217186
v 111.88967605 224.54232226 133.53878587
v 110.72686564 221.79945044 137.68081605
v 106.78768577 206.13849156 180.32052068
v 105.85743902 203.24728209 180.09309622
v 105.87302648 198.87012853 182.63347917
v 107.00226816 205.41503741 181.69958639
v 108.65298271 213.84666117 177.44142251
v 107.42903121 209.47991242 177.44142251
v 109.31110856 216.49845734 172.13807312
v 109.30751389 216.49845734 169.49123741
v 107.88696128 211.20007136 169.49123741
v 116.48457216 223.18910464 133.53878587
v 115.48119943 218.13273119 166.83956172
v 116.21724680 224.16758325 133.53878587
v 116.18967445 224.03226544 135.03398133
v 116.66199113 221.79945044 137.68081605
v 115.36851623 217.94796486 169.49123741
v 115.28579918 217.67732134 170.90417305
v 113.45767356 216.43339766 177.22367602
v 113.09204370 215.50695890 179.00920079
v 113.39533162 213.84666117 179.33824001
v 113.30062969 211.20007136 179.58018144
v 115.28579918 217.83867092 170.90417305
v 114.35315862 216.49845734 174.78974781
v 110.54104856 200.59548593 182.06733751
v 109.30871475 198.87012853 182.66735010
v 111.88247880 223.85009834 140.33249371
v 111.99396905 223.63410178 142.98416742
v 114.05106366 225.45314986 133.53878587
v 110.75803266 221.79945044 140.33249371
v 109.82058866 218.03124283 172.13807312
v 109.86734314 217.94536564 174.78974781
v 107.15451649 207.84303144 179.58502042
v 107.47578569 207.18463697 181.35603020
v 109.67313585 215.59544322 179.07210564
v 106.55632297 198.87012853 182.81735473
v 108.64698632 203.24728209 182.50283048
v 109.56644904 216.48804463 177.23335202
v 109.93207100 217.86469479 176.21236144
v 109.36025687 216.49845734 174.78974781
v 116.04941890 223.79024501 137.68081605
v 115.73174437 220.95108329 153.58602722
v 112.72881555 217.86208767 176.19300549
v 111.29627806 215.74117374 179.17855939
v 111.29627806 213.84666117 179.99632044
v 111.29627806 217.06576826 177.57207119
v 111.29627806 211.20007136 180.57697906
v 110.55663602 205.89647903 181.65119850
v 110.69929329 203.24728209 181.92701085
v 113.13040797 218.01563167 174.78974781
v 115.52556010 220.71166210 156.23770291
v 115.36132688 220.55291964 157.97967877
v 108.64698632 200.59548593 182.93348645
v 108.64698632 198.87012853 182.97219637
v 112.21214611 223.39468849 145.63584113
v 115.82285163 223.54041901 140.33249371
v 112.44110719 223.22553332 147.49878770
v 112.99854263 223.22553332 147.49878770
v 113.94677066 223.80065772 142.98416742
v 115.31936793 223.15527519 144.46484592
v 115.51596903 223.29320013 142.98416742
v 108.47436288 206.13849156 181.77216921
v 109.24277813 207.50993536 181.47700091
v 110.25814364 207.50993536 181.47700091
v 111.29627806 217.88290518 176.24623236
v 113.19513584 220.63359048 161.06200845
v 114.02589303 220.81055123 158.87002067
v 113.90840639 223.35825191 145.46648451
f 1 2 7
f 1 7 12
f 1 12 18
f 1 18 31
f 1 31 47
f 1 47 73
f 1 73 101
f 1 101 83
f 1 83 52
f 1 52 35
f 1 35 23
f 1 23 13
f 1 13 8
f 1 8 3
f 1 3 4
f 1 4 5
f 1 5 6
f 1 6 2
f 2 6 7
f 3 8 9
f 3 9 4
f 4 9 14
f 4 14 22
f 4 22 21
f 4 21 20
f 4 20 34
f 4 34 48
f 4 48 76
f 4 76 61
f 4 61 59
f 4 59 39
f 4 39 24
f 4 24 15
f 4 15 11
f 4 11 10
f 4 10 6
f 4 6 5
f 6 10 7
f 7 10 11
f 7 11 16
f 7 16 12
f 8 13 9
f 9 13 14
f 11 15 25
f 11 25 16
f 12 16 17
f 12 17 18
f 13 19 20
f 13 20 21
f 13 21 22
f 13 22 14
f 13 23 33
f 13 33 19
f 15 24 25
f 16 26 27
f 16 27 28
f 16 28 29
f 16 29 17
f 16 25 26
f 17 29 30
f 17 30 18
f 18 30 31
f 19 32 20
f 19 33 38
f 19 38 32
f 20 32 34
f 23 35 36
f 23 36 37
f 23 37 38
f 23 38 33
f 24 39 40
f 24 40 25
f 25 40 26
f 26 40 27
f 27 41 28
f 27 40 39
f 27 39 42
f 27 42 41
f 28 43 44
f 28 44 29
f 28 41 43
f 29 44 45
f 29 45 46
f 29 46 30
f 30 46 31
f 31 46 47
f 32 38 49
f 32 49 34
f 34 49 48
f 35 50 51
f 35 51 36
f 35 52 53
f 35 53 50
f 36 51 54
f 36 54 55
f 36 55 37
f 37 55 56
f 37 56 57
f 37 57 38
f 38 57 58
f 38 58 49
f 39 59 42
f 41 60 64
f 41 64 43
f 41 42 60
f 42 59 61
f 42 61 62
f 42 62 63
f 42 63 64
f 42 64 60
f 43 64 70
f 43 70 65
f 43 65 44
f 44 66 67
f 44 67 68
f 44 68 69
f 44 69 45
f 44 65 70
f 44 70 71
f 44 71 66
f 45 69 72
f 45 72 47
f 45 47 46
f 47 72 73
f 48 74 75
f 48 75 76
f 48 49 77
f 48 77 78
f 48 78 79
f 48 79 74
f 49 58 57
f 49 57 56
f 49 56 78
f 49 78 77
f 50 80 51
f 50 53 81
f 50 81 82
f 50 82 80
f 51 80 54
f 52 83 53
f 53 83 84
f 53 84 81
f 54 80 82
f 54 82 85
f 54 85 86
f 54 86 87
f 54 87 56
f 54 56 55
f 56 87 78
f 61 76 62
f 62 76 88
f 62 88 89
f 62 89 63
f 63 89 64
f 64 89 70
f 66 90 67
f 66 71 70
f 66 70 90
f 67 91 92
f 67 92 68
f 67 90 93
f 67 93 91
f 68 92 94
f 68 94 95
f 68 95 96
f 68 96 69
f 69 96 72
f 70 97 90
f 70 89 98
f 70 98 99
f 70 99 97
f 72 96 100
f 72 100 101
f 72 101 73
f 74 79 86
f 74 86 75
f 75 102 76
f 75 86 102
f 76 103 88
f 76 102 104
f 76 104 105
f 76 105 106
f 76 106 107
f 76 107 108
f 76 108 103
f 78 87 79
f 79 87 86
f 81 84 109
f 81 109 92
f 81 92 82
f 82 91 93
f 82 93 86
f 82 86 85
f 82 92 91
f 83 101 100
f 83 100 84
f 84 110 109
f 84 100 111
f 84 111 92
f 84 92 110
f 86 93 112
f 86 112 104
f 86 104 102
f 88 103 98
f 88 98 89
f 90 112 93
f 90 97 113
f 90 113 105
f 90 105 112
f 92 109 110
f 92 111 94
f 94 111 95
f 95 111 100
f 95 100 96
f 97 99 114
f 97 114 113
f 98 103 99
f 99 103 108
f 99 108 107
f 99 107 114
f 104 112 105
f 105 115 106
f 105 113 115
f 106 115 107
f 107 115 113
f 107 113 114

