# https://github.com/mikedh/trimesh
v -39.80551721 219.18226587 94.08565651
v -34.50437005 239.79741462 94.71935437
v -34.50437005 237.70663276 94.52885236
v -34.50437005 235.05482080 94.58327812
v -39.43606751 219.18226587 94.20617690
v -41.77705854 219.18226587 95.22863696
v -31.76998325 239.79741462 95.53187747
v -36.30714728 239.79741462 95.81567514
v -32.20100856 237.70663276 95.52410349
v -32.55563713 235.05482080 95.66794582
v -37.47821360 219.18226587 95.11589055
v -42.30842665 219.18226587 97.91891590
v -41.17043135 223.27703594 96.48825080
v -38.69374724 231.87425179 96.15390646
v -30.66049649 239.79741462 97.91891590
v -36.78378547 239.79741462 97.91891590
v -32.91026176 232.40502343 96.06837689
v -35.30142419 224.45360883 95.74181443
v -35.59561481 222.25384905 96.12280264
v -36.18399606 219.18226587 97.91891590
v -40.83632797 224.67761637 97.91891590
v -42.30842665 219.18226587 133.79833330
v -30.65935488 239.79741462 100.57031705
v -31.93076400 235.05482080 97.91891590
v -33.11893071 230.85106490 96.43770413
v -36.78378547 239.79741462 124.42512968
v -36.18399606 219.18226587 133.79833330
v -40.83632797 224.67761637 133.79833330
v -30.65935488 239.79741462 124.42512968
v -40.18522951 227.10542079 133.79833330
v -39.47483865 229.75320356 133.79833330
v -38.79979412 231.94286665 133.79833330
v -36.46678643 239.79741462 126.54003142
v -34.44279444 225.68062568 133.79833330
v -30.66505501 239.79741462 124.67005745
v -33.08928451 230.73804988 133.79833330
v -33.44277148 229.41415850 133.79833330
v -38.08939931 232.54830483 133.79833330
v -36.28434282 239.79741462 127.27868986
v -31.58526037 239.79741462 127.39531931
v -33.08928451 231.33339927 133.79833330
v -37.20454423 233.26474343 133.79833330
v -34.50437005 239.79741462 128.35557962
v -31.67306131 239.79741462 127.44974902
v -34.57278739 232.77837197 133.79833330
v -34.13719961 239.79741462 128.37890551
v -35.90805138 233.03467629 133.79833330
f 1 2 3
f 1 3 4
f 1 4 5
f 1 5 11
f 1 11 20
f 1 20 27
f 1 27 22
f 1 22 12
f 1 12 6
f 1 6 2
f 2 7 3
f 2 6 8
f 2 8 16
f 2 16 26
f 2 26 33
f 2 33 39
f 2 39 43
f 2 43 46
f 2 46 44
f 2 44 40
f 2 40 35
f 2 35 29
f 2 29 23
f 2 23 15
f 2 15 7
f 3 7 4
f 4 7 9
f 4 9 10
f 4 10 11
f 4 11 5
f 6 12 13
f 6 13 14
f 6 14 8
f 7 10 9
f 7 15 10
f 8 14 16
f 10 17 18
f 10 18 11
f 10 15 17
f 11 18 19
f 11 19 20
f 12 21 13
f 12 22 28
f 12 28 21
f 13 21 16
f 13 16 14
f 15 23 24
f 15 24 25
f 15 25 17
f 16 21 28
f 16 28 26
f 17 25 19
f 17 19 18
f 19 25 20
f 20 25 24
f 20 24 23
f 20 23 29
f 20 29 27
f 22 27 34
f 22 34 37
f 22 37 36
f 22 36 41
f 22 41 45
f 22 45 47
f 22 47 42
f 22 42 38
f 22 38 32
f 22 32 31
f 22 31 30
f 22 30 28
f 26 28 30
f 26 30 31
f 26 31 32
f 26 32 33
f 27 29 34
f 29 35 36
f 29 36 37
f 29 37 34
f 32 38 39
f 32 39 33
f 35 40 41
f 35 41 36
f 38 42 39
f 39 42 43
f 40 44 45
f 40 45 41
f 42 46 43
f 42 47 46
f 44 46 45
f 45 46 47

