# https://github.com/mikedh/trimesh
v 11.19448058 98.49168718 246.35547250
v 11.67597750 98.36140192 246.35547250
v 11.19448058 99.12380102 247.05117654
v 11.19448058 108.39320541 246.35547250
v 13.56116169 97.85474621 246.35547250
v 14.87099829 98.62679168 247.59738948
v 11.19448058 100.45075775 248.46270691
v 47.67402315 115.27890930 247.00805623
v 44.81768204 113.67208534 246.35547250
v 11.19448058 139.50192337 270.76261297
v 48.97161810 119.75196466 250.33133781
v 15.91560214 97.22263238 246.35547250
v 35.59986519 93.19350661 247.73538157
v 16.63784753 98.38552969 247.85324743
v 11.19448058 100.75475275 248.77893566
v 49.23276536 115.12450020 247.24666369
v 47.84132173 113.87957318 246.35547250
v 49.02058470 119.75196466 250.33133781
v 11.19448058 139.83486934 272.20289284
v 52.88072120 133.61505542 262.06055899
v 52.88072120 133.39309210 261.57759259
v 52.42370757 133.06979645 260.88476034
v 51.53416361 133.06979645 260.88476034
v 34.57974365 92.21879649 246.35547250
v 35.53049585 95.82811944 250.40320762
v 33.76364562 96.06456219 250.16459226
v 31.77236913 96.32995196 249.89435956
v 29.12005351 96.68702571 249.53501050
v 27.00228197 95.67371035 247.91936576
v 42.36939192 90.94974168 246.35547250
v 45.02170556 92.45523134 248.59207573
v 45.02170556 93.64708358 249.91736548
v 37.06883926 98.27454507 253.26363718
v 18.51487160 99.43261920 249.43726692
v 11.19448058 101.73911320 249.78799666
v 49.48575942 99.85242202 246.35547250
v 48.62477536 110.71900005 246.35547250
v 48.26569491 113.14612702 246.35547250
v 51.86059966 125.45064542 255.38525424
v 11.19448058 139.89759841 272.75197757
v 50.32226019 134.31955061 264.92387219
v 52.88072120 133.67778448 262.33366743
v 52.88072120 131.66563418 260.42191623
v 52.79094911 131.66563418 260.30117463
v 35.48969233 98.46755940 253.06240644
v 34.62462969 97.26606080 251.61637509
v 25.16606240 98.53993879 250.33995713
v 43.87509094 90.71812607 246.35547250
v 45.02170556 91.12827461 247.01092802
v 46.89056952 92.69167409 248.37646629
v 47.67402315 98.88736221 255.20126215
v 45.02170556 96.25274544 252.60243807
v 47.67402315 100.21431895 256.66166430
v 45.02170556 97.57487899 253.89610258
v 37.06883926 99.67388514 254.58892693
v 15.66261203 102.45808388 251.72562163
v 11.19448058 104.37855316 252.45294697
v 51.65657614 106.51616258 252.97903367
v 51.65657614 106.45825867 252.97903367
v 49.28581645 97.45424799 246.35547250
v 51.85651911 123.71353718 255.20126215
v 52.26457010 126.34815199 256.88014948
v 11.19448058 138.78777983 274.78159463
v 13.21432092 138.51756293 274.49123965
v 14.65065060 138.32455057 274.24400497
v 50.32226019 133.46547148 266.97936302
v 52.88072120 133.70191226 264.89799843
v 52.88072120 133.66813416 264.98136330
v 52.88072120 129.18542946 259.91882755
v 26.46773790 101.00084188 253.17452082
v 16.52767467 103.65958446 253.16876934
v 25.12933844 101.18420194 253.00203169
v 45.02170556 90.60231826 246.35547250
v 47.19660678 91.82312146 246.35547250
v 49.19604437 98.23594379 253.42175550
v 49.41639008 100.60516684 256.36555784
v 47.67402315 97.72446489 253.87597240
v 45.02170556 103.11915065 258.94426753
v 45.02170556 101.79701908 257.75122234
v 45.02170556 100.33012676 256.42593258
v 45.02170556 99.00316607 255.22138443
v 49.26540976 111.56342886 266.43314613
v 47.67402315 108.71650106 263.96368298
v 37.76660333 103.66923478 258.42680015
v 37.06883926 101.00084188 255.81934885
v 35.72227970 101.17937875 255.65261120
v 33.95542947 101.41581755 255.43412603
v 29.12005351 102.06723598 254.83616161
v 14.76082345 103.90084842 252.93591336
v 11.19448058 105.70551187 253.74085999
v 52.88072120 113.11717408 259.30649233
v 52.88072120 126.36745263 259.58822009
v 51.67289834 106.39552961 254.32156997
v 49.28581645 97.44942086 246.36984725
v 52.88072120 111.92050063 259.62559682
v 52.70118098 110.46325863 259.62559682
v 48.92673206 96.12246412 246.36984725
v 48.92673206 96.13211444 246.35547250
v 11.19448058 136.96864090 275.42555510
v 13.21432092 136.96864090 275.29043480
v 18.51487160 136.48128584 275.05182734
v 29.12005351 133.73568839 274.99432833
v 21.16718722 136.12421209 274.78447038
v 31.77236913 133.37861662 274.68672680
v 52.88072120 127.90189918 274.49985897
v 23.24823481 135.84917003 274.47399311
v 48.48196008 132.85748345 268.68699986
v 43.98118127 130.41588101 274.31012330
v 44.92785490 131.02386904 272.99346077
v 52.10950922 133.19042942 266.55388773
v 51.41582768 130.28077256 271.45256158
v 52.88072120 128.96829032 272.87271917
v 52.88072120 133.61505542 265.10210490
v 21.16718722 104.45575968 255.07764481
v 18.51487160 104.81283145 254.74704526
v 11.19448058 107.11932545 255.06614975
v 47.20884645 91.84724529 246.35547250
v 49.29397755 97.75823904 251.67099836
v 51.64025394 106.50651226 258.13069368
v 51.79531087 108.95293986 261.15211730
v 52.88072120 115.87242185 267.40195467
v 52.88072120 117.12700117 268.78186769
v 52.88072120 118.36227787 270.13589905
v 52.88072120 118.47808568 270.25376491
v 52.04830493 119.27908508 271.91540569
v 47.67402315 110.28954889 265.28897273
v 47.67402315 111.61650563 266.39002583
v 51.86468021 122.20321842 274.32450200
v 50.32226019 119.07159626 272.04477451
v 36.95458586 102.67522204 257.33725001
v 46.33970326 111.78539218 266.25202978
v 17.03365489 109.09769864 258.33193231
v 29.12005351 103.38936755 256.06083205
v 49.94277305 99.86207234 251.67099836
v 51.97485504 107.55842693 257.13601138
v 51.67289834 106.40035675 256.36268999
v 49.29397755 97.44942086 249.02041885
v 52.88072120 112.34030147 262.22729664
v 48.44931568 94.55906463 246.35547250
v 48.90632931 96.12246412 249.02041885
v 48.44931568 94.55906463 246.36984725
v 11.19448058 134.57046490 274.81609562
v 15.86663555 134.31955061 275.32493578
v 18.51487160 134.31955061 275.48304621
v 50.32226019 126.36745263 275.72165367
v 37.06883926 131.33751338 275.10932635
v 39.72115488 130.99009193 274.92821000
v 50.32226019 128.22519383 274.84771297
v 52.88072120 126.36745263 275.23868727
v 47.67402315 130.78260409 272.22876660
v 49.64897745 130.51721235 271.82053786
v 14.99341279 106.60784458 255.53761318
v 11.19448058 107.43296880 255.35938047
v 52.88072120 113.96160288 264.83188010
v 52.88072120 119.78091661 271.49568979
v 52.88072120 122.64231990 273.91052967
v 52.88072120 123.81969368 274.85634019
v 47.67402315 113.11717408 267.49107892
v 52.83991571 123.79556788 274.86209167
v 50.15087712 123.47709739 274.97420605
v 50.92208910 122.20321842 274.32450200
v 47.67402315 114.79637940 268.67262115
v 16.01353335 107.85277161 256.93764849
v 13.21432092 108.17124012 256.54092270
v 11.19448058 125.34931408 268.68412411
v 11.19448058 111.24495838 258.65391254
v 11.19448058 109.91799967 257.61610204
v 11.19448058 108.44145702 256.29081228
v 11.19448058 133.29176175 274.01114109
v 49.15523887 122.43965722 274.16925942
v 52.88072120 124.54348952 274.96845456
v 50.15087712 121.21885600 273.51667963
v 11.19448058 129.90922432 271.84353588
v 11.19448058 128.58226659 270.93222636
v 11.19448058 126.62319405 269.57243562
v 11.19448058 131.71388678 273.00783947
f 1 2 3
f 1 3 7
f 1 7 15
f 1 15 35
f 1 35 57
f 1 57 90
f 1 90 116
f 1 116 153
f 1 153 168
f 1 168 167
f 1 167 166
f 1 166 165
f 1 165 175
f 1 175 174
f 1 174 173
f 1 173 176
f 1 176 169
f 1 169 142
f 1 142 99
f 1 99 63
f 1 63 40
f 1 40 19
f 1 19 10
f 1 10 4
f 1 4 9
f 1 9 17
f 1 17 38
f 1 38 37
f 1 37 36
f 1 36 60
f 1 60 98
f 1 98 139
f 1 139 117
f 1 117 74
f 1 74 73
f 1 73 48
f 1 48 30
f 1 30 24
f 1 24 12
f 1 12 5
f 1 5 2
f 2 5 6
f 2 6 3
f 3 6 7
f 4 8 9
f 4 10 11
f 4 11 8
f 5 12 6
f 6 12 13
f 6 13 14
f 6 14 7
f 7 14 15
f 8 16 17
f 8 17 9
f 8 11 18
f 8 18 16
f 10 19 20
f 10 20 21
f 10 21 22
f 10 22 23
f 10 23 11
f 11 23 22
f 11 22 18
f 12 24 13
f 13 25 26
f 13 26 27
f 13 27 28
f 13 28 29
f 13 29 14
f 13 24 30
f 13 30 31
f 13 31 32
f 13 32 33
f 13 33 25
f 14 28 34
f 14 34 35
f 14 35 15
f 14 29 28
f 16 36 37
f 16 37 38
f 16 38 17
f 16 18 39
f 16 39 36
f 18 22 39
f 19 40 41
f 19 41 42
f 19 42 20
f 20 42 67
f 20 67 68
f 20 68 113
f 20 113 112
f 20 112 105
f 20 105 149
f 20 149 171
f 20 171 157
f 20 157 156
f 20 156 155
f 20 155 124
f 20 124 123
f 20 123 122
f 20 122 121
f 20 121 154
f 20 154 138
f 20 138 95
f 20 95 91
f 20 91 92
f 20 92 69
f 20 69 43
f 20 43 21
f 21 43 44
f 21 44 22
f 22 44 39
f 25 33 45
f 25 45 46
f 25 46 26
f 26 46 27
f 27 46 47
f 27 47 35
f 27 35 28
f 28 35 34
f 30 48 31
f 31 48 49
f 31 49 50
f 31 50 51
f 31 51 32
f 32 52 33
f 32 51 53
f 32 53 52
f 33 54 55
f 33 55 45
f 33 52 54
f 35 56 57
f 35 47 46
f 35 46 56
f 36 58 59
f 36 59 60
f 36 39 61
f 36 61 58
f 39 44 43
f 39 43 62
f 39 62 61
f 40 63 64
f 40 64 65
f 40 65 66
f 40 66 41
f 41 67 42
f 41 66 68
f 41 68 67
f 43 69 62
f 45 55 70
f 45 70 71
f 45 71 72
f 45 72 46
f 46 72 56
f 48 73 49
f 49 73 50
f 50 73 74
f 50 74 75
f 50 75 76
f 50 76 77
f 50 77 51
f 51 77 76
f 51 76 53
f 52 53 54
f 53 78 79
f 53 79 80
f 53 80 81
f 53 81 54
f 53 76 82
f 53 82 83
f 53 83 78
f 54 81 84
f 54 84 55
f 55 84 85
f 55 85 86
f 55 86 87
f 55 87 88
f 55 88 70
f 56 72 57
f 57 72 89
f 57 89 90
f 58 91 59
f 58 61 62
f 58 62 92
f 58 92 91
f 59 93 94
f 59 94 60
f 59 91 95
f 59 95 96
f 59 96 93
f 60 94 97
f 60 97 98
f 62 69 92
f 63 99 100
f 63 100 101
f 63 101 102
f 63 102 103
f 63 103 64
f 64 103 104
f 64 104 105
f 64 105 106
f 64 106 65
f 65 107 66
f 65 106 105
f 65 105 108
f 65 108 109
f 65 109 107
f 66 110 68
f 66 107 111
f 66 111 112
f 66 112 110
f 68 110 113
f 70 88 114
f 70 114 115
f 70 115 71
f 71 89 72
f 71 115 116
f 71 116 90
f 71 90 89
f 74 117 118
f 74 118 75
f 75 118 119
f 75 119 76
f 76 119 120
f 76 120 121
f 76 121 122
f 76 122 123
f 76 123 124
f 76 124 125
f 76 125 82
f 78 84 79
f 78 83 126
f 78 126 84
f 79 84 80
f 80 84 81
f 82 127 126
f 82 126 83
f 82 125 128
f 82 128 129
f 82 129 127
f 84 130 85
f 84 126 127
f 84 127 131
f 84 131 132
f 84 132 130
f 85 130 86
f 86 130 133
f 86 133 87
f 87 133 114
f 87 114 88
f 93 134 94
f 93 96 135
f 93 135 136
f 93 136 134
f 94 134 137
f 94 137 97
f 95 138 96
f 96 138 119
f 96 119 135
f 97 139 98
f 97 137 140
f 97 140 141
f 97 141 139
f 99 142 143
f 99 143 144
f 99 144 145
f 99 145 100
f 100 145 101
f 101 145 146
f 101 146 102
f 102 146 147
f 102 147 103
f 103 147 104
f 104 147 105
f 105 147 148
f 105 148 149
f 105 112 108
f 107 109 150
f 107 150 151
f 107 151 111
f 108 112 109
f 109 112 150
f 110 112 113
f 111 151 112
f 112 151 150
f 114 133 152
f 114 152 153
f 114 153 115
f 115 153 116
f 117 139 141
f 117 141 140
f 117 140 118
f 118 140 134
f 118 134 119
f 119 134 136
f 119 136 135
f 119 138 154
f 119 154 120
f 120 154 121
f 124 155 125
f 125 155 156
f 125 156 157
f 125 157 128
f 127 129 158
f 127 158 131
f 128 157 159
f 128 159 160
f 128 160 161
f 128 161 129
f 129 161 162
f 129 162 158
f 130 132 163
f 130 163 164
f 130 164 133
f 131 158 132
f 132 158 165
f 132 165 166
f 132 166 167
f 132 167 168
f 132 168 164
f 132 164 163
f 133 164 168
f 133 168 152
f 134 140 137
f 142 169 170
f 142 170 160
f 142 160 143
f 143 145 144
f 143 160 145
f 145 149 148
f 145 148 147
f 145 147 146
f 145 160 159
f 145 159 171
f 145 171 149
f 152 168 153
f 157 171 159
f 158 162 165
f 160 170 161
f 161 170 172
f 161 172 162
f 162 172 170
f 162 170 173
f 162 173 174
f 162 174 175
f 162 175 165
f 169 176 170
f 170 176 173

