# https://github.com/mikedh/trimesh
v 60.92912884 22.97787791 121.54184826
v 61.56225788 33.49668885 116.77253533
v 61.56225788 22.97787791 121.82300720
v 58.56756521 22.97787791 122.23954320
v 61.42669910 33.64230877 116.77253533
v 61.56225788 38.31249555 116.77253533
v 61.56225788 22.97787791 222.80119845
v 57.49277694 22.97787791 124.42634634
v 61.00555323 36.23635311 116.77253533
v 61.08559994 36.53509041 116.77253533
v 61.56225788 38.31399663 129.73714778
v 61.56225788 23.72246559 222.80119845
v 60.92912884 22.97787791 223.15525424
v 57.45335402 22.97787791 127.08174508
v 57.45415986 22.98238113 127.08174508
v 61.56225788 38.31399663 195.99725269
v 61.56225788 26.28048417 222.40549181
v 60.92912884 25.63347416 222.66582533
v 58.88855394 25.63347416 221.93689227
v 58.52935104 22.98238113 222.25970599
v 58.52814623 22.97787791 222.25970599
v 57.45335402 22.97787791 219.85422411
v 57.45415986 22.98238113 217.19882142
v 61.00555323 36.23635311 217.19882142
v 61.56225788 38.31249555 214.55383143
v 61.56225788 31.40853783 221.29126482
v 60.92912884 28.28457509 221.96813039
v 59.54501281 29.77074831 221.23919733
v 59.29320776 28.28457509 221.52035626
v 57.45456278 22.98238113 219.85422411
v 58.16854041 25.63347416 219.85422411
v 61.56225788 38.25995008 217.19882142
v 61.56225788 36.10124861 219.21900937
v 58.92877876 28.28457509 219.85422411
v 61.56225788 37.71351989 218.12560780
f 1 2 3
f 1 3 7
f 1 7 13
f 1 13 21
f 1 21 22
f 1 22 14
f 1 14 8
f 1 8 4
f 1 4 2
f 2 5 9
f 2 9 10
f 2 10 6
f 2 6 11
f 2 11 16
f 2 16 25
f 2 25 32
f 2 32 35
f 2 35 33
f 2 33 26
f 2 26 17
f 2 17 12
f 2 12 7
f 2 7 3
f 2 4 5
f 4 8 9
f 4 9 5
f 6 10 11
f 7 12 13
f 8 14 15
f 8 15 9
f 9 15 23
f 9 23 24
f 9 24 16
f 9 16 11
f 9 11 10
f 12 17 13
f 13 18 19
f 13 19 20
f 13 20 21
f 13 17 18
f 14 22 23
f 14 23 15
f 16 24 25
f 17 26 18
f 18 26 27
f 18 27 28
f 18 28 29
f 18 29 19
f 19 29 22
f 19 22 21
f 19 21 20
f 22 29 28
f 22 28 30
f 22 30 24
f 22 24 23
f 24 30 31
f 24 31 32
f 24 32 25
f 26 33 28
f 26 28 27
f 28 34 31
f 28 31 30
f 28 33 35
f 28 35 32
f 28 32 34
f 31 34 32

