# https://github.com/mikedh/trimesh
v -34.50367876 239.79942922 94.72117146
v -34.50367876 240.36004851 94.76877129
v -31.85284249 248.31223735 94.56646610
v -31.85284249 245.66150773 94.54267014
v -31.85284249 243.01077812 94.82033711
v -31.76871128 239.79942922 95.53435819
v -36.30689842 239.79942922 95.81600695
v -29.20326634 258.91228006 94.61803192
v -33.84065467 248.31223735 95.64542972
v -31.09438569 258.91228006 95.70890142
v -29.20326634 256.26155045 94.51886628
v -29.20326634 253.61369657 94.70927348
v -29.80852281 245.66150773 95.61369387
v -30.16389402 243.01077812 95.92310459
v -30.40248173 241.21966581 96.30391899
v -30.65990396 239.79942922 97.91840238
v -36.23155639 240.36004851 95.87550476
v -36.78281767 239.79942922 97.91840238
v -29.20326634 261.56300967 95.06628402
v -26.55243007 264.21661503 94.74893342
v -33.48528741 250.96296696 96.00640626
v -30.73901447 261.56300967 96.16904360
v -29.33762820 264.00099769 95.71286742
v -26.55243007 261.56300967 95.09007999
v -27.06350999 256.26155045 95.57006794
v -27.41762504 253.61369657 95.80807497
v -25.02672727 261.56300967 96.19284747
v -27.69011726 251.58683674 96.18888147
v -25.21257200 260.18302555 96.55382400
v -29.08899515 245.66150773 97.91840238
v -30.65865175 239.79942922 100.56821555
v -35.97915485 242.24316081 96.25631917
v -36.63338582 240.36004851 97.91840238
v -30.55065742 262.97462695 96.53002804
v -33.26427806 252.61033175 96.37928868
v -36.78281767 239.79942922 124.42447790
v -28.49754856 266.86734464 95.98657629
v -26.49969104 267.06572333 95.77236522
v -24.74167740 266.31247683 96.03417611
v -24.67386838 264.21661503 95.80410107
v -24.27831186 264.21661503 97.91840238
v -26.95802799 253.61369657 97.91840238
v -24.11758245 264.21661503 103.22199471
v -25.20503899 260.15715178 97.91840238
v -26.24854567 256.26155045 97.91840238
v -25.56291857 258.82028007 135.03959850
v -30.65865175 239.79942922 124.42447790
v -35.69912962 243.85027314 100.56821555
v -33.79293634 250.96296696 97.91840238
v -36.63338582 240.36004851 124.42447790
v -28.03795150 268.31057926 96.45465836
v -33.30822790 252.77133372 97.91840238
v -31.66197312 258.91228006 97.91840238
v -30.94872232 261.56300967 97.91840238
v -30.55944660 262.99474923 97.91840238
v -29.46571321 266.86734464 100.56821555
v -29.28488918 266.86734464 97.91840238
v -36.46511945 239.79942922 126.53877526
v -34.50242260 248.31223735 135.03959850
v -27.34855987 268.31057926 96.45465836
v -25.58175704 268.08058322 96.77596706
v -24.81450710 268.46296190 98.54515580
v -24.39509536 267.06572333 97.76369702
v -23.95684910 266.86734464 100.56821555
v -24.11758245 264.21661503 105.87180788
v -24.82832093 261.56300967 103.22199471
v -24.82832093 261.56300967 121.77069479
v -25.20503899 260.15715178 135.03959850
v -26.96054031 253.60507725 135.03959850
v -26.95802799 253.61369657 135.02770052
v -28.37950889 248.31223735 135.02770052
v -28.38202121 248.30361803 135.03959850
v -29.12917652 245.66150773 135.02770052
v -30.66367244 239.79942922 124.67041692
v -30.20784387 264.34311601 105.87180788
v -35.69912962 243.85027314 124.42447790
v -33.79293634 250.96296696 135.03959850
v -28.32300138 268.61820449 97.91840238
v -26.49969104 268.69583368 97.76369702
v -28.51261854 268.82233466 100.56821555
v -30.20784387 264.34311601 108.52162895
v -30.20282318 264.34311601 111.17144211
v -30.55944660 262.93437448 132.37788735
v -30.54688894 262.91425220 134.07567240
v -29.41673872 266.86734464 103.22199471
v -36.28303925 239.79942922 127.27659626
v -34.51246794 245.66150773 135.03959850
v -26.55243007 269.17020446 100.56821555
v -24.68893442 268.53771536 100.56821555
v -24.55331639 266.26072930 111.17144211
v -25.04430563 263.10112793 129.72410424
v -24.91245609 263.30237446 127.07429107
v -24.17660229 264.21661503 111.17144211
v -24.12385931 264.21661503 108.52162895
v -25.20503899 260.38139634 135.03959850
v -27.95256413 249.90497887 135.03959850
v -29.13294500 245.65288841 135.03959850
v -30.02701984 243.80140135 135.03959850
v -31.58411876 239.79942922 127.39559977
v -32.95411285 254.09381883 135.03959850
v -28.42345874 268.66707628 103.22199471
v -31.66197312 258.91228006 135.03959850
v -30.95123464 261.56300967 129.72410424
v -30.94872232 261.56300967 132.37788735
v -30.56195892 263.00337645 121.77069479
v -30.56195892 262.94875318 129.72410424
v -30.85077728 261.78151065 134.98803268
v -30.85203345 261.77288343 135.03959850
v -30.81310429 261.84188540 135.03959850
v -29.33637204 263.04650466 135.03959850
v -28.02037314 268.27896191 107.69256244
v -28.22128786 268.43995598 105.87180788
v -34.50367876 239.79942922 128.35556382
v -33.66234296 244.00552362 135.03959850
v -33.67615678 244.01989443 135.03959850
v -27.52687158 268.27896191 107.69256244
v -26.55243007 268.83096188 103.22199471
v -24.96268279 268.35371537 103.22199471
v -24.70149208 266.03647685 113.82522128
v -25.16234530 262.95737250 131.43379122
v -25.96098347 261.70675720 135.03959850
v -31.85284249 243.47652958 135.03959850
v -34.13700605 239.79942922 128.37936374
v -31.67201846 239.79942922 127.45113553
v -29.25474920 263.05799972 135.03959850
v -28.23761401 265.69722637 121.27881281
v -27.28326318 263.08674922 135.02770052
v -26.60642526 268.40833863 105.68934056
v -27.29707700 265.69722637 121.27881281
v -26.55243007 266.88747483 113.82522128
v -25.17992366 268.21858716 104.68573873
v -25.12090382 265.62535656 118.24422319
v -24.93505909 265.78923427 116.47106845
v -27.28200702 263.08099774 135.03959850
v -26.46829886 265.87547488 119.12484761
f 1 2 3
f 1 3 4
f 1 4 5
f 1 5 6
f 1 6 16
f 1 16 31
f 1 31 47
f 1 47 74
f 1 74 99
f 1 99 124
f 1 124 123
f 1 123 113
f 1 113 86
f 1 86 58
f 1 58 36
f 1 36 18
f 1 18 7
f 1 7 2
f 2 8 3
f 2 7 9
f 2 9 10
f 2 10 8
f 3 8 11
f 3 11 4
f 4 11 12
f 4 12 5
f 5 12 13
f 5 13 14
f 5 14 6
f 6 14 15
f 6 15 16
f 7 17 9
f 7 18 17
f 8 19 20
f 8 20 11
f 8 10 19
f 9 17 10
f 10 17 21
f 10 21 22
f 10 22 23
f 10 23 19
f 11 20 12
f 12 20 24
f 12 24 25
f 12 25 13
f 13 25 26
f 13 26 14
f 14 26 27
f 14 27 28
f 14 28 15
f 15 28 29
f 15 29 16
f 16 29 30
f 16 30 31
f 17 18 32
f 17 32 21
f 18 33 34
f 18 34 35
f 18 35 32
f 18 36 50
f 18 50 33
f 19 23 37
f 19 37 20
f 20 38 39
f 20 39 40
f 20 40 24
f 20 37 38
f 21 32 22
f 22 37 23
f 22 32 35
f 22 35 34
f 22 34 37
f 24 40 25
f 25 40 26
f 26 40 27
f 27 29 28
f 27 40 41
f 27 41 29
f 29 42 30
f 29 41 43
f 29 43 44
f 29 44 45
f 29 45 42
f 30 42 31
f 31 42 45
f 31 45 46
f 31 46 47
f 33 48 49
f 33 49 34
f 33 50 76
f 33 76 48
f 34 51 37
f 34 49 52
f 34 52 53
f 34 53 54
f 34 54 55
f 34 55 56
f 34 56 57
f 34 57 51
f 36 58 59
f 36 59 50
f 37 51 38
f 38 51 60
f 38 60 61
f 38 61 39
f 39 61 62
f 39 62 63
f 39 63 40
f 40 63 41
f 41 63 64
f 41 64 43
f 43 65 46
f 43 46 66
f 43 66 44
f 43 64 65
f 44 66 45
f 45 66 46
f 46 67 68
f 46 68 95
f 46 95 121
f 46 121 134
f 46 134 125
f 46 125 110
f 46 110 109
f 46 109 108
f 46 108 102
f 46 102 100
f 46 100 77
f 46 77 59
f 46 59 87
f 46 87 115
f 46 115 114
f 46 114 122
f 46 122 98
f 46 98 97
f 46 97 72
f 46 72 96
f 46 96 69
f 46 69 70
f 46 70 47
f 46 65 67
f 47 70 71
f 47 71 72
f 47 72 73
f 47 73 74
f 48 75 49
f 48 76 81
f 48 81 75
f 49 75 52
f 50 59 77
f 50 77 76
f 51 57 78
f 51 78 79
f 51 79 60
f 52 75 53
f 53 75 54
f 54 75 55
f 55 75 56
f 56 80 57
f 56 75 81
f 56 81 82
f 56 82 83
f 56 83 84
f 56 84 85
f 56 85 80
f 57 80 78
f 58 86 87
f 58 87 59
f 60 79 61
f 61 79 62
f 62 88 89
f 62 89 64
f 62 64 63
f 62 79 88
f 64 89 90
f 64 90 91
f 64 91 92
f 64 92 93
f 64 93 94
f 64 94 65
f 65 94 68
f 65 68 67
f 68 94 93
f 68 93 95
f 69 96 70
f 70 96 71
f 71 96 72
f 72 97 73
f 73 97 74
f 74 97 98
f 74 98 99
f 76 77 100
f 76 100 81
f 78 80 88
f 78 88 79
f 80 85 84
f 80 84 101
f 80 101 88
f 81 100 102
f 81 102 103
f 81 103 104
f 81 104 105
f 81 105 82
f 82 105 106
f 82 106 83
f 83 106 104
f 83 104 84
f 84 104 102
f 84 102 107
f 84 107 108
f 84 108 109
f 84 109 110
f 84 110 111
f 84 111 112
f 84 112 101
f 86 113 114
f 86 114 115
f 86 115 87
f 88 101 112
f 88 112 111
f 88 111 116
f 88 116 117
f 88 117 118
f 88 118 89
f 89 118 119
f 89 119 90
f 90 119 91
f 91 120 95
f 91 95 92
f 91 119 120
f 92 95 93
f 95 120 121
f 98 122 123
f 98 123 124
f 98 124 99
f 102 108 107
f 102 104 103
f 104 106 105
f 110 125 111
f 111 125 126
f 111 126 127
f 111 127 116
f 113 123 122
f 113 122 114
f 116 128 117
f 116 127 129
f 116 129 130
f 116 130 128
f 117 128 131
f 117 131 118
f 118 131 132
f 118 132 133
f 118 133 119
f 119 133 120
f 120 127 134
f 120 134 121
f 120 133 132
f 120 132 127
f 125 134 127
f 125 127 126
f 127 132 135
f 127 135 129
f 128 130 131
f 129 135 130
f 130 135 131
f 131 135 132

