# https://github.com/mikedh/trimesh
v -82.44341068 60.04118791 121.21361882
v -80.56206016 60.04118791 121.99758597
v -82.55852720 60.04118791 121.25543161
v -81.28496128 71.41630984 116.83386603
v -81.00404725 71.25761084 116.83386603
v -80.56206016 71.01074352 116.83386603
v -80.56206016 60.04118791 222.86783820
v -84.06789595 60.04118791 121.87215155
v -81.35497450 73.34956590 116.83386603
v -80.56206016 76.41616788 116.83386603
v -80.56206016 64.40624598 222.40791328
v -82.22133873 60.04118791 223.60999256
v -84.87541810 60.04118791 124.38084012
v -80.96238062 74.92374546 116.83386603
v -84.88185692 60.04118791 124.43310512
v -84.86897139 60.09569267 124.43310512
v -84.22381797 62.74710962 124.43310512
v -80.60115127 76.27189498 116.83386603
v -80.56206016 76.41777166 129.73271171
v -80.56206016 70.05693782 221.35217285
v -82.60319598 60.04118791 223.62044477
v -84.22510573 62.74710962 127.07768429
v -84.92223579 60.04118791 127.07768429
v -84.90935026 60.09569267 127.07768429
v -84.95015576 60.04118791 129.73271171
v -80.56206016 76.41777166 212.09092560
v -80.56206016 70.54426128 221.20583400
v -81.14021040 69.97197707 221.33126843
v -84.17957581 60.04118791 222.60651713
v -84.95015576 60.04118791 219.85741191
v -80.60716346 76.24945394 214.54734917
v -80.56206016 76.41616788 214.54734917
v -80.56206016 75.13694923 218.80167148
v -80.94048075 74.84038849 218.62397205
v -83.65425544 64.46075074 221.36262506
v -83.88577625 62.74710962 221.79119335
v -84.22510573 62.74710962 219.85741191
v -80.96238062 74.92374546 217.20238054
v -80.56206016 76.20456789 217.20238054
v -80.56206016 76.19815673 217.25464554
v -83.70838098 64.66593957 219.85741191
f 1 2 7
f 1 7 12
f 1 12 21
f 1 21 29
f 1 29 30
f 1 30 25
f 1 25 23
f 1 23 15
f 1 15 13
f 1 13 8
f 1 8 3
f 1 3 4
f 1 4 5
f 1 5 6
f 1 6 2
f 2 6 10
f 2 10 19
f 2 19 26
f 2 26 32
f 2 32 39
f 2 39 40
f 2 40 33
f 2 33 27
f 2 27 20
f 2 20 11
f 2 11 7
f 3 8 4
f 4 9 14
f 4 14 18
f 4 18 10
f 4 10 6
f 4 6 5
f 4 8 9
f 7 11 12
f 8 13 9
f 9 13 15
f 9 15 16
f 9 16 17
f 9 17 14
f 10 18 19
f 11 20 12
f 12 20 21
f 14 17 22
f 14 22 25
f 14 25 30
f 14 30 37
f 14 37 38
f 14 38 31
f 14 31 26
f 14 26 19
f 14 19 18
f 15 23 24
f 15 24 16
f 16 24 17
f 17 24 25
f 17 25 22
f 20 27 28
f 20 28 21
f 21 28 29
f 23 25 24
f 26 31 32
f 27 33 28
f 28 33 34
f 28 34 35
f 28 35 29
f 29 35 36
f 29 36 30
f 30 36 35
f 30 35 37
f 31 38 32
f 32 38 39
f 33 40 34
f 34 41 35
f 34 40 39
f 34 39 38
f 34 38 41
f 35 41 37
f 37 41 38

