####
#
# OBJ File Generated by Meshlab
#
####
# Object launcher collision.obj
#
# Vertices: 102
# Faces: 200
#
####
mtllib ./launcher collision.obj.mtl

vn 1.5454887 -2.1644816 0.3534784
v 20.0000000 -71.2662277 -49.9011497
vn -1.5454887 -2.1644816 0.3534782
v 0.0000000 -71.2662277 -49.9011497
vn 3.0846460 -2.4718564 -1.9368871
v 20.0000000 -68.6503143 -53.4428139
vn -3.0816641 -2.4678516 -1.9416881
v 0.0000000 -68.6503143 -53.4428139
vn 3.0463407 -2.3142858 -2.1191158
v 20.0000000 -64.6786728 -58.2245064
vn -3.0427291 -2.2967272 -2.1376297
v 0.0000000 -64.1556320 -58.8003235
vn 3.0187635 -2.0585105 -2.3650851
v 20.0000000 -56.9664536 -65.8501129
vn -3.0210371 -2.0332515 -2.3871722
v 0.0000000 -56.1279259 -66.5662842
vn 3.0673618 -1.8035063 -2.5695760
v 20.0000000 -49.5273170 -71.5265350
vn -3.0681517 -1.7913359 -2.5781872
v 0.0000000 -49.5273170 -71.5265350
vn 3.0463398 -1.5746832 -2.7142112
v 20.0000000 -44.3075790 -74.9016876
vn -3.0469389 -1.5617299 -2.7218800
v 0.0000000 -43.6362953 -75.2947388
vn 3.0212619 -1.2580523 -2.8721163
v 20.0000000 -34.6677513 -79.8721542
vn -3.0554991 -1.3118465 -2.8511896
v 0.0000000 -35.8038254 -79.3190384
vn -3.0736651 -1.0628957 -2.9541273
v 0.0000000 -30.0409431 -81.6488953
vn 3.0688486 -0.9459136 -2.9932551
v 20.0000000 -25.8716145 -83.0641861
vn -3.0211215 -0.7430314 -3.0457339
v 0.0000000 -21.1192360 -84.4712448
vn 3.0227990 -0.6161280 -3.0744805
v 20.0000000 -17.8991642 -85.2117004
vn -3.0075643 -0.2926624 -3.1200552
v 0.0000000 -8.0991173 -86.6938171
vn 3.0109899 -0.1801893 -3.1291599
v 20.0000000 -4.8039732 -86.9386902
vn -3.0056133 0.1789588 -3.1289718
v 0.0000000 5.1075048 -86.9213867
vn 3.0288672 0.2336822 -3.1275949
v 20.0000000 6.3645177 -86.7923813
vn 3.0122135 0.6110318 -3.0746515
v 20.0000000 17.1166821 -85.3723221
vn -3.0374539 0.5537155 -3.0878572
v 0.0000000 15.8682079 -85.5664825
vn -3.0501168 0.8803241 -3.0120165
v 0.0000000 24.4340153 -83.5248642
vn 3.0455599 0.9931917 -2.9760480
v 20.0000000 27.8927460 -82.4343262
vn -3.0607274 1.1671466 -2.9136682
v 0.0000000 32.7496796 -80.6280518
vn 3.0455558 1.3123903 -2.8497655
v 20.0000000 36.0803375 -79.1936493
vn -3.0700712 1.4071753 -2.8064067
v 0.0000000 38.4110107 -78.0614777
vn 3.0156584 1.6471725 -2.6673234
v 20.0000000 45.6722832 -74.1313400
vn -3.0187635 1.6863173 -2.6433737
v 0.0000000 46.6074448 -73.5469894
vn 3.0363455 1.9633070 -2.4467196
v 20.0000000 54.7596779 -67.6372757
vn -3.0324817 1.9953024 -2.4200280
v 0.0000000 55.3621330 -67.1450500
vn 3.0441370 2.2138691 -2.2231359
v 20.0000000 61.3145714 -61.7571640
vn -3.0204930 2.2844257 -2.1474214
v 0.0000000 63.5375557 -59.5348053
vn 3.0204921 2.4716272 -1.9290097
v 20.0000000 68.5543442 -53.6816216
vn -3.0441372 2.5356555 -1.8477018
v 0.0000000 70.4104004 -51.1448898
vn 3.0459173 2.6865697 -1.6209356
v 20.0000000 74.8242493 -44.4382172
vn -3.0533938 2.7050252 -1.5914662
v 0.0000000 75.2184830 -43.7676010
vn 3.0816624 2.8127666 -1.3959894
v 20.0000000 78.1284027 -38.2747078
vn -3.0846436 2.8157043 -1.3904722
v 0.0000000 78.1284027 -38.2747078
vn 3.0774648 2.8943567 -1.2174389
v 20.0000000 79.9647751 -34.2729454
vn -3.0736933 2.8974357 -1.2093365
v 0.0000000 79.9647751 -34.2729454
vn 3.0210385 2.9909515 -0.9417604
v 20.0000000 82.9204102 -26.5634899
vn -3.0187640 3.0006120 -0.9096258
v 0.0000000 83.2501907 -25.5111656
vn 3.0363450 3.0829449 -0.5800536
v 20.0000000 85.5940628 -15.7188005
vn -3.0374377 3.0885296 -0.5501630
v 0.0000000 85.7311554 -14.9530411
vn 3.0508747 3.1272345 -0.2625397
v 20.0000000 86.7443542 -6.9886022
vn -3.0533948 3.1293354 -0.2391299
v 0.0000000 86.8033600 -6.2128873
vn 1.5361753 1.5697989 1.5148574
v 20.0000000 87.0000000 0.0000000
vn -1.5391567 1.5700102 1.5211053
v 0.0000000 87.0000000 0.0000000
vn 1.6104096 -1.5695641 1.6330047
v 20.0000000 84.0000000 0.0000000
vn -1.6142966 -1.5691850 1.6418808
v 0.0000000 84.0000000 0.0000000
vn 3.2646430 -3.1191950 0.3190455
v 20.0000000 83.6778488 -8.1281586
vn -3.2669661 -3.1152682 0.3529699
v 0.0000000 83.5658112 -9.2089415
vn 3.2562401 -3.0556269 0.7062399
v 20.0000000 81.8538055 -18.9802189
vn -3.2562382 -3.0480075 0.7384320
v 0.0000000 81.6772766 -19.7260227
vn 3.2669654 -2.9429610 1.0809557
v 20.0000000 78.8274918 -29.2279968
vn -3.2646434 -2.9312649 1.1130388
v 0.0000000 78.4431839 -30.2442760
vn 3.2109175 -2.8200417 1.3800328
v 20.0000000 75.0875092 -37.6545639
vn -3.2151361 -2.8089862 1.4018493
v 0.0000000 75.0875092 -37.6545639
vn 3.1955552 -2.7274408 1.5565715
v 20.0000000 73.0434875 -41.4807091
vn -3.2351193 -2.6688306 1.6498990
v 0.0000000 71.7714005 -43.6939430
vn 3.2309082 -2.5944977 1.7653997
v 20.0000000 69.8489838 -46.7056084
vn -3.2552142 -2.4545746 1.9518261
v 0.0000000 65.4838028 -52.7249603
vn 3.2673471 -2.3536928 2.0698586
v 20.0000000 63.3935623 -55.2205162
vn -3.2165766 -2.2409997 2.1986058
v 0.0000000 60.0282631 -58.7588921
vn 3.2721157 -2.0256219 2.3915262
v 20.0000000 54.1122856 -64.3421249
vn -3.2318621 -2.0514684 2.3747299
v 0.0000000 55.0284081 -63.4993477
vn -3.2349920 -1.8001528 2.5701568
v 0.0000000 48.1875038 -68.8350143
vn 3.2397377 -1.6995176 2.6370044
v 20.0000000 45.2177467 -70.8212509
vn -3.2241883 -1.5387403 2.7355442
v 0.0000000 40.8331223 -73.4367065
vn 3.2278502 -1.4142469 2.8015759
v 20.0000000 37.6741753 -75.1062622
vn -3.2036607 -1.3138230 2.8517938
v 0.0000000 35.3642960 -76.1929550
vn 3.2036595 -1.1813607 2.9091659
v 20.0000000 31.3837128 -77.9170227
vn -3.2351174 -1.0631410 2.9520423
v 0.0000000 29.0109005 -78.8584900
vn 3.2309086 -0.9330904 2.9962301
v 20.0000000 25.6322365 -80.0205154
vn -3.2634604 -0.6926842 3.0575886
v 0.0000000 18.4700546 -82.0177231
vn 3.2634578 -0.5658700 3.0835781
v 20.0000000 15.2810040 -82.6712723
vn -3.2391865 -0.3053592 3.1225066
v 0.0000000 7.9102907 -83.6523819
vn 3.2397406 -0.1756409 3.1322994
v 20.0000000 4.3469801 -83.9130402
vn -3.2397366 0.0416360 3.1369443
v 0.0000000 -0.7573107 -84.0221405
vn 3.2391863 0.1716610 3.1327028
v 20.0000000 -4.3288603 -83.9139709
vn -3.2634583 0.4335876 3.1049418
v 0.0000000 -11.7343178 -83.2487488
vn 3.2634573 0.5614024 3.0843947
v 20.0000000 -14.9485035 -82.7320404
vn -3.2391877 0.8188365 3.0286629
v 0.0000000 -22.1895695 -81.0426865
vn 3.2448092 0.9530869 2.9883604
v 20.0000000 -25.6148262 -80.0260849
vn -3.2318981 1.1345515 2.9257016
v 0.0000000 -30.4277840 -78.3226929
vn 3.2593057 1.3218684 2.8433530
v 20.0000000 -35.5806465 -76.1713028
vn -3.2253566 1.4234047 2.7972178
v 0.0000000 -38.3414497 -74.7678299
vn 3.2225356 1.6256204 2.6850619
v 20.0000000 -43.6728363 -71.7543259
vn -3.2173762 1.6495063 2.6709337
v 0.0000000 -43.6728363 -71.7543259
vn 3.2581735 1.8861260 2.5055478
v 20.0000000 -50.4485817 -67.2531815
vn -3.2581739 1.9099331 2.4874480
v 0.0000000 -51.3135147 -66.5955963
vn 3.2173765 2.1325710 2.3036709
v 20.0000000 -57.4626846 -61.2702179
vn -3.2165546 2.1438203 2.2933388
v 0.0000000 -57.4626846 -61.2702179
vn 3.2250984 2.3115387 2.1233983
v 20.0000000 -61.7920074 -56.9389305
vn -3.2250972 2.3243062 2.1094155
v 0.0000000 -62.3088036 -56.3729248
vn 3.2027686 2.4655793 1.9444747
v 20.0000000 -66.2297287 -51.6683960
vn -3.1997037 2.4696870 1.9395676
v 0.0000000 -66.2297287 -51.6683960
vn 1.5966196 0.3620577 2.2206163
v 20.0000000 -68.8087692 -48.1804199
vn -1.5966196 0.3620575 2.2206163
v 0.0000000 -68.8087692 -48.1804199
# 102 vertices, 0 vertices normals


usemtl material_0
f 1//1 2//2 3//3
f 3//3 2//2 4//4
f 3//3 4//4 5//5
f 5//5 4//4 6//6
f 5//5 6//6 7//7
f 7//7 6//6 8//8
f 7//7 8//8 9//9
f 9//9 8//8 10//10
f 9//9 10//10 11//11
f 11//11 10//10 12//12
f 11//11 12//12 13//13
f 13//13 12//12 14//14
f 13//13 14//14 15//15
f 13//13 15//15 16//16
f 16//16 15//15 17//17
f 16//16 17//17 18//18
f 18//18 17//17 19//19
f 18//18 19//19 20//20
f 20//20 19//19 21//21
f 20//20 21//21 22//22
f 22//22 21//21 23//23
f 23//23 21//21 24//24
f 23//23 24//24 25//25
f 23//23 25//25 26//26
f 26//26 25//25 27//27
f 26//26 27//27 28//28
f 28//28 27//27 29//29
f 28//28 29//29 30//30
f 30//30 29//29 31//31
f 30//30 31//31 32//32
f 32//32 31//31 33//33
f 32//32 33//33 34//34
f 34//34 33//33 35//35
f 34//34 35//35 36//36
f 36//36 35//35 37//37
f 36//36 37//37 38//38
f 38//38 37//37 39//39
f 38//38 39//39 40//40
f 40//40 39//39 41//41
f 40//40 41//41 42//42
f 42//42 41//41 43//43
f 42//42 43//43 44//44
f 44//44 43//43 45//45
f 44//44 45//45 46//46
f 46//46 45//45 47//47
f 46//46 47//47 48//48
f 48//48 47//47 49//49
f 48//48 49//49 50//50
f 50//50 49//49 51//51
f 52//52 53//53 54//54
f 54//54 53//53 55//55
f 54//54 55//55 56//56
f 56//56 55//55 57//57
f 56//56 57//57 58//58
f 58//58 57//57 59//59
f 58//58 59//59 60//60
f 60//60 59//59 61//61
f 60//60 61//61 62//62
f 62//62 61//61 63//63
f 62//62 63//63 64//64
f 64//64 63//63 65//65
f 64//64 65//65 66//66
f 66//66 65//65 67//67
f 66//66 67//67 68//68
f 68//68 67//67 69//69
f 68//68 69//69 70//70
f 68//68 70//70 71//71
f 71//71 70//70 72//72
f 71//71 72//72 73//73
f 73//73 72//72 74//74
f 73//73 74//74 75//75
f 75//75 74//74 76//76
f 75//75 76//76 77//77
f 77//77 76//76 78//78
f 77//77 78//78 79//79
f 79//79 78//78 80//80
f 79//79 80//80 81//81
f 81//81 80//80 82//82
f 81//81 82//82 83//83
f 83//83 82//82 84//84
f 83//83 84//84 85//85
f 85//85 84//84 86//86
f 85//85 86//86 87//87
f 87//87 86//86 88//88
f 87//87 88//88 89//89
f 89//89 88//88 90//90
f 89//89 90//90 91//91
f 91//91 90//90 92//92
f 91//91 92//92 93//93
f 93//93 92//92 94//94
f 93//93 94//94 95//95
f 95//95 94//94 96//96
f 95//95 96//96 97//97
f 97//97 96//96 98//98
f 97//97 98//98 99//99
f 99//99 98//98 100//100
f 99//99 100//100 101//101
f 101//101 100//100 102//102
f 102//102 100//100 2//2
f 2//2 100//100 4//4
f 4//4 100//100 98//98
f 4//4 98//98 6//6
f 6//6 98//98 96//96
f 6//6 96//96 8//8
f 8//8 96//96 94//94
f 8//8 94//94 10//10
f 10//10 94//94 92//92
f 10//10 92//92 12//12
f 12//12 92//92 90//90
f 12//12 90//90 14//14
f 14//14 90//90 88//88
f 14//14 88//88 15//15
f 15//15 88//88 86//86
f 15//15 86//86 17//17
f 17//17 86//86 84//84
f 17//17 84//84 19//19
f 19//19 84//84 82//82
f 19//19 82//82 21//21
f 21//21 82//82 80//80
f 21//21 80//80 24//24
f 24//24 80//80 78//78
f 24//24 78//78 25//25
f 25//25 78//78 76//76
f 25//25 76//76 27//27
f 27//27 76//76 74//74
f 27//27 74//74 29//29
f 29//29 74//74 72//72
f 29//29 72//72 31//31
f 31//31 72//72 70//70
f 31//31 70//70 33//33
f 33//33 70//70 69//69
f 33//33 69//69 35//35
f 35//35 69//69 67//67
f 35//35 67//67 65//65
f 35//35 65//65 37//37
f 37//37 65//65 39//39
f 39//39 65//65 63//63
f 39//39 63//63 41//41
f 41//41 63//63 61//61
f 41//41 61//61 43//43
f 43//43 61//61 59//59
f 43//43 59//59 45//45
f 45//45 59//59 57//57
f 45//45 57//57 47//47
f 47//47 57//57 55//55
f 47//47 55//55 49//49
f 49//49 55//55 51//51
f 51//51 55//55 53//53
f 53//53 52//52 51//51
f 51//51 52//52 50//50
f 52//52 54//54 50//50
f 50//50 54//54 48//48
f 48//48 54//54 46//46
f 46//46 54//54 56//56
f 46//46 56//56 44//44
f 44//44 56//56 58//58
f 44//44 58//58 42//42
f 42//42 58//58 60//60
f 42//42 60//60 40//40
f 40//40 60//60 62//62
f 40//40 62//62 38//38
f 38//38 62//62 64//64
f 38//38 64//64 36//36
f 36//36 64//64 66//66
f 36//36 66//66 34//34
f 34//34 66//66 68//68
f 34//34 68//68 32//32
f 32//32 68//68 71//71
f 32//32 71//71 30//30
f 30//30 71//71 73//73
f 30//30 73//73 28//28
f 28//28 73//73 75//75
f 28//28 75//75 26//26
f 26//26 75//75 77//77
f 26//26 77//77 23//23
f 23//23 77//77 79//79
f 23//23 79//79 22//22
f 22//22 79//79 81//81
f 22//22 81//81 20//20
f 20//20 81//81 83//83
f 20//20 83//83 85//85
f 20//20 85//85 18//18
f 18//18 85//85 16//16
f 16//16 85//85 87//87
f 16//16 87//87 13//13
f 13//13 87//87 89//89
f 13//13 89//89 11//11
f 11//11 89//89 91//91
f 11//11 91//91 9//9
f 9//9 91//91 93//93
f 9//9 93//93 7//7
f 7//7 93//93 95//95
f 7//7 95//95 5//5
f 5//5 95//95 97//97
f 5//5 97//97 3//3
f 3//3 97//97 99//99
f 3//3 99//99 1//1
f 1//1 99//99 101//101
f 101//101 102//102 1//1
f 1//1 102//102 2//2
# 200 faces, 0 coords texture

# End of File
